<svg version="1.1" viewBox="0.0 0.0 600.0 371.0" fill="none" stroke="none" stroke-linecap="square" stroke-miterlimit="10" width="600" height="371" xmlns:xlink="http://www.w3.org/1999/xlink" xmlns="http://www.w3.org/2000/svg"><path fill="#ffffff" d="M0 0L600.0 0L600.0 371.0L0 371.0L0 0Z" fill-rule="nonzero"/><path stroke="#cccccc" stroke-width="1.0" stroke-linecap="butt" d="M51.5 89.5L51.5 298.5" fill-rule="nonzero"/><path stroke="#cccccc" stroke-width="1.0" stroke-linecap="butt" d="M99.5 89.5L99.5 298.5" fill-rule="nonzero"/><path stroke="#cccccc" stroke-width="1.0" stroke-linecap="butt" d="M147.5 89.5L147.5 298.5" fill-rule="nonzero"/><path stroke="#cccccc" stroke-width="1.0" stroke-linecap="butt" d="M196.5 89.5L196.5 298.5" fill-rule="nonzero"/><path stroke="#cccccc" stroke-width="1.0" stroke-linecap="butt" d="M244.5 89.5L244.5 298.5" fill-rule="nonzero"/><path stroke="#cccccc" stroke-width="1.0" stroke-linecap="butt" d="M292.5 89.5L292.5 298.5" fill-rule="nonzero"/><path stroke="#cccccc" stroke-width="1.0" stroke-linecap="butt" d="M340.5 89.5L340.5 298.5" fill-rule="nonzero"/><path stroke="#cccccc" stroke-width="1.0" stroke-linecap="butt" d="M388.5 89.5L388.5 298.5" fill-rule="nonzero"/><path stroke="#cccccc" stroke-width="1.0" stroke-linecap="butt" d="M436.5 89.5L436.5 298.5" fill-rule="nonzero"/><path stroke="#cccccc" stroke-width="1.0" stroke-linecap="butt" d="M485.5 89.5L485.5 298.5" fill-rule="nonzero"/><path stroke="#cccccc" stroke-width="1.0" stroke-linecap="butt" d="M533.5 89.5L533.5 298.5" fill-rule="nonzero"/><path stroke="#cccccc" stroke-width="1.0" stroke-linecap="butt" d="M581.5 89.5L581.5 298.5" fill-rule="nonzero"/><path stroke="#333333" stroke-width="1.0" stroke-linecap="butt" d="M51.5 298.5L581.5 298.5" fill-rule="nonzero"/><path stroke="#cccccc" stroke-width="1.0" stroke-linecap="butt" d="M51.5 246.5L581.5 246.5" fill-rule="nonzero"/><path stroke="#cccccc" stroke-width="1.0" stroke-linecap="butt" d="M51.5 194.5L581.5 194.5" fill-rule="nonzero"/><path stroke="#cccccc" stroke-width="1.0" stroke-linecap="butt" d="M51.5 141.5L581.5 141.5" fill-rule="nonzero"/><path stroke="#cccccc" stroke-width="1.0" stroke-linecap="butt" d="M51.5 89.5L581.5 89.5" fill-rule="nonzero"/><path stroke="#e6e6e6" stroke-width="1.0" stroke-linecap="butt" d="M51.5 288.5L581.5 288.5" fill-rule="nonzero"/><path stroke="#e6e6e6" stroke-width="1.0" stroke-linecap="butt" d="M51.5 277.5L581.5 277.5" fill-rule="nonzero"/><path stroke="#e6e6e6" stroke-width="1.0" stroke-linecap="butt" d="M51.5 267.5L581.5 267.5" fill-rule="nonzero"/><path stroke="#e6e6e6" stroke-width="1.0" stroke-linecap="butt" d="M51.5 256.5L581.5 256.5" fill-rule="nonzero"/><path stroke="#e6e6e6" stroke-width="1.0" stroke-linecap="butt" d="M51.5 235.5L581.5 235.5" fill-rule="nonzero"/><path stroke="#e6e6e6" stroke-width="1.0" stroke-linecap="butt" d="M51.5 225.5L581.5 225.5" fill-rule="nonzero"/><path stroke="#e6e6e6" stroke-width="1.0" stroke-linecap="butt" d="M51.5 214.5L581.5 214.5" fill-rule="nonzero"/><path stroke="#e6e6e6" stroke-width="1.0" stroke-linecap="butt" d="M51.5 204.5L581.5 204.5" fill-rule="nonzero"/><path stroke="#e6e6e6" stroke-width="1.0" stroke-linecap="butt" d="M51.5 183.5L581.5 183.5" fill-rule="nonzero"/><path stroke="#e6e6e6" stroke-width="1.0" stroke-linecap="butt" d="M51.5 173.5L581.5 173.5" fill-rule="nonzero"/><path stroke="#e6e6e6" stroke-width="1.0" stroke-linecap="butt" d="M51.5 162.5L581.5 162.5" fill-rule="nonzero"/><path stroke="#e6e6e6" stroke-width="1.0" stroke-linecap="butt" d="M51.5 152.5L581.5 152.5" fill-rule="nonzero"/><path stroke="#e6e6e6" stroke-width="1.0" stroke-linecap="butt" d="M51.5 131.5L581.5 131.5" fill-rule="nonzero"/><path stroke="#e6e6e6" stroke-width="1.0" stroke-linecap="butt" d="M51.5 121.5L581.5 121.5" fill-rule="nonzero"/><path stroke="#e6e6e6" stroke-width="1.0" stroke-linecap="butt" d="M51.5 110.5L581.5 110.5" fill-rule="nonzero"/><path stroke="#e6e6e6" stroke-width="1.0" stroke-linecap="butt" d="M51.5 100.5L581.5 100.5" fill-rule="nonzero"/><path stroke="#000000" stroke-width="1.0" stroke-linecap="butt" d="M51.5 298.5L51.5 89.5" fill-rule="nonzero"/><clipPath id="id_0"><path d="M51.55 89.78333L581.45 89.78333L581.45 298.45L51.55 298.45L51.55 89.78333Z" clip-rule="nonzero"/></clipPath><path stroke="#000000" stroke-width="2.0" stroke-linecap="butt" stroke-opacity="0.0" clip-path="url(#id_0)" d="M51.0 298.0L37.0 298.0L37.0 298.0L51.0 298.0Z" fill-rule="nonzero"/><path fill="#4285f4" clip-path="url(#id_0)" d="M51.0 298.0L37.0 298.0L37.0 298.0L51.0 298.0Z" fill-rule="nonzero"/><path stroke="#000000" stroke-width="2.0" stroke-linecap="butt" stroke-opacity="0.0" clip-path="url(#id_0)" d="M99.0 298.0L85.0 298.0L85.0 298.0L99.0 298.0Z" fill-rule="nonzero"/><path fill="#4285f4" clip-path="url(#id_0)" d="M99.0 298.0L85.0 298.0L85.0 298.0L99.0 298.0Z" fill-rule="nonzero"/><path stroke="#000000" stroke-width="2.0" stroke-linecap="butt" stroke-opacity="0.0" clip-path="url(#id_0)" d="M147.0 298.0L133.0 298.0L133.0 280.0C133.0 278.89542 133.89543 278.0 135.0 278.0L145.0 278.0C146.10457 278.0 147.0 278.89542 147.0 280.0Z" fill-rule="nonzero"/><path fill="#4285f4" clip-path="url(#id_0)" d="M147.0 298.0L133.0 298.0L133.0 280.0C133.0 278.89542 133.89543 278.0 135.0 278.0L145.0 278.0C146.10457 278.0 147.0 278.89542 147.0 280.0Z" fill-rule="nonzero"/><path stroke="#000000" stroke-width="2.0" stroke-linecap="butt" stroke-opacity="0.0" clip-path="url(#id_0)" d="M195.0 298.0L181.0 298.0L181.0 273.0C181.0 271.89542 181.89543 271.0 183.0 271.0L193.0 271.0C194.10457 271.0 195.0 271.89542 195.0 273.0Z" fill-rule="nonzero"/><path fill="#4285f4" clip-path="url(#id_0)" d="M195.0 298.0L181.0 298.0L181.0 273.0C181.0 271.89542 181.89543 271.0 183.0 271.0L193.0 271.0C194.10457 271.0 195.0 271.89542 195.0 273.0Z" fill-rule="nonzero"/><path stroke="#000000" stroke-width="2.0" stroke-linecap="butt" stroke-opacity="0.0" clip-path="url(#id_0)" d="M243.0 298.0L229.0 298.0L229.0 250.0C229.0 248.89543 229.89543 248.0 231.0 248.0L241.0 248.0C242.10457 248.0 243.0 248.89543 243.0 250.0Z" fill-rule="nonzero"/><path fill="#4285f4" clip-path="url(#id_0)" d="M243.0 298.0L229.0 298.0L229.0 250.0C229.0 248.89543 229.89543 248.0 231.0 248.0L241.0 248.0C242.10457 248.0 243.0 248.89543 243.0 250.0Z" fill-rule="nonzero"/><path stroke="#000000" stroke-width="2.0" stroke-linecap="butt" stroke-opacity="0.0" clip-path="url(#id_0)" d="M291.0 298.0L277.0 298.0L277.0 257.0C277.0 255.89543 277.89542 255.0 279.0 255.0L289.0 255.0C290.10458 255.0 291.0 255.89543 291.0 257.0Z" fill-rule="nonzero"/><path fill="#4285f4" clip-path="url(#id_0)" d="M291.0 298.0L277.0 298.0L277.0 257.0C277.0 255.89543 277.89542 255.0 279.0 255.0L289.0 255.0C290.10458 255.0 291.0 255.89543 291.0 257.0Z" fill-rule="nonzero"/><path stroke="#000000" stroke-width="2.0" stroke-linecap="butt" stroke-opacity="0.0" clip-path="url(#id_0)" d="M340.0 298.0L326.0 298.0L326.0 257.0C326.0 255.89543 326.89542 255.0 328.0 255.0L338.0 255.0C339.10458 255.0 340.0 255.89543 340.0 257.0Z" fill-rule="nonzero"/><path fill="#4285f4" clip-path="url(#id_0)" d="M340.0 298.0L326.0 298.0L326.0 257.0C326.0 255.89543 326.89542 255.0 328.0 255.0L338.0 255.0C339.10458 255.0 340.0 255.89543 340.0 257.0Z" fill-rule="nonzero"/><path stroke="#000000" stroke-width="2.0" stroke-linecap="butt" stroke-opacity="0.0" clip-path="url(#id_0)" d="M388.0 298.0L374.0 298.0L374.0 221.0C374.0 219.89543 374.89542 219.0 376.0 219.0L386.0 219.0C387.10458 219.0 388.0 219.89543 388.0 221.0Z" fill-rule="nonzero"/><path fill="#4285f4" clip-path="url(#id_0)" d="M388.0 298.0L374.0 298.0L374.0 221.0C374.0 219.89543 374.89542 219.0 376.0 219.0L386.0 219.0C387.10458 219.0 388.0 219.89543 388.0 221.0Z" fill-rule="nonzero"/><path stroke="#000000" stroke-width="2.0" stroke-linecap="butt" stroke-opacity="0.0" clip-path="url(#id_0)" d="M436.0 298.0L422.0 298.0L422.0 294.0C422.0 292.89542 422.89542 292.0 424.0 292.0L434.0 292.0C435.10458 292.0 436.0 292.89542 436.0 294.0Z" fill-rule="nonzero"/><path fill="#4285f4" clip-path="url(#id_0)" d="M436.0 298.0L422.0 298.0L422.0 294.0C422.0 292.89542 422.89542 292.0 424.0 292.0L434.0 292.0C435.10458 292.0 436.0 292.89542 436.0 294.0Z" fill-rule="nonzero"/><path stroke="#000000" stroke-width="2.0" stroke-linecap="butt" stroke-opacity="0.0" clip-path="url(#id_0)" d="M484.0 298.0L470.0 298.0L470.0 297.0C470.0 296.44772 470.44772 296.0 471.0 296.0L483.0 296.0C483.55228 296.0 484.0 296.44772 484.0 297.0Z" fill-rule="nonzero"/><path fill="#4285f4" clip-path="url(#id_0)" d="M484.0 298.0L470.0 298.0L470.0 297.0C470.0 296.44772 470.44772 296.0 471.0 296.0L483.0 296.0C483.55228 296.0 484.0 296.44772 484.0 297.0Z" fill-rule="nonzero"/><path stroke="#000000" stroke-width="2.0" stroke-linecap="butt" stroke-opacity="0.0" clip-path="url(#id_0)" d="M532.0 298.0L518.0 298.0L518.0 297.0C518.0 296.44772 518.4477 296.0 519.0 296.0L531.0 296.0C531.5523 296.0 532.0 296.44772 532.0 297.0Z" fill-rule="nonzero"/><path fill="#4285f4" clip-path="url(#id_0)" d="M532.0 298.0L518.0 298.0L518.0 297.0C518.0 296.44772 518.4477 296.0 519.0 296.0L531.0 296.0C531.5523 296.0 532.0 296.44772 532.0 297.0Z" fill-rule="nonzero"/><path stroke="#000000" stroke-width="2.0" stroke-linecap="butt" stroke-opacity="0.0" clip-path="url(#id_0)" d="M580.0 298.0L566.0 298.0L566.0 297.0C566.0 296.44772 566.4477 296.0 567.0 296.0L579.0 296.0C579.5523 296.0 580.0 296.44772 580.0 297.0Z" fill-rule="nonzero"/><path fill="#4285f4" clip-path="url(#id_0)" d="M580.0 298.0L566.0 298.0L566.0 297.0C566.0 296.44772 566.4477 296.0 567.0 296.0L579.0 296.0C579.5523 296.0 580.0 296.44772 580.0 297.0Z" fill-rule="nonzero"/><path stroke="#000000" stroke-width="2.0" stroke-linecap="butt" stroke-opacity="0.0" clip-path="url(#id_0)" d="M67.0 298.0L53.0 298.0L53.0 297.0C53.0 296.44772 53.447716 296.0 54.0 296.0L66.0 296.0C66.552284 296.0 67.0 296.44772 67.0 297.0Z" fill-rule="nonzero"/><path fill="#db4437" clip-path="url(#id_0)" d="M67.0 298.0L53.0 298.0L53.0 297.0C53.0 296.44772 53.447716 296.0 54.0 296.0L66.0 296.0C66.552284 296.0 67.0 296.44772 67.0 297.0Z" fill-rule="nonzero"/><path stroke="#000000" stroke-width="2.0" stroke-linecap="butt" stroke-opacity="0.0" clip-path="url(#id_0)" d="M115.0 298.0L101.0 298.0L101.0 297.0C101.0 296.44772 101.447716 296.0 102.0 296.0L114.0 296.0C114.552284 296.0 115.0 296.44772 115.0 297.0Z" fill-rule="nonzero"/><path fill="#db4437" clip-path="url(#id_0)" d="M115.0 298.0L101.0 298.0L101.0 297.0C101.0 296.44772 101.447716 296.0 102.0 296.0L114.0 296.0C114.552284 296.0 115.0 296.44772 115.0 297.0Z" fill-rule="nonzero"/><path stroke="#000000" stroke-width="2.0" stroke-linecap="butt" stroke-opacity="0.0" clip-path="url(#id_0)" d="M163.0 298.0L149.0 298.0L149.0 292.0C149.0 290.89542 149.89543 290.0 151.0 290.0L161.0 290.0C162.10457 290.0 163.0 290.89542 163.0 292.0Z" fill-rule="nonzero"/><path fill="#db4437" clip-path="url(#id_0)" d="M163.0 298.0L149.0 298.0L149.0 292.0C149.0 290.89542 149.89543 290.0 151.0 290.0L161.0 290.0C162.10457 290.0 163.0 290.89542 163.0 292.0Z" fill-rule="nonzero"/><path stroke="#000000" stroke-width="2.0" stroke-linecap="butt" stroke-opacity="0.0" clip-path="url(#id_0)" d="M211.0 298.0L197.0 298.0L197.0 297.0C197.0 296.44772 197.44771 296.0 198.0 296.0L210.0 296.0C210.55229 296.0 211.0 296.44772 211.0 297.0Z" fill-rule="nonzero"/><path fill="#db4437" clip-path="url(#id_0)" d="M211.0 298.0L197.0 298.0L197.0 297.0C197.0 296.44772 197.44771 296.0 198.0 296.0L210.0 296.0C210.55229 296.0 211.0 296.44772 211.0 297.0Z" fill-rule="nonzero"/><path stroke="#000000" stroke-width="2.0" stroke-linecap="butt" stroke-opacity="0.0" clip-path="url(#id_0)" d="M259.0 298.0L245.0 298.0L245.0 282.0C245.0 280.89542 245.89543 280.0 247.0 280.0L257.0 280.0C258.10458 280.0 259.0 280.89542 259.0 282.0Z" fill-rule="nonzero"/><path fill="#db4437" clip-path="url(#id_0)" d="M259.0 298.0L245.0 298.0L245.0 282.0C245.0 280.89542 245.89543 280.0 247.0 280.0L257.0 280.0C258.10458 280.0 259.0 280.89542 259.0 282.0Z" fill-rule="nonzero"/><path stroke="#000000" stroke-width="2.0" stroke-linecap="butt" stroke-opacity="0.0" clip-path="url(#id_0)" d="M307.0 298.0L293.0 298.0L293.0 296.0C293.0 294.89542 293.89542 294.0 295.0 294.0L305.0 294.0C306.10458 294.0 307.0 294.89542 307.0 296.0Z" fill-rule="nonzero"/><path fill="#db4437" clip-path="url(#id_0)" d="M307.0 298.0L293.0 298.0L293.0 296.0C293.0 294.89542 293.89542 294.0 295.0 294.0L305.0 294.0C306.10458 294.0 307.0 294.89542 307.0 296.0Z" fill-rule="nonzero"/><path stroke="#000000" stroke-width="2.0" stroke-linecap="butt" stroke-opacity="0.0" clip-path="url(#id_0)" d="M356.0 298.0L342.0 298.0L342.0 293.0C342.0 291.89542 342.89542 291.0 344.0 291.0L354.0 291.0C355.10458 291.0 356.0 291.89542 356.0 293.0Z" fill-rule="nonzero"/><path fill="#db4437" clip-path="url(#id_0)" d="M356.0 298.0L342.0 298.0L342.0 293.0C342.0 291.89542 342.89542 291.0 344.0 291.0L354.0 291.0C355.10458 291.0 356.0 291.89542 356.0 293.0Z" fill-rule="nonzero"/><path stroke="#000000" stroke-width="2.0" stroke-linecap="butt" stroke-opacity="0.0" clip-path="url(#id_0)" d="M404.0 298.0L390.0 298.0L390.0 162.0C390.0 160.89543 390.89542 160.0 392.0 160.0L402.0 160.0C403.10458 160.0 404.0 160.89543 404.0 162.0Z" fill-rule="nonzero"/><path fill="#db4437" clip-path="url(#id_0)" d="M404.0 298.0L390.0 298.0L390.0 162.0C390.0 160.89543 390.89542 160.0 392.0 160.0L402.0 160.0C403.10458 160.0 404.0 160.89543 404.0 162.0Z" fill-rule="nonzero"/><path stroke="#000000" stroke-width="2.0" stroke-linecap="butt" stroke-opacity="0.0" clip-path="url(#id_0)" d="M452.0 298.0L438.0 298.0L438.0 296.0C438.0 294.89542 438.89542 294.0 440.0 294.0L450.0 294.0C451.10458 294.0 452.0 294.89542 452.0 296.0Z" fill-rule="nonzero"/><path fill="#db4437" clip-path="url(#id_0)" d="M452.0 298.0L438.0 298.0L438.0 296.0C438.0 294.89542 438.89542 294.0 440.0 294.0L450.0 294.0C451.10458 294.0 452.0 294.89542 452.0 296.0Z" fill-rule="nonzero"/><path stroke="#000000" stroke-width="2.0" stroke-linecap="butt" stroke-opacity="0.0" clip-path="url(#id_0)" d="M500.0 298.0L486.0 298.0L486.0 296.0C486.0 294.89542 486.89542 294.0 488.0 294.0L498.0 294.0C499.10458 294.0 500.0 294.89542 500.0 296.0Z" fill-rule="nonzero"/><path fill="#db4437" clip-path="url(#id_0)" d="M500.0 298.0L486.0 298.0L486.0 296.0C486.0 294.89542 486.89542 294.0 488.0 294.0L498.0 294.0C499.10458 294.0 500.0 294.89542 500.0 296.0Z" fill-rule="nonzero"/><path stroke="#000000" stroke-width="2.0" stroke-linecap="butt" stroke-opacity="0.0" clip-path="url(#id_0)" d="M548.0 298.0L534.0 298.0L534.0 297.0C534.0 296.44772 534.4477 296.0 535.0 296.0L547.0 296.0C547.5523 296.0 548.0 296.44772 548.0 297.0Z" fill-rule="nonzero"/><path fill="#db4437" clip-path="url(#id_0)" d="M548.0 298.0L534.0 298.0L534.0 297.0C534.0 296.44772 534.4477 296.0 535.0 296.0L547.0 296.0C547.5523 296.0 548.0 296.44772 548.0 297.0Z" fill-rule="nonzero"/><path stroke="#000000" stroke-width="2.0" stroke-linecap="butt" stroke-opacity="0.0" clip-path="url(#id_0)" d="M596.0 298.0L582.0 298.0L582.0 298.0L596.0 298.0Z" fill-rule="nonzero"/><path fill="#db4437" clip-path="url(#id_0)" d="M596.0 298.0L582.0 298.0L582.0 298.0L596.0 298.0Z" fill-rule="nonzero"/><path stroke="#000000" stroke-width="1.0" stroke-linecap="butt" d="M48.5 288.5L54.5 288.5" fill-rule="nonzero"/><path stroke="#000000" stroke-width="1.0" stroke-linecap="butt" d="M48.5 277.5L54.5 277.5" fill-rule="nonzero"/><path stroke="#000000" stroke-width="1.0" stroke-linecap="butt" d="M48.5 267.5L54.5 267.5" fill-rule="nonzero"/><path stroke="#000000" stroke-width="1.0" stroke-linecap="butt" d="M48.5 256.5L54.5 256.5" fill-rule="nonzero"/><path stroke="#000000" stroke-width="1.0" stroke-linecap="butt" d="M48.5 235.5L54.5 235.5" fill-rule="nonzero"/><path stroke="#000000" stroke-width="1.0" stroke-linecap="butt" d="M48.5 225.5L54.5 225.5" fill-rule="nonzero"/><path stroke="#000000" stroke-width="1.0" stroke-linecap="butt" d="M48.5 214.5L54.5 214.5" fill-rule="nonzero"/><path stroke="#000000" stroke-width="1.0" stroke-linecap="butt" d="M48.5 204.5L54.5 204.5" fill-rule="nonzero"/><path stroke="#000000" stroke-width="1.0" stroke-linecap="butt" d="M48.5 183.5L54.5 183.5" fill-rule="nonzero"/><path stroke="#000000" stroke-width="1.0" stroke-linecap="butt" d="M48.5 173.5L54.5 173.5" fill-rule="nonzero"/><path stroke="#000000" stroke-width="1.0" stroke-linecap="butt" d="M48.5 162.5L54.5 162.5" fill-rule="nonzero"/><path stroke="#000000" stroke-width="1.0" stroke-linecap="butt" d="M48.5 152.5L54.5 152.5" fill-rule="nonzero"/><path stroke="#000000" stroke-width="1.0" stroke-linecap="butt" d="M48.5 131.5L54.5 131.5" fill-rule="nonzero"/><path stroke="#000000" stroke-width="1.0" stroke-linecap="butt" d="M48.5 121.5L54.5 121.5" fill-rule="nonzero"/><path stroke="#000000" stroke-width="1.0" stroke-linecap="butt" d="M48.5 110.5L54.5 110.5" fill-rule="nonzero"/><path stroke="#000000" stroke-width="1.0" stroke-linecap="butt" d="M48.5 100.5L54.5 100.5" fill-rule="nonzero"/><path stroke="#000000" stroke-width="1.0" stroke-linecap="butt" d="M45.5 298.5L57.5 298.5" fill-rule="nonzero"/><path stroke="#000000" stroke-width="1.0" stroke-linecap="butt" d="M45.5 246.5L57.5 246.5" fill-rule="nonzero"/><path stroke="#000000" stroke-width="1.0" stroke-linecap="butt" d="M45.5 194.5L57.5 194.5" fill-rule="nonzero"/><path stroke="#000000" stroke-width="1.0" stroke-linecap="butt" d="M45.5 141.5L57.5 141.5" fill-rule="nonzero"/><path stroke="#000000" stroke-width="1.0" stroke-linecap="butt" d="M45.5 89.5L57.5 89.5" fill-rule="nonzero"/><path fill="#424242" d="M305.9375 340.91876L308.73438 347.8719L311.51562 340.91876L312.98438 340.91876L312.98438 349.45L311.85938 349.45L311.85938 346.1219L311.96875 342.54376L309.15625 349.45L308.29688 349.45L305.5 342.5594L305.60938 346.1219L305.60938 349.45L304.48438 349.45L304.48438 340.91876L305.9375 340.91876ZM314.03125 346.21564Q314.03125 345.29376 314.39062 344.54376Q314.76562 343.79376 315.42188 343.40314Q316.07812 342.9969 316.90625 342.9969Q318.20312 342.9969 319.0 343.8875Q319.8125 344.77814 319.8125 346.27814L319.8125 346.35626Q319.8125 347.27814 319.45312 348.0125Q319.09375 348.7469 318.4375 349.16876Q317.78125 349.575 316.92188 349.575Q315.64062 349.575 314.82812 348.6844Q314.03125 347.77814 314.03125 346.29376L314.03125 346.21564ZM315.125 346.35626Q315.125 347.40314 315.60938 348.04376Q316.10938 348.6844 316.92188 348.6844Q317.75 348.6844 318.23438 348.04376Q318.71875 347.3875 318.71875 346.21564Q318.71875 345.1844 318.21875 344.54376Q317.73438 343.8875 316.90625 343.8875Q316.10938 343.8875 315.60938 344.52814Q315.125 345.15314 315.125 346.35626ZM322.5 349.45L321.42188 349.45L321.42188 343.10626L322.5 343.10626L322.5 349.45ZM321.32812 341.4344Q321.32812 341.16876 321.48438 340.98126Q321.65625 340.79376 321.96875 340.79376Q322.28125 340.79376 322.4375 340.98126Q322.60938 341.16876 322.60938 341.4344Q322.60938 341.6844 322.4375 341.8719Q322.28125 342.04376 321.96875 342.04376Q321.65625 342.04376 321.48438 341.8719Q321.32812 341.6844 321.32812 341.4344ZM328.01562 347.7625Q328.01562 347.325 327.67188 347.09064Q327.34375 346.84064 326.51562 346.66876Q325.70312 346.4969 325.21875 346.2469Q324.73438 345.9969 324.5 345.66876Q324.28125 345.325 324.28125 344.85626Q324.28125 344.075 324.9375 343.54376Q325.59375 342.9969 326.625 342.9969Q327.70312 342.9969 328.35938 343.5594Q329.03125 344.10626 329.03125 344.96564L327.95312 344.96564Q327.95312 344.52814 327.5625 344.21564Q327.1875 343.8875 326.625 343.8875Q326.03125 343.8875 325.6875 344.15314Q325.35938 344.40314 325.35938 344.8094Q325.35938 345.2 325.67188 345.40314Q325.98438 345.60626 326.79688 345.79376Q327.60938 345.96564 328.10938 346.21564Q328.60938 346.46564 328.84375 346.825Q329.09375 347.1844 329.09375 347.6844Q329.09375 348.54376 328.40625 349.0594Q327.73438 349.575 326.65625 349.575Q325.89062 349.575 325.29688 349.3094Q324.71875 349.02814 324.39062 348.54376Q324.0625 348.0594 324.0625 347.4969L325.14062 347.4969Q325.17188 348.04376 325.57812 348.3719Q325.98438 348.6844 326.65625 348.6844Q327.26562 348.6844 327.64062 348.4344Q328.01562 348.1844 328.01562 347.7625Z" fill-rule="nonzero"/><path fill="#757575" d="M38.6125 299.3094Q38.6125 301.21564 37.95625 302.15314Q37.315624 303.075 35.925 303.075Q34.565624 303.075 33.909374 302.16876Q33.253124 301.2625 33.221874 299.45L33.221874 298.0125Q33.221874 296.1219 33.8625 295.21564Q34.51875 294.29376 35.909374 294.29376Q37.284374 294.29376 37.940624 295.1844Q38.596874 296.0594 38.6125 297.90314L38.6125 299.3094ZM37.51875 297.825Q37.51875 296.45 37.128124 295.825Q36.753124 295.1844 35.909374 295.1844Q35.08125 295.1844 34.690624 295.825Q34.315624 296.45 34.315624 297.7469L34.315624 299.48126Q34.315624 300.85626 34.70625 301.52814Q35.1125 302.1844 35.925 302.1844Q36.721874 302.1844 37.1125 301.5594Q37.503124 300.9344 37.51875 299.60626L37.51875 297.825Z" fill-rule="nonzero"/><path fill="#757575" d="M31.846874 250.78334L26.253124 250.78334L26.253124 250.00209L29.20625 246.72084Q29.8625 245.97084 30.1125 245.51772Q30.3625 245.04897 30.3625 244.54897Q30.3625 243.87709 29.95625 243.45522Q29.565624 243.01772 28.878124 243.01772Q28.08125 243.01772 27.628124 243.48647Q27.175 243.93959 27.175 244.76772L26.096874 244.76772Q26.096874 243.58022 26.846874 242.86147Q27.6125 242.12709 28.878124 242.12709Q30.08125 242.12709 30.76875 242.75209Q31.45625 243.37709 31.45625 244.42397Q31.45625 245.67397 29.846874 247.42397L27.565624 249.89272L31.846874 249.89272L31.846874 250.78334ZM33.753124 246.50209L34.190624 242.25209L38.565624 242.25209L38.565624 243.25209L35.1125 243.25209L34.846874 245.58022Q35.4875 245.20522 36.284374 245.20522Q37.440624 245.20522 38.128124 245.98647Q38.815624 246.75209 38.815624 248.06459Q38.815624 249.37709 38.096874 250.14272Q37.39375 250.90834 36.1125 250.90834Q34.9875 250.90834 34.26875 250.28334Q33.55 249.64272 33.45625 248.53334L34.471874 248.53334Q34.58125 249.26772 35.003124 249.64272Q35.425 250.01772 36.1125 250.01772Q36.8625 250.01772 37.3 249.50209Q37.7375 248.98647 37.7375 248.08022Q37.7375 247.22084 37.26875 246.70522Q36.8 246.18959 36.01875 246.18959Q35.315624 246.18959 34.909374 246.48647L34.628124 246.72084L33.753124 246.50209Z" fill-rule="nonzero"/><path fill="#757575" d="M26.753124 194.33542L27.190624 190.08542L31.565624 190.08542L31.565624 191.08542L28.1125 191.08542L27.846874 193.41354Q28.4875 193.03854 29.284374 193.03854Q30.440624 193.03854 31.128124 193.8198Q31.815624 194.58542 31.815624 195.89792Q31.815624 197.21042 31.096874 197.97604Q30.39375 198.74167 29.1125 198.74167Q27.9875 198.74167 27.26875 198.11667Q26.55 197.47604 26.45625 196.36667L27.471874 196.36667Q27.58125 197.10104 28.003124 197.47604Q28.425 197.85104 29.1125 197.85104Q29.8625 197.85104 30.3 197.33542Q30.7375 196.8198 30.7375 195.91354Q30.7375 195.05417 30.26875 194.53854Q29.8 194.02292 29.01875 194.02292Q28.315624 194.02292 27.909374 194.3198L27.628124 194.55417L26.753124 194.33542ZM38.6125 194.97604Q38.6125 196.8823 37.95625 197.8198Q37.315624 198.74167 35.925 198.74167Q34.565624 198.74167 33.909374 197.83542Q33.253124 196.92917 33.221874 195.11667L33.221874 193.67917Q33.221874 191.78854 33.8625 190.8823Q34.51875 189.96042 35.909374 189.96042Q37.284374 189.96042 37.940624 190.85104Q38.596874 191.72604 38.6125 193.5698L38.6125 194.97604ZM37.51875 193.49167Q37.51875 192.11667 37.128124 191.49167Q36.753124 190.85104 35.909374 190.85104Q35.08125 190.85104 34.690624 191.49167Q34.315624 192.11667 34.315624 193.41354L34.315624 195.14792Q34.315624 196.52292 34.70625 197.1948Q35.1125 197.85104 35.925 197.85104Q36.721874 197.85104 37.1125 197.22604Q37.503124 196.60104 37.51875 195.27292L37.51875 193.49167Z" fill-rule="nonzero"/><path fill="#757575" d="M31.76875 138.52812L28.2375 146.45L27.096874 146.45L30.6125 138.80937L26.003124 138.80937L26.003124 137.91875L31.76875 137.91875L31.76875 138.52812ZM33.753124 142.16875L34.190624 137.91875L38.565624 137.91875L38.565624 138.91875L35.1125 138.91875L34.846874 141.24687Q35.4875 140.87187 36.284374 140.87187Q37.440624 140.87187 38.128124 141.65312Q38.815624 142.41875 38.815624 143.73125Q38.815624 145.04375 38.096874 145.80937Q37.39375 146.575 36.1125 146.575Q34.9875 146.575 34.26875 145.95Q33.55 145.30937 33.45625 144.2L34.471874 144.2Q34.58125 144.93437 35.003124 145.30937Q35.425 145.68437 36.1125 145.68437Q36.8625 145.68437 37.3 145.16875Q37.7375 144.65312 37.7375 143.74687Q37.7375 142.8875 37.26875 142.37187Q36.8 141.85625 36.01875 141.85625Q35.315624 141.85625 34.909374 142.15312L34.628124 142.3875L33.753124 142.16875Z" fill-rule="nonzero"/><path fill="#757575" d="M22.815624 94.28333L21.7375 94.28333L21.7375 87.06458L19.55 87.86146L19.55 86.87708L22.659374 85.70521L22.815624 85.70521L22.815624 94.28333ZM31.6125 90.64271Q31.6125 92.54896 30.95625 93.48646Q30.315624 94.40833 28.925 94.40833Q27.565624 94.40833 26.909374 93.50208Q26.253124 92.59583 26.221874 90.78333L26.221874 89.34583Q26.221874 87.45521 26.8625 86.54896Q27.51875 85.62708 28.909374 85.62708Q30.284374 85.62708 30.940624 86.51771Q31.596874 87.39271 31.6125 89.23646L31.6125 90.64271ZM30.51875 89.15833Q30.51875 87.78333 30.128124 87.15833Q29.753124 86.51771 28.909374 86.51771Q28.08125 86.51771 27.690624 87.15833Q27.315624 87.78333 27.315624 89.08021L27.315624 90.81458Q27.315624 92.18958 27.70625 92.86146Q28.1125 93.51771 28.925 93.51771Q29.721874 93.51771 30.1125 92.89271Q30.503124 92.26771 30.51875 90.93958L30.51875 89.15833ZM38.6125 90.64271Q38.6125 92.54896 37.95625 93.48646Q37.315624 94.40833 35.925 94.40833Q34.565624 94.40833 33.909374 93.50208Q33.253124 92.59583 33.221874 90.78333L33.221874 89.34583Q33.221874 87.45521 33.8625 86.54896Q34.51875 85.62708 35.909374 85.62708Q37.284374 85.62708 37.940624 86.51771Q38.596874 87.39271 38.6125 89.23646L38.6125 90.64271ZM37.51875 89.15833Q37.51875 87.78333 37.128124 87.15833Q36.753124 86.51771 35.909374 86.51771Q35.08125 86.51771 34.690624 87.15833Q34.315624 87.78333 34.315624 89.08021L34.315624 90.81458Q34.315624 92.18958 34.70625 92.86146Q35.1125 93.51771 35.925 93.51771Q36.721874 93.51771 37.1125 92.89271Q37.503124 92.26771 37.51875 90.93958L37.51875 89.15833Z" fill-rule="nonzero"/><path fill="#757575" d="M52.315624 316.45L51.2375 316.45L51.2375 309.23126L49.05 310.02814L49.05 309.04376L52.159374 307.8719L52.315624 307.8719L52.315624 316.45Z" fill-rule="nonzero"/><path fill="#757575" d="M102.5196 316.45L96.92585 316.45L96.92585 315.66876L99.878975 312.3875Q100.535225 311.6375 100.785225 311.1844Q101.035225 310.71564 101.035225 310.21564Q101.035225 309.54376 100.628975 309.1219Q100.23835 308.6844 99.55085 308.6844Q98.753975 308.6844 98.30085 309.15314Q97.847725 309.60626 97.847725 310.4344L96.7696 310.4344Q96.7696 309.2469 97.5196 308.52814Q98.285225 307.79376 99.55085 307.79376Q100.753975 307.79376 101.441475 308.41876Q102.128975 309.04376 102.128975 310.09064Q102.128975 311.34064 100.5196 313.09064L98.23835 315.5594L102.5196 315.5594L102.5196 316.45Z" fill-rule="nonzero"/><path fill="#757575" d="M146.67671 311.65314L147.48921 311.65314Q148.27046 311.6375 148.70796 311.2469Q149.14546 310.85626 149.14546 310.1844Q149.14546 308.6844 147.64546 308.6844Q146.94234 308.6844 146.52046 309.09064Q146.11421 309.4969 146.11421 310.15314L145.02046 310.15314Q145.02046 309.1375 145.75484 308.46564Q146.50484 307.79376 147.64546 307.79376Q148.84859 307.79376 149.53609 308.4344Q150.22359 309.075 150.22359 310.21564Q150.22359 310.77814 149.86421 311.29376Q149.50484 311.8094 148.87984 312.075Q149.58296 312.29376 149.95796 312.8094Q150.34859 313.325 150.34859 314.075Q150.34859 315.21564 149.59859 315.90314Q148.84859 316.575 147.64546 316.575Q146.45796 316.575 145.69234 315.91876Q144.94234 315.2625 144.94234 314.2L146.03609 314.2Q146.03609 314.8719 146.47359 315.27814Q146.91109 315.6844 147.66109 315.6844Q148.44234 315.6844 148.84859 315.27814Q149.27046 314.85626 149.27046 314.09064Q149.27046 313.35626 148.81734 312.96564Q148.36421 312.5594 147.48921 312.54376L146.67671 312.54376L146.67671 311.65314Z" fill-rule="nonzero"/><path fill="#757575" d="M197.84943 313.59064L199.03693 313.59064L199.03693 314.46564L197.84943 314.46564L197.84943 316.45L196.7713 316.45L196.7713 314.46564L192.88068 314.46564L192.88068 313.825L196.69318 307.91876L197.84943 307.91876L197.84943 313.59064ZM194.11505 313.59064L196.7713 313.59064L196.7713 309.40314L196.63068 309.6375L194.11505 313.59064Z" fill-rule="nonzero"/><path fill="#757575" d="M241.94403 312.16876L242.38153 307.91876L246.75653 307.91876L246.75653 308.91876L243.3034 308.91876L243.03778 311.2469Q243.6784 310.8719 244.47528 310.8719Q245.63153 310.8719 246.31903 311.65314Q247.00653 312.41876 247.00653 313.73126Q247.00653 315.04376 246.28778 315.8094Q245.58466 316.575 244.3034 316.575Q243.1784 316.575 242.45966 315.95Q241.7409 315.3094 241.64716 314.2L242.66278 314.2Q242.77216 314.9344 243.19403 315.3094Q243.6159 315.6844 244.3034 315.6844Q245.0534 315.6844 245.4909 315.16876Q245.9284 314.65314 245.9284 313.7469Q245.9284 312.8875 245.45966 312.3719Q244.9909 311.85626 244.20966 311.85626Q243.50653 311.85626 243.10028 312.15314L242.81903 312.3875L241.94403 312.16876Z" fill-rule="nonzero"/><path fill="#757575" d="M293.8824 307.91876L293.8824 308.825L293.67926 308.825Q292.41364 308.85626 291.66364 309.59064Q290.91364 310.3094 290.78864 311.6219Q291.47614 310.85626 292.6324 310.85626Q293.74176 310.85626 294.41364 311.6375Q295.0855 312.41876 295.0855 313.66876Q295.0855 314.98126 294.36676 315.77814Q293.648 316.575 292.42926 316.575Q291.2105 316.575 290.4449 315.6375Q289.6949 314.6844 289.6949 313.2L289.6949 312.79376Q289.6949 310.4344 290.6949 309.1844Q291.6949 307.9344 293.67926 307.91876L293.8824 307.91876ZM292.4605 311.7625Q291.898 311.7625 291.42926 312.09064Q290.9605 312.41876 290.773 312.9344L290.773 313.325Q290.773 314.3875 291.24176 315.02814Q291.72614 315.66876 292.42926 315.66876Q293.16364 315.66876 293.5855 315.1375Q294.0074 314.59064 294.0074 313.71564Q294.0074 312.84064 293.5855 312.3094Q293.16364 311.7625 292.4605 311.7625Z" fill-rule="nonzero"/><path fill="#757575" d="M343.3051 308.52814L339.77386 316.45L338.63324 316.45L342.14886 308.8094L337.5395 308.8094L337.5395 307.91876L343.3051 307.91876L343.3051 308.52814Z" fill-rule="nonzero"/><path fill="#757575" d="M391.14972 310.1375Q391.14972 310.77814 390.80597 311.27814Q390.46222 311.77814 389.89972 312.0594Q390.55597 312.34064 390.9466 312.90314Q391.33722 313.45 391.33722 314.15314Q391.33722 315.2469 390.58722 315.91876Q389.85284 316.575 388.6341 316.575Q387.39972 316.575 386.64972 315.91876Q385.91534 315.2469 385.91534 314.15314Q385.91534 313.45 386.29034 312.90314Q386.66534 312.34064 387.33722 312.0594Q386.77472 311.77814 386.4466 311.27814Q386.11847 310.77814 386.11847 310.1375Q386.11847 309.0594 386.80597 308.4344Q387.49347 307.79376 388.6341 307.79376Q389.7591 307.79376 390.4466 308.4344Q391.14972 309.0594 391.14972 310.1375ZM390.2591 314.1219Q390.2591 313.40314 389.80597 312.96564Q389.35284 312.5125 388.61847 312.5125Q387.8841 312.5125 387.43097 312.96564Q386.99347 313.40314 386.99347 314.1375Q386.99347 314.85626 387.43097 315.27814Q387.86847 315.6844 388.6341 315.6844Q389.3841 315.6844 389.8216 315.2625Q390.2591 314.84064 390.2591 314.1219ZM388.6341 308.6844Q387.99347 308.6844 387.58722 309.09064Q387.1966 309.48126 387.1966 310.16876Q387.1966 310.8094 387.58722 311.21564Q387.97784 311.6219 388.61847 311.6219Q389.27472 311.6219 389.66534 311.21564Q390.05597 310.8094 390.05597 310.16876Q390.05597 309.5125 389.64972 309.10626Q389.24347 308.6844 388.6341 308.6844Z" fill-rule="nonzero"/><path fill="#757575" d="M438.2912 312.7Q437.96307 313.10626 437.4787 313.35626Q437.00995 313.59064 436.44745 313.59064Q435.71307 313.59064 435.1662 313.23126Q434.61932 312.8719 434.32245 312.21564Q434.02557 311.54376 434.02557 310.7469Q434.02557 309.90314 434.33807 309.21564Q434.6662 308.52814 435.25995 308.16876Q435.86932 307.79376 436.6662 307.79376Q437.93182 307.79376 438.65057 308.7469Q439.38495 309.7 439.38495 311.325L439.38495 311.6375Q439.38495 314.1375 438.40057 315.27814Q437.4162 316.41876 435.43182 316.45L435.21307 316.45L435.21307 315.54376L435.44745 315.54376Q436.7912 315.5125 437.50995 314.84064Q438.2287 314.16876 438.2912 312.7ZM436.61932 312.7Q437.1662 312.7 437.61932 312.3719Q438.08807 312.02814 438.30682 311.54376L438.30682 311.10626Q438.30682 310.04376 437.83807 309.3719Q437.36932 308.7 436.6662 308.7Q435.94745 308.7 435.50995 309.2469Q435.08807 309.79376 435.08807 310.7Q435.08807 311.575 435.49432 312.1375Q435.9162 312.7 436.61932 312.7Z" fill-rule="nonzero"/><path fill="#757575" d="M482.37018 316.45L481.29205 316.45L481.29205 309.23126L479.10455 310.02814L479.10455 309.04376L482.21393 307.8719L482.37018 307.8719L482.37018 316.45ZM491.16705 312.8094Q491.16705 314.71564 490.5108 315.65314Q489.87018 316.575 488.47955 316.575Q487.12018 316.575 486.46393 315.66876Q485.80768 314.7625 485.77643 312.95L485.77643 311.5125Q485.77643 309.6219 486.41705 308.71564Q487.0733 307.79376 488.46393 307.79376Q489.83893 307.79376 490.49518 308.6844Q491.15143 309.5594 491.16705 311.40314L491.16705 312.8094ZM490.0733 311.325Q490.0733 309.95 489.68268 309.325Q489.30768 308.6844 488.46393 308.6844Q487.6358 308.6844 487.24518 309.325Q486.87018 309.95 486.87018 311.2469L486.87018 312.98126Q486.87018 314.35626 487.2608 315.02814Q487.66705 315.6844 488.47955 315.6844Q489.27643 315.6844 489.66705 315.0594Q490.05768 314.4344 490.0733 313.10626L490.0733 311.325Z" fill-rule="nonzero"/><path fill="#757575" d="M530.5429 316.45L529.4648 316.45L529.4648 309.23126L527.2773 310.02814L527.2773 309.04376L530.38666 307.8719L530.5429 307.8719L530.5429 316.45ZM537.5429 316.45L536.4648 316.45L536.4648 309.23126L534.2773 310.02814L534.2773 309.04376L537.38666 307.8719L537.5429 307.8719L537.5429 316.45Z" fill-rule="nonzero"/><path fill="#757575" d="M578.71564 316.45L577.6375 316.45L577.6375 309.23126L575.45 310.02814L575.45 309.04376L578.5594 307.8719L578.71564 307.8719L578.71564 316.45ZM587.7469 316.45L582.15314 316.45L582.15314 315.66876L585.10626 312.3875Q585.7625 311.6375 586.0125 311.1844Q586.2625 310.71564 586.2625 310.21564Q586.2625 309.54376 585.85626 309.1219Q585.46564 308.6844 584.77814 308.6844Q583.98126 308.6844 583.52814 309.15314Q583.075 309.60626 583.075 310.4344L581.9969 310.4344Q581.9969 309.2469 582.7469 308.52814Q583.5125 307.79376 584.77814 307.79376Q585.98126 307.79376 586.66876 308.41876Q587.35626 309.04376 587.35626 310.09064Q587.35626 311.34064 585.7469 313.09064L583.46564 315.5594L587.7469 315.5594L587.7469 316.45Z" fill-rule="nonzero"/><path fill="#4285f4" d="M244.0 57.416668C244.0 56.864384 244.44771 56.416668 245.0 56.416668L255.0 56.416668C255.55229 56.416668 256.0 56.864384 256.0 57.416668L256.0 67.416664C256.0 67.96895 255.55229 68.416664 255.0 68.416664L245.0 68.416664C244.44771 68.416664 244.0 67.96895 244.0 67.416664Z" fill-rule="nonzero"/><path fill="#757575" d="M270.29688 66.916664L264.70312 66.916664L264.70312 66.135414L267.65625 62.854164Q268.3125 62.104164 268.5625 61.65104Q268.8125 61.18229 268.8125 60.68229Q268.8125 60.010414 268.40625 59.58854Q268.01562 59.15104 267.32812 59.15104Q266.53125 59.15104 266.07812 59.61979Q265.625 60.072914 265.625 60.90104L264.54688 60.90104Q264.54688 59.71354 265.29688 58.99479Q266.0625 58.260414 267.32812 58.260414Q268.53125 58.260414 269.21875 58.885414Q269.90625 59.510414 269.90625 60.55729Q269.90625 61.80729 268.29688 63.55729L266.01562 66.02604L270.29688 66.02604L270.29688 66.916664ZM277.0625 63.27604Q277.0625 65.18229 276.40625 66.11979Q275.76562 67.041664 274.375 67.041664Q273.01562 67.041664 272.35938 66.135414Q271.70312 65.229164 271.67188 63.416664L271.67188 61.979164Q271.67188 60.08854 272.3125 59.18229Q272.96875 58.260414 274.35938 58.260414Q275.73438 58.260414 276.39062 59.15104Q277.04688 60.02604 277.0625 61.86979L277.0625 63.27604ZM275.96875 61.791664Q275.96875 60.416664 275.57812 59.791664Q275.20312 59.15104 274.35938 59.15104Q273.53125 59.15104 273.14062 59.791664Q272.76562 60.416664 272.76562 61.71354L272.76562 63.447914Q272.76562 64.822914 273.15625 65.49479Q273.5625 66.15104 274.375 66.15104Q275.17188 66.15104 275.5625 65.52604Q275.95312 64.90104 275.96875 63.572914L275.96875 61.791664ZM284.29688 66.916664L278.70312 66.916664L278.70312 66.135414L281.65625 62.854164Q282.3125 62.104164 282.5625 61.65104Q282.8125 61.18229 282.8125 60.68229Q282.8125 60.010414 282.40625 59.58854Q282.01562 59.15104 281.32812 59.15104Q280.53125 59.15104 280.07812 59.61979Q279.625 60.072914 279.625 60.90104L278.54688 60.90104Q278.54688 59.71354 279.29688 58.99479Q280.0625 58.260414 281.32812 58.260414Q282.53125 58.260414 283.21875 58.885414Q283.90625 59.510414 283.90625 60.55729Q283.90625 61.80729 282.29688 63.55729L280.01562 66.02604L284.29688 66.02604L284.29688 66.916664ZM291.29688 66.916664L285.70312 66.916664L285.70312 66.135414L288.65625 62.854164Q289.3125 62.104164 289.5625 61.65104Q289.8125 61.18229 289.8125 60.68229Q289.8125 60.010414 289.40625 59.58854Q289.01562 59.15104 288.32812 59.15104Q287.53125 59.15104 287.07812 59.61979Q286.625 60.072914 286.625 60.90104L285.54688 60.90104Q285.54688 59.71354 286.29688 58.99479Q287.0625 58.260414 288.32812 58.260414Q289.53125 58.260414 290.21875 58.885414Q290.90625 59.510414 290.90625 60.55729Q290.90625 61.80729 289.29688 63.55729L287.01562 66.02604L291.29688 66.02604L291.29688 66.916664Z" fill-rule="nonzero"/><path fill="#db4437" d="M308.0 57.416668C308.0 56.864384 308.44772 56.416668 309.0 56.416668L319.0 56.416668C319.55228 56.416668 320.0 56.864384 320.0 57.416668L320.0 67.416664C320.0 67.96895 319.55228 68.416664 319.0 68.416664L309.0 68.416664C308.44772 68.416664 308.0 67.96895 308.0 67.416664Z" fill-rule="nonzero"/><path fill="#757575" d="M334.29688 66.916664L328.70312 66.916664L328.70312 66.135414L331.65625 62.854164Q332.3125 62.104164 332.5625 61.65104Q332.8125 61.18229 332.8125 60.68229Q332.8125 60.010414 332.40625 59.58854Q332.01562 59.15104 331.32812 59.15104Q330.53125 59.15104 330.07812 59.61979Q329.625 60.072914 329.625 60.90104L328.54688 60.90104Q328.54688 59.71354 329.29688 58.99479Q330.0625 58.260414 331.32812 58.260414Q332.53125 58.260414 333.21875 58.885414Q333.90625 59.510414 333.90625 60.55729Q333.90625 61.80729 332.29688 63.55729L330.01562 66.02604L334.29688 66.02604L334.29688 66.916664ZM341.0625 63.27604Q341.0625 65.18229 340.40625 66.11979Q339.76562 67.041664 338.375 67.041664Q337.01562 67.041664 336.35938 66.135414Q335.70312 65.229164 335.67188 63.416664L335.67188 61.979164Q335.67188 60.08854 336.3125 59.18229Q336.96875 58.260414 338.35938 58.260414Q339.73438 58.260414 340.39062 59.15104Q341.04688 60.02604 341.0625 61.86979L341.0625 63.27604ZM339.96875 61.791664Q339.96875 60.416664 339.57812 59.791664Q339.20312 59.15104 338.35938 59.15104Q337.53125 59.15104 337.14062 59.791664Q336.76562 60.416664 336.76562 61.71354L336.76562 63.447914Q336.76562 64.822914 337.15625 65.49479Q337.5625 66.15104 338.375 66.15104Q339.17188 66.15104 339.5625 65.52604Q339.95312 64.90104 339.96875 63.572914L339.96875 61.791664ZM348.29688 66.916664L342.70312 66.916664L342.70312 66.135414L345.65625 62.854164Q346.3125 62.104164 346.5625 61.65104Q346.8125 61.18229 346.8125 60.68229Q346.8125 60.010414 346.40625 59.58854Q346.01562 59.15104 345.32812 59.15104Q344.53125 59.15104 344.07812 59.61979Q343.625 60.072914 343.625 60.90104L342.54688 60.90104Q342.54688 59.71354 343.29688 58.99479Q344.0625 58.260414 345.32812 58.260414Q346.53125 58.260414 347.21875 58.885414Q347.90625 59.510414 347.90625 60.55729Q347.90625 61.80729 346.29688 63.55729L344.01562 66.02604L348.29688 66.02604L348.29688 66.916664ZM351.28125 62.11979L352.09375 62.11979Q352.875 62.104164 353.3125 61.71354Q353.75 61.322914 353.75 60.65104Q353.75 59.15104 352.25 59.15104Q351.54688 59.15104 351.125 59.55729Q350.71875 59.96354 350.71875 60.61979L349.625 60.61979Q349.625 59.604164 350.35938 58.93229Q351.10938 58.260414 352.25 58.260414Q353.45312 58.260414 354.14062 58.90104Q354.82812 59.541664 354.82812 60.68229Q354.82812 61.24479 354.46875 61.760414Q354.10938 62.27604 353.48438 62.541664Q354.1875 62.760414 354.5625 63.27604Q354.95312 63.791664 354.95312 64.541664Q354.95312 65.68229 354.20312 66.36979Q353.45312 67.041664 352.25 67.041664Q351.0625 67.041664 350.29688 66.385414Q349.54688 65.729164 349.54688 64.666664L350.64062 64.666664Q350.64062 65.33854 351.07812 65.74479Q351.51562 66.15104 352.26562 66.15104Q353.04688 66.15104 353.45312 65.74479Q353.875 65.322914 353.875 64.55729Q353.875 63.822914 353.42188 63.43229Q352.96875 63.02604 352.09375 63.010414L351.28125 63.010414L351.28125 62.11979Z" fill-rule="nonzero"/><path fill="#757575" d="M205.65625 37.55L203.78125 37.55L203.78125 23.33125L205.65625 23.33125L205.65625 37.55ZM210.07812 26.9875L210.14062 28.315624Q211.34375 26.784374 213.29688 26.784374Q216.65625 26.784374 216.67188 30.565624L216.67188 37.55L214.875 37.55L214.875 30.55Q214.85938 29.409374 214.34375 28.8625Q213.84375 28.315624 212.75 28.315624Q211.875 28.315624 211.20312 28.784374Q210.54688 29.253124 210.17188 30.01875L210.17188 37.55L208.375 37.55L208.375 26.9875L210.07812 26.9875ZM221.23438 26.9875L221.23438 38.76875Q221.23438 41.815624 218.46875 41.815624Q217.875 41.815624 217.35938 41.64375L217.35938 40.190624Q217.67188 40.26875 218.1875 40.26875Q218.79688 40.26875 219.10938 39.940624Q219.42188 39.628124 219.42188 38.815624L219.42188 26.9875L221.23438 26.9875ZM219.23438 24.175Q219.23438 23.753124 219.5 23.440624Q219.78125 23.128124 220.29688 23.128124Q220.82812 23.128124 221.09375 23.440624Q221.375 23.7375 221.375 24.175Q221.375 24.6125 221.09375 24.909374Q220.82812 25.20625 220.29688 25.20625Q219.76562 25.20625 219.5 24.909374Q219.23438 24.6125 219.23438 24.175ZM228.75 37.753124Q226.60938 37.753124 225.25 36.346874Q223.90625 34.925 223.90625 32.565624L223.90625 32.221874Q223.90625 30.659374 224.5 29.425Q225.10938 28.190624 226.1875 27.4875Q227.26562 26.784374 228.53125 26.784374Q230.59375 26.784374 231.73438 28.14375Q232.875 29.503124 232.875 32.034374L232.875 32.784374L225.71875 32.784374Q225.75 34.346874 226.625 35.315624Q227.5 36.26875 228.84375 36.26875Q229.8125 36.26875 230.46875 35.878124Q231.14062 35.4875 231.64062 34.846874L232.73438 35.70625Q231.40625 37.753124 228.75 37.753124ZM228.53125 28.26875Q227.4375 28.26875 226.6875 29.065624Q225.95312 29.8625 225.78125 31.3L231.0625 31.3L231.0625 31.159374Q230.98438 29.784374 230.3125 29.034374Q229.65625 28.26875 228.53125 28.26875ZM239.60938 36.26875Q240.57812 36.26875 241.29688 35.690624Q242.01562 35.096874 242.09375 34.221874L243.8125 34.221874Q243.75 35.128124 243.17188 35.95625Q242.60938 36.76875 241.64062 37.26875Q240.6875 37.753124 239.60938 37.753124Q237.45312 37.753124 236.17188 36.315624Q234.90625 34.8625 234.90625 32.3625L234.90625 32.065624Q234.90625 30.51875 235.46875 29.315624Q236.03125 28.1125 237.09375 27.45625Q238.15625 26.784374 239.59375 26.784374Q241.375 26.784374 242.54688 27.846874Q243.73438 28.909374 243.8125 30.6125L242.09375 30.6125Q242.01562 29.596874 241.3125 28.940624Q240.625 28.26875 239.59375 28.26875Q238.21875 28.26875 237.45312 29.26875Q236.70312 30.253124 236.70312 32.128124L236.70312 32.471874Q236.70312 34.3 237.45312 35.284374Q238.20312 36.26875 239.60938 36.26875ZM247.8125 24.425L247.8125 26.9875L249.79688 26.9875L249.79688 28.378124L247.8125 28.378124L247.8125 34.925Q247.8125 35.565624 248.07812 35.89375Q248.34375 36.20625 248.98438 36.20625Q249.29688 36.20625 249.84375 36.08125L249.84375 37.55Q249.125 37.753124 248.45312 37.753124Q247.25 37.753124 246.625 37.01875Q246.01562 36.284374 246.01562 34.925L246.01562 28.378124L244.09375 28.378124L244.09375 26.9875L246.01562 26.9875L246.01562 24.425L247.8125 24.425ZM254.32812 37.55L252.53125 37.55L252.53125 26.9875L254.32812 26.9875L254.32812 37.55ZM252.375 24.175Q252.375 23.7375 252.64062 23.440624Q252.92188 23.128124 253.4375 23.128124Q253.96875 23.128124 254.23438 23.440624Q254.51562 23.7375 254.51562 24.175Q254.51562 24.6125 254.23438 24.909374Q253.96875 25.20625 253.4375 25.20625Q252.92188 25.20625 252.64062 24.909374Q252.375 24.6125 252.375 24.175ZM256.89062 32.175Q256.89062 30.6125 257.5 29.378124Q258.10938 28.128124 259.1875 27.45625Q260.28125 26.784374 261.6875 26.784374Q263.84375 26.784374 265.17188 28.284374Q266.51562 29.76875 266.51562 32.253124L266.51562 32.378124Q266.51562 33.925 265.92188 35.159374Q265.32812 36.378124 264.21875 37.065624Q263.125 37.753124 261.70312 37.753124Q259.5625 37.753124 258.21875 36.253124Q256.89062 34.753124 256.89062 32.3L256.89062 32.175ZM258.70312 32.378124Q258.70312 34.14375 259.51562 35.20625Q260.34375 36.26875 261.70312 36.26875Q263.07812 36.26875 263.89062 35.190624Q264.70312 34.1125 264.70312 32.175Q264.70312 30.425 263.875 29.346874Q263.04688 28.26875 261.6875 28.26875Q260.34375 28.26875 259.51562 29.33125Q258.70312 30.39375 258.70312 32.378124ZM270.07812 26.9875L270.14062 28.315624Q271.34375 26.784374 273.29688 26.784374Q276.65625 26.784374 276.67188 30.565624L276.67188 37.55L274.875 37.55L274.875 30.55Q274.85938 29.409374 274.34375 28.8625Q273.84375 28.315624 272.75 28.315624Q271.875 28.315624 271.20312 28.784374Q270.54688 29.253124 270.17188 30.01875L270.17188 37.55L268.375 37.55L268.375 26.9875L270.07812 26.9875ZM290.51562 34.753124Q290.51562 34.01875 289.96875 33.6125Q289.42188 33.20625 288.04688 32.909374Q286.67188 32.6125 285.85938 32.20625Q285.0625 31.8 284.67188 31.2375Q284.29688 30.659374 284.29688 29.878124Q284.29688 28.58125 285.39062 27.690624Q286.48438 26.784374 288.20312 26.784374Q290.0 26.784374 291.10938 27.721874Q292.23438 28.64375 292.23438 30.08125L290.40625 30.08125Q290.40625 29.346874 289.78125 28.815624Q289.15625 28.26875 288.20312 28.26875Q287.20312 28.26875 286.64062 28.70625Q286.09375 29.128124 286.09375 29.83125Q286.09375 30.471874 286.60938 30.815624Q287.125 31.14375 288.48438 31.45625Q289.84375 31.753124 290.67188 32.175Q291.51562 32.58125 291.92188 33.175Q292.32812 33.76875 292.32812 34.6125Q292.32812 36.034374 291.1875 36.89375Q290.0625 37.753124 288.25 37.753124Q286.98438 37.753124 286.0 37.3Q285.03125 36.846874 284.46875 36.05Q283.92188 35.2375 283.92188 34.3L285.73438 34.3Q285.78125 35.20625 286.45312 35.7375Q287.14062 36.26875 288.25 36.26875Q289.28125 36.26875 289.89062 35.8625Q290.51562 35.440624 290.51562 34.753124ZM300.89062 36.503124Q299.84375 37.753124 297.79688 37.753124Q296.10938 37.753124 295.21875 36.76875Q294.34375 35.784374 294.32812 33.8625L294.32812 26.9875L296.14062 26.9875L296.14062 33.815624Q296.14062 36.20625 298.09375 36.20625Q300.15625 36.20625 300.84375 34.675L300.84375 26.9875L302.65625 26.9875L302.65625 37.55L300.9375 37.55L300.89062 36.503124ZM310.46875 28.596874Q310.0625 28.534374 309.59375 28.534374Q307.8125 28.534374 307.17188 30.05L307.17188 37.55L305.375 37.55L305.375 26.9875L307.125 26.9875L307.15625 28.20625Q308.04688 26.784374 309.67188 26.784374Q310.20312 26.784374 310.46875 26.925L310.46875 28.596874ZM319.32812 37.55L317.53125 37.55L317.53125 22.55L319.32812 22.55L319.32812 37.55ZM326.75 37.753124Q324.60938 37.753124 323.25 36.346874Q321.90625 34.925 321.90625 32.565624L321.90625 32.221874Q321.90625 30.659374 322.5 29.425Q323.10938 28.190624 324.1875 27.4875Q325.26562 26.784374 326.53125 26.784374Q328.59375 26.784374 329.73438 28.14375Q330.875 29.503124 330.875 32.034374L330.875 32.784374L323.71875 32.784374Q323.75 34.346874 324.625 35.315624Q325.5 36.26875 326.84375 36.26875Q327.8125 36.26875 328.46875 35.878124Q329.14062 35.4875 329.64062 34.846874L330.73438 35.70625Q329.40625 37.753124 326.75 37.753124ZM326.53125 28.26875Q325.4375 28.26875 324.6875 29.065624Q323.95312 29.8625 323.78125 31.3L329.0625 31.3L329.0625 31.159374Q328.98438 29.784374 328.3125 29.034374Q327.65625 28.26875 326.53125 28.26875ZM343.46875 28.596874Q343.0625 28.534374 342.59375 28.534374Q340.8125 28.534374 340.17188 30.05L340.17188 37.55L338.375 37.55L338.375 26.9875L340.125 26.9875L340.15625 28.20625Q341.04688 26.784374 342.67188 26.784374Q343.20312 26.784374 343.46875 26.925L343.46875 28.596874ZM349.75 37.753124Q347.60938 37.753124 346.25 36.346874Q344.90625 34.925 344.90625 32.565624L344.90625 32.221874Q344.90625 30.659374 345.5 29.425Q346.10938 28.190624 347.1875 27.4875Q348.26562 26.784374 349.53125 26.784374Q351.59375 26.784374 352.73438 28.14375Q353.875 29.503124 353.875 32.034374L353.875 32.784374L346.71875 32.784374Q346.75 34.346874 347.625 35.315624Q348.5 36.26875 349.84375 36.26875Q350.8125 36.26875 351.46875 35.878124Q352.14062 35.4875 352.64062 34.846874L353.73438 35.70625Q352.40625 37.753124 349.75 37.753124ZM349.53125 28.26875Q348.4375 28.26875 347.6875 29.065624Q346.95312 29.8625 346.78125 31.3L352.0625 31.3L352.0625 31.159374Q351.98438 29.784374 351.3125 29.034374Q350.65625 28.26875 349.53125 28.26875ZM350.42188 22.55L352.60938 22.55L349.98438 25.425L348.53125 25.425L350.42188 22.55ZM362.51562 34.753124Q362.51562 34.01875 361.96875 33.6125Q361.42188 33.20625 360.04688 32.909374Q358.67188 32.6125 357.85938 32.20625Q357.0625 31.8 356.67188 31.2375Q356.29688 30.659374 356.29688 29.878124Q356.29688 28.58125 357.39062 27.690624Q358.48438 26.784374 360.20312 26.784374Q362.0 26.784374 363.10938 27.721874Q364.23438 28.64375 364.23438 30.08125L362.40625 30.08125Q362.40625 29.346874 361.78125 28.815624Q361.15625 28.26875 360.20312 28.26875Q359.20312 28.26875 358.64062 28.70625Q358.09375 29.128124 358.09375 29.83125Q358.09375 30.471874 358.60938 30.815624Q359.125 31.14375 360.48438 31.45625Q361.84375 31.753124 362.67188 32.175Q363.51562 32.58125 363.92188 33.175Q364.32812 33.76875 364.32812 34.6125Q364.32812 36.034374 363.1875 36.89375Q362.0625 37.753124 360.25 37.753124Q358.98438 37.753124 358.0 37.3Q357.03125 36.846874 356.46875 36.05Q355.92188 35.2375 355.92188 34.3L357.73438 34.3Q357.78125 35.20625 358.45312 35.7375Q359.14062 36.26875 360.25 36.26875Q361.28125 36.26875 361.89062 35.8625Q362.51562 35.440624 362.51562 34.753124ZM370.75 37.753124Q368.60938 37.753124 367.25 36.346874Q365.90625 34.925 365.90625 32.565624L365.90625 32.221874Q365.90625 30.659374 366.5 29.425Q367.10938 28.190624 368.1875 27.4875Q369.26562 26.784374 370.53125 26.784374Q372.59375 26.784374 373.73438 28.14375Q374.875 29.503124 374.875 32.034374L374.875 32.784374L367.71875 32.784374Q367.75 34.346874 368.625 35.315624Q369.5 36.26875 370.84375 36.26875Q371.8125 36.26875 372.46875 35.878124Q373.14062 35.4875 373.64062 34.846874L374.73438 35.70625Q373.40625 37.753124 370.75 37.753124ZM370.53125 28.26875Q369.4375 28.26875 368.6875 29.065624Q367.95312 29.8625 367.78125 31.3L373.0625 31.3L373.0625 31.159374Q372.98438 29.784374 372.3125 29.034374Q371.65625 28.26875 370.53125 28.26875ZM383.89062 37.55Q383.73438 37.2375 383.64062 36.440624Q382.375 37.753124 380.625 37.753124Q379.0625 37.753124 378.0625 36.8625Q377.0625 35.971874 377.0625 34.6125Q377.0625 32.971874 378.3125 32.065624Q379.57812 31.14375 381.84375 31.14375L383.60938 31.14375L383.60938 30.315624Q383.60938 29.3625 383.03125 28.8Q382.46875 28.2375 381.375 28.2375Q380.40625 28.2375 379.75 28.7375Q379.09375 29.221874 379.09375 29.909374L377.28125 29.909374Q377.28125 29.128124 377.84375 28.39375Q378.40625 27.64375 379.35938 27.221874Q380.32812 26.784374 381.48438 26.784374Q383.3125 26.784374 384.34375 27.70625Q385.375 28.6125 385.42188 30.221874L385.42188 35.08125Q385.42188 36.534374 385.78125 37.39375L385.78125 37.55L383.89062 37.55ZM380.89062 36.175Q381.75 36.175 382.5 35.7375Q383.26562 35.3 383.60938 34.596874L383.60938 32.425L382.1875 32.425Q378.875 32.425 378.875 34.3625Q378.875 35.221874 379.4375 35.70625Q380.0 36.175 380.89062 36.175ZM394.89062 36.503124Q393.84375 37.753124 391.79688 37.753124Q390.10938 37.753124 389.21875 36.76875Q388.34375 35.784374 388.32812 33.8625L388.32812 26.9875L390.14062 26.9875L390.14062 33.815624Q390.14062 36.20625 392.09375 36.20625Q394.15625 36.20625 394.84375 34.675L394.84375 26.9875L396.65625 26.9875L396.65625 37.55L394.9375 37.55L394.89062 36.503124Z" fill-rule="nonzero"/></svg>