<svg version="1.1" viewBox="0.0 0.0 600.0 371.0" fill="none" stroke="none" stroke-linecap="square" stroke-miterlimit="10" width="600" height="371" xmlns:xlink="http://www.w3.org/1999/xlink" xmlns="http://www.w3.org/2000/svg"><path fill="#ffffff" d="M0 0L600.0 0L600.0 371.0L0 371.0L0 0Z" fill-rule="nonzero"/><path stroke="#cccccc" stroke-width="1.0" stroke-linecap="butt" d="M51.5 89.5L51.5 298.5" fill-rule="nonzero"/><path stroke="#cccccc" stroke-width="1.0" stroke-linecap="butt" d="M99.5 89.5L99.5 298.5" fill-rule="nonzero"/><path stroke="#cccccc" stroke-width="1.0" stroke-linecap="butt" d="M147.5 89.5L147.5 298.5" fill-rule="nonzero"/><path stroke="#cccccc" stroke-width="1.0" stroke-linecap="butt" d="M196.5 89.5L196.5 298.5" fill-rule="nonzero"/><path stroke="#cccccc" stroke-width="1.0" stroke-linecap="butt" d="M244.5 89.5L244.5 298.5" fill-rule="nonzero"/><path stroke="#cccccc" stroke-width="1.0" stroke-linecap="butt" d="M292.5 89.5L292.5 298.5" fill-rule="nonzero"/><path stroke="#cccccc" stroke-width="1.0" stroke-linecap="butt" d="M340.5 89.5L340.5 298.5" fill-rule="nonzero"/><path stroke="#cccccc" stroke-width="1.0" stroke-linecap="butt" d="M388.5 89.5L388.5 298.5" fill-rule="nonzero"/><path stroke="#cccccc" stroke-width="1.0" stroke-linecap="butt" d="M436.5 89.5L436.5 298.5" fill-rule="nonzero"/><path stroke="#cccccc" stroke-width="1.0" stroke-linecap="butt" d="M485.5 89.5L485.5 298.5" fill-rule="nonzero"/><path stroke="#cccccc" stroke-width="1.0" stroke-linecap="butt" d="M533.5 89.5L533.5 298.5" fill-rule="nonzero"/><path stroke="#cccccc" stroke-width="1.0" stroke-linecap="butt" d="M581.5 89.5L581.5 298.5" fill-rule="nonzero"/><path stroke="#333333" stroke-width="1.0" stroke-linecap="butt" d="M51.5 298.5L581.5 298.5" fill-rule="nonzero"/><path stroke="#cccccc" stroke-width="1.0" stroke-linecap="butt" d="M51.5 256.5L581.5 256.5" fill-rule="nonzero"/><path stroke="#cccccc" stroke-width="1.0" stroke-linecap="butt" d="M51.5 214.5L581.5 214.5" fill-rule="nonzero"/><path stroke="#cccccc" stroke-width="1.0" stroke-linecap="butt" d="M51.5 173.5L581.5 173.5" fill-rule="nonzero"/><path stroke="#cccccc" stroke-width="1.0" stroke-linecap="butt" d="M51.5 131.5L581.5 131.5" fill-rule="nonzero"/><path stroke="#cccccc" stroke-width="1.0" stroke-linecap="butt" d="M51.5 89.5L581.5 89.5" fill-rule="nonzero"/><path stroke="#e6e6e6" stroke-width="1.0" stroke-linecap="butt" d="M51.5 290.5L581.5 290.5" fill-rule="nonzero"/><path stroke="#e6e6e6" stroke-width="1.0" stroke-linecap="butt" d="M51.5 281.5L581.5 281.5" fill-rule="nonzero"/><path stroke="#e6e6e6" stroke-width="1.0" stroke-linecap="butt" d="M51.5 273.5L581.5 273.5" fill-rule="nonzero"/><path stroke="#e6e6e6" stroke-width="1.0" stroke-linecap="butt" d="M51.5 265.5L581.5 265.5" fill-rule="nonzero"/><path stroke="#e6e6e6" stroke-width="1.0" stroke-linecap="butt" d="M51.5 248.5L581.5 248.5" fill-rule="nonzero"/><path stroke="#e6e6e6" stroke-width="1.0" stroke-linecap="butt" d="M51.5 240.5L581.5 240.5" fill-rule="nonzero"/><path stroke="#e6e6e6" stroke-width="1.0" stroke-linecap="butt" d="M51.5 231.5L581.5 231.5" fill-rule="nonzero"/><path stroke="#e6e6e6" stroke-width="1.0" stroke-linecap="butt" d="M51.5 223.5L581.5 223.5" fill-rule="nonzero"/><path stroke="#e6e6e6" stroke-width="1.0" stroke-linecap="butt" d="M51.5 206.5L581.5 206.5" fill-rule="nonzero"/><path stroke="#e6e6e6" stroke-width="1.0" stroke-linecap="butt" d="M51.5 198.5L581.5 198.5" fill-rule="nonzero"/><path stroke="#e6e6e6" stroke-width="1.0" stroke-linecap="butt" d="M51.5 189.5L581.5 189.5" fill-rule="nonzero"/><path stroke="#e6e6e6" stroke-width="1.0" stroke-linecap="butt" d="M51.5 181.5L581.5 181.5" fill-rule="nonzero"/><path stroke="#e6e6e6" stroke-width="1.0" stroke-linecap="butt" d="M51.5 164.5L581.5 164.5" fill-rule="nonzero"/><path stroke="#e6e6e6" stroke-width="1.0" stroke-linecap="butt" d="M51.5 156.5L581.5 156.5" fill-rule="nonzero"/><path stroke="#e6e6e6" stroke-width="1.0" stroke-linecap="butt" d="M51.5 148.5L581.5 148.5" fill-rule="nonzero"/><path stroke="#e6e6e6" stroke-width="1.0" stroke-linecap="butt" d="M51.5 139.5L581.5 139.5" fill-rule="nonzero"/><path stroke="#e6e6e6" stroke-width="1.0" stroke-linecap="butt" d="M51.5 123.5L581.5 123.5" fill-rule="nonzero"/><path stroke="#e6e6e6" stroke-width="1.0" stroke-linecap="butt" d="M51.5 114.5L581.5 114.5" fill-rule="nonzero"/><path stroke="#e6e6e6" stroke-width="1.0" stroke-linecap="butt" d="M51.5 106.5L581.5 106.5" fill-rule="nonzero"/><path stroke="#e6e6e6" stroke-width="1.0" stroke-linecap="butt" d="M51.5 98.5L581.5 98.5" fill-rule="nonzero"/><path stroke="#000000" stroke-width="1.0" stroke-linecap="butt" d="M51.5 298.5L51.5 89.5" fill-rule="nonzero"/><clipPath id="id_0"><path d="M51.55 89.78333L581.45 89.78333L581.45 298.45L51.55 298.45L51.55 89.78333Z" clip-rule="nonzero"/></clipPath><path stroke="#4285f4" stroke-width="2.0" stroke-linecap="butt" clip-path="url(#id_0)" d="M51.55 261.22388L99.722725 203.5484L147.89546 185.60307L196.06818 175.33667L244.2409 157.2244L292.41364 139.52946L340.58636 125.492874L388.7591 143.80046L436.93182 155.50499L485.10455 203.34808L533.2773 240.27373L581.45 257.55133" fill-rule="nonzero"/><path stroke="#db4437" stroke-width="2.0" stroke-linecap="butt" clip-path="url(#id_0)" d="M51.55 262.05853L99.722725 204.38307L147.89546 188.94173L196.06818 176.17134L244.2409 164.7364L292.41364 141.1988L340.58636 128.51437L388.7591 199.20563L436.93182 157.17432L485.10455 205.01741L533.2773 241.1084L581.45 257.55133" fill-rule="nonzero"/><path fill="#000000" fill-opacity="0.0" clip-path="url(#id_0)" d="M54.55 261.22388C54.55 262.8807 53.206856 264.22388 51.55 264.22388C49.893147 264.22388 48.55 262.8807 48.55 261.22388C48.55 259.56702 49.893147 258.22388 51.55 258.22388C53.206856 258.22388 54.55 259.56702 54.55 261.22388Z" fill-rule="nonzero"/><path fill="#000000" fill-opacity="0.0" clip-path="url(#id_0)" d="M102.722725 203.5484C102.722725 205.20526 101.379585 206.5484 99.722725 206.5484C98.06587 206.5484 96.722725 205.20526 96.722725 203.5484C96.722725 201.89154 98.06587 200.5484 99.722725 200.5484C101.379585 200.5484 102.722725 201.89154 102.722725 203.5484Z" fill-rule="nonzero"/><path fill="#000000" fill-opacity="0.0" clip-path="url(#id_0)" d="M150.89546 185.60307C150.89546 187.25992 149.5523 188.60307 147.89546 188.60307C146.2386 188.60307 144.89546 187.25992 144.89546 185.60307C144.89546 183.94621 146.2386 182.60307 147.89546 182.60307C149.5523 182.60307 150.89546 183.94621 150.89546 185.60307Z" fill-rule="nonzero"/><path fill="#000000" fill-opacity="0.0" clip-path="url(#id_0)" d="M199.06818 175.33667C199.06818 176.99352 197.72504 178.33667 196.06818 178.33667C194.41133 178.33667 193.06818 176.99352 193.06818 175.33667C193.06818 173.67981 194.41133 172.33667 196.06818 172.33667C197.72504 172.33667 199.06818 173.67981 199.06818 175.33667Z" fill-rule="nonzero"/><path fill="#000000" fill-opacity="0.0" clip-path="url(#id_0)" d="M247.2409 157.2244C247.2409 158.88126 245.89777 160.2244 244.2409 160.2244C242.58406 160.2244 241.2409 158.88126 241.2409 157.2244C241.2409 155.56755 242.58406 154.2244 244.2409 154.2244C245.89777 154.2244 247.2409 155.56755 247.2409 157.2244Z" fill-rule="nonzero"/><path fill="#000000" fill-opacity="0.0" clip-path="url(#id_0)" d="M295.41364 139.52946C295.41364 141.18633 294.0705 142.52946 292.41364 142.52946C290.75677 142.52946 289.41364 141.18633 289.41364 139.52946C289.41364 137.87262 290.75677 136.52946 292.41364 136.52946C294.0705 136.52946 295.41364 137.87262 295.41364 139.52946Z" fill-rule="nonzero"/><path fill="#000000" fill-opacity="0.0" clip-path="url(#id_0)" d="M343.58636 125.492874C343.58636 127.149734 342.24323 128.49287 340.58636 128.49287C338.9295 128.49287 337.58636 127.149734 337.58636 125.492874C337.58636 123.83602 338.9295 122.492874 340.58636 122.492874C342.24323 122.492874 343.58636 123.83602 343.58636 125.492874Z" fill-rule="nonzero"/><path fill="#000000" fill-opacity="0.0" clip-path="url(#id_0)" d="M391.7591 143.80046C391.7591 145.4573 390.41595 146.80046 388.7591 146.80046C387.10223 146.80046 385.7591 145.4573 385.7591 143.80046C385.7591 142.1436 387.10223 140.80046 388.7591 140.80046C390.41595 140.80046 391.7591 142.1436 391.7591 143.80046Z" fill-rule="nonzero"/><path fill="#000000" fill-opacity="0.0" clip-path="url(#id_0)" d="M439.93182 155.50499C439.93182 157.16183 438.58868 158.50499 436.93182 158.50499C435.27496 158.50499 433.93182 157.16183 433.93182 155.50499C433.93182 153.84813 435.27496 152.50499 436.93182 152.50499C438.58868 152.50499 439.93182 153.84813 439.93182 155.50499Z" fill-rule="nonzero"/><path fill="#000000" fill-opacity="0.0" clip-path="url(#id_0)" d="M488.10455 203.34808C488.10455 205.00493 486.7614 206.34808 485.10455 206.34808C483.4477 206.34808 482.10455 205.00493 482.10455 203.34808C482.10455 201.69122 483.4477 200.34808 485.10455 200.34808C486.7614 200.34808 488.10455 201.69122 488.10455 203.34808Z" fill-rule="nonzero"/><path fill="#000000" fill-opacity="0.0" clip-path="url(#id_0)" d="M536.2773 240.27373C536.2773 241.93059 534.93414 243.27373 533.2773 243.27373C531.6204 243.27373 530.2773 241.93059 530.2773 240.27373C530.2773 238.61688 531.6204 237.27373 533.2773 237.27373C534.93414 237.27373 536.2773 238.61688 536.2773 240.27373Z" fill-rule="nonzero"/><path fill="#000000" fill-opacity="0.0" clip-path="url(#id_0)" d="M584.45 257.55133C584.45 259.2082 583.1069 260.55133 581.45 260.55133C579.79315 260.55133 578.45 259.2082 578.45 257.55133C578.45 255.89449 579.79315 254.55133 581.45 254.55133C583.1069 254.55133 584.45 255.89449 584.45 257.55133Z" fill-rule="nonzero"/><path fill="#000000" fill-opacity="0.0" clip-path="url(#id_0)" d="M54.55 262.05853C54.55 263.7154 53.206856 265.05853 51.55 265.05853C49.893147 265.05853 48.55 263.7154 48.55 262.05853C48.55 260.40167 49.893147 259.05853 51.55 259.05853C53.206856 259.05853 54.55 260.40167 54.55 262.05853Z" fill-rule="nonzero"/><path fill="#000000" fill-opacity="0.0" clip-path="url(#id_0)" d="M102.722725 204.38307C102.722725 206.03992 101.379585 207.38307 99.722725 207.38307C98.06587 207.38307 96.722725 206.03992 96.722725 204.38307C96.722725 202.72621 98.06587 201.38307 99.722725 201.38307C101.379585 201.38307 102.722725 202.72621 102.722725 204.38307Z" fill-rule="nonzero"/><path fill="#000000" fill-opacity="0.0" clip-path="url(#id_0)" d="M150.89546 188.94173C150.89546 190.59859 149.5523 191.94173 147.89546 191.94173C146.2386 191.94173 144.89546 190.59859 144.89546 188.94173C144.89546 187.28488 146.2386 185.94173 147.89546 185.94173C149.5523 185.94173 150.89546 187.28488 150.89546 188.94173Z" fill-rule="nonzero"/><path fill="#000000" fill-opacity="0.0" clip-path="url(#id_0)" d="M199.06818 176.17134C199.06818 177.82819 197.72504 179.17134 196.06818 179.17134C194.41133 179.17134 193.06818 177.82819 193.06818 176.17134C193.06818 174.51448 194.41133 173.17134 196.06818 173.17134C197.72504 173.17134 199.06818 174.51448 199.06818 176.17134Z" fill-rule="nonzero"/><path fill="#000000" fill-opacity="0.0" clip-path="url(#id_0)" d="M247.2409 164.7364C247.2409 166.39325 245.89777 167.7364 244.2409 167.7364C242.58406 167.7364 241.2409 166.39325 241.2409 164.7364C241.2409 163.07954 242.58406 161.7364 244.2409 161.7364C245.89777 161.7364 247.2409 163.07954 247.2409 164.7364Z" fill-rule="nonzero"/><path fill="#000000" fill-opacity="0.0" clip-path="url(#id_0)" d="M295.41364 141.1988C295.41364 142.85565 294.0705 144.1988 292.41364 144.1988C290.75677 144.1988 289.41364 142.85565 289.41364 141.1988C289.41364 139.54195 290.75677 138.1988 292.41364 138.1988C294.0705 138.1988 295.41364 139.54195 295.41364 141.1988Z" fill-rule="nonzero"/><path fill="#000000" fill-opacity="0.0" clip-path="url(#id_0)" d="M343.58636 128.51437C343.58636 130.17122 342.24323 131.51437 340.58636 131.51437C338.9295 131.51437 337.58636 130.17122 337.58636 128.51437C337.58636 126.85751 338.9295 125.51437 340.58636 125.51437C342.24323 125.51437 343.58636 126.85751 343.58636 128.51437Z" fill-rule="nonzero"/><path fill="#000000" fill-opacity="0.0" clip-path="url(#id_0)" d="M391.7591 199.20563C391.7591 200.86249 390.41595 202.20563 388.7591 202.20563C387.10223 202.20563 385.7591 200.86249 385.7591 199.20563C385.7591 197.54878 387.10223 196.20563 388.7591 196.20563C390.41595 196.20563 391.7591 197.54878 391.7591 199.20563Z" fill-rule="nonzero"/><path fill="#000000" fill-opacity="0.0" clip-path="url(#id_0)" d="M439.93182 157.17432C439.93182 158.83118 438.58868 160.17432 436.93182 160.17432C435.27496 160.17432 433.93182 158.83118 433.93182 157.17432C433.93182 155.51747 435.27496 154.17432 436.93182 154.17432C438.58868 154.17432 439.93182 155.51747 439.93182 157.17432Z" fill-rule="nonzero"/><path fill="#000000" fill-opacity="0.0" clip-path="url(#id_0)" d="M488.10455 205.01741C488.10455 206.67427 486.7614 208.01741 485.10455 208.01741C483.4477 208.01741 482.10455 206.67427 482.10455 205.01741C482.10455 203.36057 483.4477 202.01741 485.10455 202.01741C486.7614 202.01741 488.10455 203.36057 488.10455 205.01741Z" fill-rule="nonzero"/><path fill="#000000" fill-opacity="0.0" clip-path="url(#id_0)" d="M536.2773 241.1084C536.2773 242.76526 534.93414 244.1084 533.2773 244.1084C531.6204 244.1084 530.2773 242.76526 530.2773 241.1084C530.2773 239.45155 531.6204 238.1084 533.2773 238.1084C534.93414 238.1084 536.2773 239.45155 536.2773 241.1084Z" fill-rule="nonzero"/><path fill="#000000" fill-opacity="0.0" clip-path="url(#id_0)" d="M584.45 257.55133C584.45 259.2082 583.1069 260.55133 581.45 260.55133C579.79315 260.55133 578.45 259.2082 578.45 257.55133C578.45 255.89449 579.79315 254.55133 581.45 254.55133C583.1069 254.55133 584.45 255.89449 584.45 257.55133Z" fill-rule="nonzero"/><path stroke="#000000" stroke-width="1.0" stroke-linecap="butt" d="M48.5 290.5L54.5 290.5" fill-rule="nonzero"/><path stroke="#000000" stroke-width="1.0" stroke-linecap="butt" d="M48.5 281.5L54.5 281.5" fill-rule="nonzero"/><path stroke="#000000" stroke-width="1.0" stroke-linecap="butt" d="M48.5 273.5L54.5 273.5" fill-rule="nonzero"/><path stroke="#000000" stroke-width="1.0" stroke-linecap="butt" d="M48.5 265.5L54.5 265.5" fill-rule="nonzero"/><path stroke="#000000" stroke-width="1.0" stroke-linecap="butt" d="M48.5 248.5L54.5 248.5" fill-rule="nonzero"/><path stroke="#000000" stroke-width="1.0" stroke-linecap="butt" d="M48.5 240.5L54.5 240.5" fill-rule="nonzero"/><path stroke="#000000" stroke-width="1.0" stroke-linecap="butt" d="M48.5 231.5L54.5 231.5" fill-rule="nonzero"/><path stroke="#000000" stroke-width="1.0" stroke-linecap="butt" d="M48.5 223.5L54.5 223.5" fill-rule="nonzero"/><path stroke="#000000" stroke-width="1.0" stroke-linecap="butt" d="M48.5 206.5L54.5 206.5" fill-rule="nonzero"/><path stroke="#000000" stroke-width="1.0" stroke-linecap="butt" d="M48.5 198.5L54.5 198.5" fill-rule="nonzero"/><path stroke="#000000" stroke-width="1.0" stroke-linecap="butt" d="M48.5 189.5L54.5 189.5" fill-rule="nonzero"/><path stroke="#000000" stroke-width="1.0" stroke-linecap="butt" d="M48.5 181.5L54.5 181.5" fill-rule="nonzero"/><path stroke="#000000" stroke-width="1.0" stroke-linecap="butt" d="M48.5 164.5L54.5 164.5" fill-rule="nonzero"/><path stroke="#000000" stroke-width="1.0" stroke-linecap="butt" d="M48.5 156.5L54.5 156.5" fill-rule="nonzero"/><path stroke="#000000" stroke-width="1.0" stroke-linecap="butt" d="M48.5 148.5L54.5 148.5" fill-rule="nonzero"/><path stroke="#000000" stroke-width="1.0" stroke-linecap="butt" d="M48.5 139.5L54.5 139.5" fill-rule="nonzero"/><path stroke="#000000" stroke-width="1.0" stroke-linecap="butt" d="M48.5 123.5L54.5 123.5" fill-rule="nonzero"/><path stroke="#000000" stroke-width="1.0" stroke-linecap="butt" d="M48.5 114.5L54.5 114.5" fill-rule="nonzero"/><path stroke="#000000" stroke-width="1.0" stroke-linecap="butt" d="M48.5 106.5L54.5 106.5" fill-rule="nonzero"/><path stroke="#000000" stroke-width="1.0" stroke-linecap="butt" d="M48.5 98.5L54.5 98.5" fill-rule="nonzero"/><path stroke="#000000" stroke-width="1.0" stroke-linecap="butt" d="M45.5 298.5L57.5 298.5" fill-rule="nonzero"/><path stroke="#000000" stroke-width="1.0" stroke-linecap="butt" d="M45.5 256.5L57.5 256.5" fill-rule="nonzero"/><path stroke="#000000" stroke-width="1.0" stroke-linecap="butt" d="M45.5 214.5L57.5 214.5" fill-rule="nonzero"/><path stroke="#000000" stroke-width="1.0" stroke-linecap="butt" d="M45.5 173.5L57.5 173.5" fill-rule="nonzero"/><path stroke="#000000" stroke-width="1.0" stroke-linecap="butt" d="M45.5 131.5L57.5 131.5" fill-rule="nonzero"/><path stroke="#000000" stroke-width="1.0" stroke-linecap="butt" d="M45.5 89.5L57.5 89.5" fill-rule="nonzero"/><path fill="#424242" d="M305.9375 340.91876L308.73438 347.8719L311.51562 340.91876L312.98438 340.91876L312.98438 349.45L311.85938 349.45L311.85938 346.1219L311.96875 342.54376L309.15625 349.45L308.29688 349.45L305.5 342.5594L305.60938 346.1219L305.60938 349.45L304.48438 349.45L304.48438 340.91876L305.9375 340.91876ZM314.03125 346.21564Q314.03125 345.29376 314.39062 344.54376Q314.76562 343.79376 315.42188 343.40314Q316.07812 342.9969 316.90625 342.9969Q318.20312 342.9969 319.0 343.8875Q319.8125 344.77814 319.8125 346.27814L319.8125 346.35626Q319.8125 347.27814 319.45312 348.0125Q319.09375 348.7469 318.4375 349.16876Q317.78125 349.575 316.92188 349.575Q315.64062 349.575 314.82812 348.6844Q314.03125 347.77814 314.03125 346.29376L314.03125 346.21564ZM315.125 346.35626Q315.125 347.40314 315.60938 348.04376Q316.10938 348.6844 316.92188 348.6844Q317.75 348.6844 318.23438 348.04376Q318.71875 347.3875 318.71875 346.21564Q318.71875 345.1844 318.21875 344.54376Q317.73438 343.8875 316.90625 343.8875Q316.10938 343.8875 315.60938 344.52814Q315.125 345.15314 315.125 346.35626ZM322.5 349.45L321.42188 349.45L321.42188 343.10626L322.5 343.10626L322.5 349.45ZM321.32812 341.4344Q321.32812 341.16876 321.48438 340.98126Q321.65625 340.79376 321.96875 340.79376Q322.28125 340.79376 322.4375 340.98126Q322.60938 341.16876 322.60938 341.4344Q322.60938 341.6844 322.4375 341.8719Q322.28125 342.04376 321.96875 342.04376Q321.65625 342.04376 321.48438 341.8719Q321.32812 341.6844 321.32812 341.4344ZM328.01562 347.7625Q328.01562 347.325 327.67188 347.09064Q327.34375 346.84064 326.51562 346.66876Q325.70312 346.4969 325.21875 346.2469Q324.73438 345.9969 324.5 345.66876Q324.28125 345.325 324.28125 344.85626Q324.28125 344.075 324.9375 343.54376Q325.59375 342.9969 326.625 342.9969Q327.70312 342.9969 328.35938 343.5594Q329.03125 344.10626 329.03125 344.96564L327.95312 344.96564Q327.95312 344.52814 327.5625 344.21564Q327.1875 343.8875 326.625 343.8875Q326.03125 343.8875 325.6875 344.15314Q325.35938 344.40314 325.35938 344.8094Q325.35938 345.2 325.67188 345.40314Q325.98438 345.60626 326.79688 345.79376Q327.60938 345.96564 328.10938 346.21564Q328.60938 346.46564 328.84375 346.825Q329.09375 347.1844 329.09375 347.6844Q329.09375 348.54376 328.40625 349.0594Q327.73438 349.575 326.65625 349.575Q325.89062 349.575 325.29688 349.3094Q324.71875 349.02814 324.39062 348.54376Q324.0625 348.0594 324.0625 347.4969L325.14062 347.4969Q325.17188 348.04376 325.57812 348.3719Q325.98438 348.6844 326.65625 348.6844Q327.26562 348.6844 327.64062 348.4344Q328.01562 348.1844 328.01562 347.7625Z" fill-rule="nonzero"/><path fill="#757575" d="M38.6125 299.3094Q38.6125 301.21564 37.95625 302.15314Q37.315624 303.075 35.925 303.075Q34.565624 303.075 33.909374 302.16876Q33.253124 301.2625 33.221874 299.45L33.221874 298.0125Q33.221874 296.1219 33.8625 295.21564Q34.51875 294.29376 35.909374 294.29376Q37.284374 294.29376 37.940624 295.1844Q38.596874 296.0594 38.6125 297.90314L38.6125 299.3094ZM37.51875 297.825Q37.51875 296.45 37.128124 295.825Q36.753124 295.1844 35.909374 295.1844Q35.08125 295.1844 34.690624 295.825Q34.315624 296.45 34.315624 297.7469L34.315624 299.48126Q34.315624 300.85626 34.70625 301.52814Q35.1125 302.1844 35.925 302.1844Q36.721874 302.1844 37.1125 301.5594Q37.503124 300.9344 37.51875 299.60626L37.51875 297.825Z" fill-rule="nonzero"/><path fill="#757575" d="M26.753124 256.93542L27.190624 252.68542L31.565624 252.68542L31.565624 253.68542L28.1125 253.68542L27.846874 256.01355Q28.4875 255.63855 29.284374 255.63855Q30.440624 255.63855 31.128124 256.4198Q31.815624 257.18542 31.815624 258.49792Q31.815624 259.81042 31.096874 260.57605Q30.39375 261.34167 29.1125 261.34167Q27.9875 261.34167 27.26875 260.71667Q26.55 260.07605 26.45625 258.96667L27.471874 258.96667Q27.58125 259.70105 28.003124 260.07605Q28.425 260.45105 29.1125 260.45105Q29.8625 260.45105 30.3 259.93542Q30.7375 259.4198 30.7375 258.51355Q30.7375 257.65417 30.26875 257.13855Q29.8 256.62292 29.01875 256.62292Q28.315624 256.62292 27.909374 256.9198L27.628124 257.15417L26.753124 256.93542ZM38.6125 257.57605Q38.6125 259.4823 37.95625 260.4198Q37.315624 261.34167 35.925 261.34167Q34.565624 261.34167 33.909374 260.43542Q33.253124 259.52917 33.221874 257.71667L33.221874 256.27917Q33.221874 254.38855 33.8625 253.4823Q34.51875 252.56042 35.909374 252.56042Q37.284374 252.56042 37.940624 253.45105Q38.596874 254.32605 38.6125 256.1698L38.6125 257.57605ZM37.51875 256.09167Q37.51875 254.71667 37.128124 254.09167Q36.753124 253.45105 35.909374 253.45105Q35.08125 253.45105 34.690624 254.09167Q34.315624 254.71667 34.315624 256.01355L34.315624 257.74792Q34.315624 259.12292 34.70625 259.7948Q35.1125 260.45105 35.925 260.45105Q36.721874 260.45105 37.1125 259.82605Q37.503124 259.20105 37.51875 257.87292L37.51875 256.09167Z" fill-rule="nonzero"/><path fill="#757575" d="M22.815624 219.48334L21.7375 219.48334L21.7375 212.26459L19.55 213.06146L19.55 212.07709L22.659374 210.90521L22.815624 210.90521L22.815624 219.48334ZM31.6125 215.84271Q31.6125 217.74896 30.95625 218.68646Q30.315624 219.60834 28.925 219.60834Q27.565624 219.60834 26.909374 218.70209Q26.253124 217.79584 26.221874 215.98334L26.221874 214.54584Q26.221874 212.65521 26.8625 211.74896Q27.51875 210.82709 28.909374 210.82709Q30.284374 210.82709 30.940624 211.71771Q31.596874 212.59271 31.6125 214.43646L31.6125 215.84271ZM30.51875 214.35834Q30.51875 212.98334 30.128124 212.35834Q29.753124 211.71771 28.909374 211.71771Q28.08125 211.71771 27.690624 212.35834Q27.315624 212.98334 27.315624 214.28021L27.315624 216.01459Q27.315624 217.38959 27.70625 218.06146Q28.1125 218.71771 28.925 218.71771Q29.721874 218.71771 30.1125 218.09271Q30.503124 217.46771 30.51875 216.13959L30.51875 214.35834ZM38.6125 215.84271Q38.6125 217.74896 37.95625 218.68646Q37.315624 219.60834 35.925 219.60834Q34.565624 219.60834 33.909374 218.70209Q33.253124 217.79584 33.221874 215.98334L33.221874 214.54584Q33.221874 212.65521 33.8625 211.74896Q34.51875 210.82709 35.909374 210.82709Q37.284374 210.82709 37.940624 211.71771Q38.596874 212.59271 38.6125 214.43646L38.6125 215.84271ZM37.51875 214.35834Q37.51875 212.98334 37.128124 212.35834Q36.753124 211.71771 35.909374 211.71771Q35.08125 211.71771 34.690624 212.35834Q34.315624 212.98334 34.315624 214.28021L34.315624 216.01459Q34.315624 217.38959 34.70625 218.06146Q35.1125 218.71771 35.925 218.71771Q36.721874 218.71771 37.1125 218.09271Q37.503124 217.46771 37.51875 216.13959L37.51875 214.35834Z" fill-rule="nonzero"/><path fill="#757575" d="M22.815624 177.75L21.7375 177.75L21.7375 170.53125L19.55 171.32812L19.55 170.34375L22.659374 169.17188L22.815624 169.17188L22.815624 177.75ZM26.753124 173.46875L27.190624 169.21875L31.565624 169.21875L31.565624 170.21875L28.1125 170.21875L27.846874 172.54688Q28.4875 172.17188 29.284374 172.17188Q30.440624 172.17188 31.128124 172.95312Q31.815624 173.71875 31.815624 175.03125Q31.815624 176.34375 31.096874 177.10938Q30.39375 177.875 29.1125 177.875Q27.9875 177.875 27.26875 177.25Q26.55 176.60938 26.45625 175.5L27.471874 175.5Q27.58125 176.23438 28.003124 176.60938Q28.425 176.98438 29.1125 176.98438Q29.8625 176.98438 30.3 176.46875Q30.7375 175.95312 30.7375 175.04688Q30.7375 174.1875 30.26875 173.67188Q29.8 173.15625 29.01875 173.15625Q28.315624 173.15625 27.909374 173.45312L27.628124 173.6875L26.753124 173.46875ZM38.6125 174.10938Q38.6125 176.01562 37.95625 176.95312Q37.315624 177.875 35.925 177.875Q34.565624 177.875 33.909374 176.96875Q33.253124 176.0625 33.221874 174.25L33.221874 172.8125Q33.221874 170.92188 33.8625 170.01562Q34.51875 169.09375 35.909374 169.09375Q37.284374 169.09375 37.940624 169.98438Q38.596874 170.85938 38.6125 172.70312L38.6125 174.10938ZM37.51875 172.625Q37.51875 171.25 37.128124 170.625Q36.753124 169.98438 35.909374 169.98438Q35.08125 169.98438 34.690624 170.625Q34.315624 171.25 34.315624 172.54688L34.315624 174.28125Q34.315624 175.65625 34.70625 176.32812Q35.1125 176.98438 35.925 176.98438Q36.721874 176.98438 37.1125 176.35938Q37.503124 175.73438 37.51875 174.40625L37.51875 172.625Z" fill-rule="nonzero"/><path fill="#757575" d="M24.846874 136.01666L19.253124 136.01666L19.253124 135.23541L22.20625 131.95416Q22.8625 131.20416 23.1125 130.75104Q23.3625 130.28229 23.3625 129.78229Q23.3625 129.11041 22.95625 128.68854Q22.565624 128.25104 21.878124 128.25104Q21.08125 128.25104 20.628124 128.71979Q20.175 129.17291 20.175 130.00104L19.096874 130.00104Q19.096874 128.81354 19.846874 128.09479Q20.6125 127.36041 21.878124 127.36041Q23.08125 127.36041 23.76875 127.98541Q24.45625 128.61041 24.45625 129.65729Q24.45625 130.90729 22.846874 132.65729L20.565624 135.12604L24.846874 135.12604L24.846874 136.01666ZM31.6125 132.37604Q31.6125 134.28229 30.95625 135.21979Q30.315624 136.14166 28.925 136.14166Q27.565624 136.14166 26.909374 135.23541Q26.253124 134.32916 26.221874 132.51666L26.221874 131.07916Q26.221874 129.18854 26.8625 128.28229Q27.51875 127.36041 28.909374 127.36041Q30.284374 127.36041 30.940624 128.25104Q31.596874 129.12604 31.6125 130.96979L31.6125 132.37604ZM30.51875 130.89166Q30.51875 129.51666 30.128124 128.89166Q29.753124 128.25104 28.909374 128.25104Q28.08125 128.25104 27.690624 128.89166Q27.315624 129.51666 27.315624 130.81354L27.315624 132.54791Q27.315624 133.92291 27.70625 134.59479Q28.1125 135.25104 28.925 135.25104Q29.721874 135.25104 30.1125 134.62604Q30.503124 134.00104 30.51875 132.67291L30.51875 130.89166ZM38.6125 132.37604Q38.6125 134.28229 37.95625 135.21979Q37.315624 136.14166 35.925 136.14166Q34.565624 136.14166 33.909374 135.23541Q33.253124 134.32916 33.221874 132.51666L33.221874 131.07916Q33.221874 129.18854 33.8625 128.28229Q34.51875 127.36041 35.909374 127.36041Q37.284374 127.36041 37.940624 128.25104Q38.596874 129.12604 38.6125 130.96979L38.6125 132.37604ZM37.51875 130.89166Q37.51875 129.51666 37.128124 128.89166Q36.753124 128.25104 35.909374 128.25104Q35.08125 128.25104 34.690624 128.89166Q34.315624 129.51666 34.315624 130.81354L34.315624 132.54791Q34.315624 133.92291 34.70625 134.59479Q35.1125 135.25104 35.925 135.25104Q36.721874 135.25104 37.1125 134.62604Q37.503124 134.00104 37.51875 132.67291L37.51875 130.89166Z" fill-rule="nonzero"/><path fill="#757575" d="M24.846874 94.28333L19.253124 94.28333L19.253124 93.50208L22.20625 90.22083Q22.8625 89.47083 23.1125 89.01771Q23.3625 88.54896 23.3625 88.04896Q23.3625 87.37708 22.95625 86.95521Q22.565624 86.51771 21.878124 86.51771Q21.08125 86.51771 20.628124 86.98646Q20.175 87.43958 20.175 88.26771L19.096874 88.26771Q19.096874 87.08021 19.846874 86.36146Q20.6125 85.62708 21.878124 85.62708Q23.08125 85.62708 23.76875 86.25208Q24.45625 86.87708 24.45625 87.92396Q24.45625 89.17396 22.846874 90.92396L20.565624 93.39271L24.846874 93.39271L24.846874 94.28333ZM26.753124 90.00208L27.190624 85.75208L31.565624 85.75208L31.565624 86.75208L28.1125 86.75208L27.846874 89.08021Q28.4875 88.70521 29.284374 88.70521Q30.440624 88.70521 31.128124 89.48646Q31.815624 90.25208 31.815624 91.56458Q31.815624 92.87708 31.096874 93.64271Q30.39375 94.40833 29.1125 94.40833Q27.9875 94.40833 27.26875 93.78333Q26.55 93.14271 26.45625 92.03333L27.471874 92.03333Q27.58125 92.76771 28.003124 93.14271Q28.425 93.51771 29.1125 93.51771Q29.8625 93.51771 30.3 93.00208Q30.7375 92.48646 30.7375 91.58021Q30.7375 90.72083 30.26875 90.20521Q29.8 89.68958 29.01875 89.68958Q28.315624 89.68958 27.909374 89.98646L27.628124 90.22083L26.753124 90.00208ZM38.6125 90.64271Q38.6125 92.54896 37.95625 93.48646Q37.315624 94.40833 35.925 94.40833Q34.565624 94.40833 33.909374 93.50208Q33.253124 92.59583 33.221874 90.78333L33.221874 89.34583Q33.221874 87.45521 33.8625 86.54896Q34.51875 85.62708 35.909374 85.62708Q37.284374 85.62708 37.940624 86.51771Q38.596874 87.39271 38.6125 89.23646L38.6125 90.64271ZM37.51875 89.15833Q37.51875 87.78333 37.128124 87.15833Q36.753124 86.51771 35.909374 86.51771Q35.08125 86.51771 34.690624 87.15833Q34.315624 87.78333 34.315624 89.08021L34.315624 90.81458Q34.315624 92.18958 34.70625 92.86146Q35.1125 93.51771 35.925 93.51771Q36.721874 93.51771 37.1125 92.89271Q37.503124 92.26771 37.51875 90.93958L37.51875 89.15833Z" fill-rule="nonzero"/><path fill="#757575" d="M52.315624 316.45L51.2375 316.45L51.2375 309.23126L49.05 310.02814L49.05 309.04376L52.159374 307.8719L52.315624 307.8719L52.315624 316.45Z" fill-rule="nonzero"/><path fill="#757575" d="M102.5196 316.45L96.92585 316.45L96.92585 315.66876L99.878975 312.3875Q100.535225 311.6375 100.785225 311.1844Q101.035225 310.71564 101.035225 310.21564Q101.035225 309.54376 100.628975 309.1219Q100.23835 308.6844 99.55085 308.6844Q98.753975 308.6844 98.30085 309.15314Q97.847725 309.60626 97.847725 310.4344L96.7696 310.4344Q96.7696 309.2469 97.5196 308.52814Q98.285225 307.79376 99.55085 307.79376Q100.753975 307.79376 101.441475 308.41876Q102.128975 309.04376 102.128975 310.09064Q102.128975 311.34064 100.5196 313.09064L98.23835 315.5594L102.5196 315.5594L102.5196 316.45Z" fill-rule="nonzero"/><path fill="#757575" d="M146.67671 311.65314L147.48921 311.65314Q148.27046 311.6375 148.70796 311.2469Q149.14546 310.85626 149.14546 310.1844Q149.14546 308.6844 147.64546 308.6844Q146.94234 308.6844 146.52046 309.09064Q146.11421 309.4969 146.11421 310.15314L145.02046 310.15314Q145.02046 309.1375 145.75484 308.46564Q146.50484 307.79376 147.64546 307.79376Q148.84859 307.79376 149.53609 308.4344Q150.22359 309.075 150.22359 310.21564Q150.22359 310.77814 149.86421 311.29376Q149.50484 311.8094 148.87984 312.075Q149.58296 312.29376 149.95796 312.8094Q150.34859 313.325 150.34859 314.075Q150.34859 315.21564 149.59859 315.90314Q148.84859 316.575 147.64546 316.575Q146.45796 316.575 145.69234 315.91876Q144.94234 315.2625 144.94234 314.2L146.03609 314.2Q146.03609 314.8719 146.47359 315.27814Q146.91109 315.6844 147.66109 315.6844Q148.44234 315.6844 148.84859 315.27814Q149.27046 314.85626 149.27046 314.09064Q149.27046 313.35626 148.81734 312.96564Q148.36421 312.5594 147.48921 312.54376L146.67671 312.54376L146.67671 311.65314Z" fill-rule="nonzero"/><path fill="#757575" d="M197.84943 313.59064L199.03693 313.59064L199.03693 314.46564L197.84943 314.46564L197.84943 316.45L196.7713 316.45L196.7713 314.46564L192.88068 314.46564L192.88068 313.825L196.69318 307.91876L197.84943 307.91876L197.84943 313.59064ZM194.11505 313.59064L196.7713 313.59064L196.7713 309.40314L196.63068 309.6375L194.11505 313.59064Z" fill-rule="nonzero"/><path fill="#757575" d="M241.94403 312.16876L242.38153 307.91876L246.75653 307.91876L246.75653 308.91876L243.3034 308.91876L243.03778 311.2469Q243.6784 310.8719 244.47528 310.8719Q245.63153 310.8719 246.31903 311.65314Q247.00653 312.41876 247.00653 313.73126Q247.00653 315.04376 246.28778 315.8094Q245.58466 316.575 244.3034 316.575Q243.1784 316.575 242.45966 315.95Q241.7409 315.3094 241.64716 314.2L242.66278 314.2Q242.77216 314.9344 243.19403 315.3094Q243.6159 315.6844 244.3034 315.6844Q245.0534 315.6844 245.4909 315.16876Q245.9284 314.65314 245.9284 313.7469Q245.9284 312.8875 245.45966 312.3719Q244.9909 311.85626 244.20966 311.85626Q243.50653 311.85626 243.10028 312.15314L242.81903 312.3875L241.94403 312.16876Z" fill-rule="nonzero"/><path fill="#757575" d="M293.8824 307.91876L293.8824 308.825L293.67926 308.825Q292.41364 308.85626 291.66364 309.59064Q290.91364 310.3094 290.78864 311.6219Q291.47614 310.85626 292.6324 310.85626Q293.74176 310.85626 294.41364 311.6375Q295.0855 312.41876 295.0855 313.66876Q295.0855 314.98126 294.36676 315.77814Q293.648 316.575 292.42926 316.575Q291.2105 316.575 290.4449 315.6375Q289.6949 314.6844 289.6949 313.2L289.6949 312.79376Q289.6949 310.4344 290.6949 309.1844Q291.6949 307.9344 293.67926 307.91876L293.8824 307.91876ZM292.4605 311.7625Q291.898 311.7625 291.42926 312.09064Q290.9605 312.41876 290.773 312.9344L290.773 313.325Q290.773 314.3875 291.24176 315.02814Q291.72614 315.66876 292.42926 315.66876Q293.16364 315.66876 293.5855 315.1375Q294.0074 314.59064 294.0074 313.71564Q294.0074 312.84064 293.5855 312.3094Q293.16364 311.7625 292.4605 311.7625Z" fill-rule="nonzero"/><path fill="#757575" d="M343.3051 308.52814L339.77386 316.45L338.63324 316.45L342.14886 308.8094L337.5395 308.8094L337.5395 307.91876L343.3051 307.91876L343.3051 308.52814Z" fill-rule="nonzero"/><path fill="#757575" d="M391.14972 310.1375Q391.14972 310.77814 390.80597 311.27814Q390.46222 311.77814 389.89972 312.0594Q390.55597 312.34064 390.9466 312.90314Q391.33722 313.45 391.33722 314.15314Q391.33722 315.2469 390.58722 315.91876Q389.85284 316.575 388.6341 316.575Q387.39972 316.575 386.64972 315.91876Q385.91534 315.2469 385.91534 314.15314Q385.91534 313.45 386.29034 312.90314Q386.66534 312.34064 387.33722 312.0594Q386.77472 311.77814 386.4466 311.27814Q386.11847 310.77814 386.11847 310.1375Q386.11847 309.0594 386.80597 308.4344Q387.49347 307.79376 388.6341 307.79376Q389.7591 307.79376 390.4466 308.4344Q391.14972 309.0594 391.14972 310.1375ZM390.2591 314.1219Q390.2591 313.40314 389.80597 312.96564Q389.35284 312.5125 388.61847 312.5125Q387.8841 312.5125 387.43097 312.96564Q386.99347 313.40314 386.99347 314.1375Q386.99347 314.85626 387.43097 315.27814Q387.86847 315.6844 388.6341 315.6844Q389.3841 315.6844 389.8216 315.2625Q390.2591 314.84064 390.2591 314.1219ZM388.6341 308.6844Q387.99347 308.6844 387.58722 309.09064Q387.1966 309.48126 387.1966 310.16876Q387.1966 310.8094 387.58722 311.21564Q387.97784 311.6219 388.61847 311.6219Q389.27472 311.6219 389.66534 311.21564Q390.05597 310.8094 390.05597 310.16876Q390.05597 309.5125 389.64972 309.10626Q389.24347 308.6844 388.6341 308.6844Z" fill-rule="nonzero"/><path fill="#757575" d="M438.2912 312.7Q437.96307 313.10626 437.4787 313.35626Q437.00995 313.59064 436.44745 313.59064Q435.71307 313.59064 435.1662 313.23126Q434.61932 312.8719 434.32245 312.21564Q434.02557 311.54376 434.02557 310.7469Q434.02557 309.90314 434.33807 309.21564Q434.6662 308.52814 435.25995 308.16876Q435.86932 307.79376 436.6662 307.79376Q437.93182 307.79376 438.65057 308.7469Q439.38495 309.7 439.38495 311.325L439.38495 311.6375Q439.38495 314.1375 438.40057 315.27814Q437.4162 316.41876 435.43182 316.45L435.21307 316.45L435.21307 315.54376L435.44745 315.54376Q436.7912 315.5125 437.50995 314.84064Q438.2287 314.16876 438.2912 312.7ZM436.61932 312.7Q437.1662 312.7 437.61932 312.3719Q438.08807 312.02814 438.30682 311.54376L438.30682 311.10626Q438.30682 310.04376 437.83807 309.3719Q437.36932 308.7 436.6662 308.7Q435.94745 308.7 435.50995 309.2469Q435.08807 309.79376 435.08807 310.7Q435.08807 311.575 435.49432 312.1375Q435.9162 312.7 436.61932 312.7Z" fill-rule="nonzero"/><path fill="#757575" d="M482.37018 316.45L481.29205 316.45L481.29205 309.23126L479.10455 310.02814L479.10455 309.04376L482.21393 307.8719L482.37018 307.8719L482.37018 316.45ZM491.16705 312.8094Q491.16705 314.71564 490.5108 315.65314Q489.87018 316.575 488.47955 316.575Q487.12018 316.575 486.46393 315.66876Q485.80768 314.7625 485.77643 312.95L485.77643 311.5125Q485.77643 309.6219 486.41705 308.71564Q487.0733 307.79376 488.46393 307.79376Q489.83893 307.79376 490.49518 308.6844Q491.15143 309.5594 491.16705 311.40314L491.16705 312.8094ZM490.0733 311.325Q490.0733 309.95 489.68268 309.325Q489.30768 308.6844 488.46393 308.6844Q487.6358 308.6844 487.24518 309.325Q486.87018 309.95 486.87018 311.2469L486.87018 312.98126Q486.87018 314.35626 487.2608 315.02814Q487.66705 315.6844 488.47955 315.6844Q489.27643 315.6844 489.66705 315.0594Q490.05768 314.4344 490.0733 313.10626L490.0733 311.325Z" fill-rule="nonzero"/><path fill="#757575" d="M530.5429 316.45L529.4648 316.45L529.4648 309.23126L527.2773 310.02814L527.2773 309.04376L530.38666 307.8719L530.5429 307.8719L530.5429 316.45ZM537.5429 316.45L536.4648 316.45L536.4648 309.23126L534.2773 310.02814L534.2773 309.04376L537.38666 307.8719L537.5429 307.8719L537.5429 316.45Z" fill-rule="nonzero"/><path fill="#757575" d="M578.71564 316.45L577.6375 316.45L577.6375 309.23126L575.45 310.02814L575.45 309.04376L578.5594 307.8719L578.71564 307.8719L578.71564 316.45ZM587.7469 316.45L582.15314 316.45L582.15314 315.66876L585.10626 312.3875Q585.7625 311.6375 586.0125 311.1844Q586.2625 310.71564 586.2625 310.21564Q586.2625 309.54376 585.85626 309.1219Q585.46564 308.6844 584.77814 308.6844Q583.98126 308.6844 583.52814 309.15314Q583.075 309.60626 583.075 310.4344L581.9969 310.4344Q581.9969 309.2469 582.7469 308.52814Q583.5125 307.79376 584.77814 307.79376Q585.98126 307.79376 586.66876 308.41876Q587.35626 309.04376 587.35626 310.09064Q587.35626 311.34064 585.7469 313.09064L583.46564 315.5594L587.7469 315.5594L587.7469 316.45Z" fill-rule="nonzero"/><path stroke="#4285f4" stroke-width="4.0" stroke-linecap="butt" d="M157.5 62.416668L169.5 62.416668" fill-rule="nonzero"/><path fill="#757575" d="M183.67188 63.822914Q183.67188 65.260414 183.01562 66.15104Q182.35938 67.041664 181.21875 67.041664Q180.0625 67.041664 179.40625 66.30729L179.40625 69.354164L178.32812 69.354164L178.32812 60.572914L179.3125 60.572914L179.35938 61.27604Q180.03125 60.46354 181.20312 60.46354Q182.34375 60.46354 183.0 61.322914Q183.67188 62.18229 183.67188 63.71354L183.67188 63.822914ZM182.59375 63.697914Q182.59375 62.61979 182.125 62.010414Q181.67188 61.385414 180.875 61.385414Q179.89062 61.385414 179.40625 62.24479L179.40625 65.27604Q179.89062 66.15104 180.89062 66.15104Q181.67188 66.15104 182.125 65.541664Q182.59375 64.916664 182.59375 63.697914ZM188.39062 61.541664Q188.14062 61.510414 187.85938 61.510414Q186.78125 61.510414 186.40625 62.416664L186.40625 66.916664L185.32812 66.916664L185.32812 60.572914L186.375 60.572914L186.39062 61.30729Q186.92188 60.46354 187.90625 60.46354Q188.21875 60.46354 188.39062 60.541664L188.39062 61.541664ZM189.03125 63.68229Q189.03125 62.760414 189.39062 62.010414Q189.76562 61.260414 190.42188 60.86979Q191.07812 60.46354 191.90625 60.46354Q193.20312 60.46354 194.0 61.354164Q194.8125 62.24479 194.8125 63.74479L194.8125 63.822914Q194.8125 64.74479 194.45312 65.479164Q194.09375 66.21354 193.4375 66.635414Q192.78125 67.041664 191.92188 67.041664Q190.64062 67.041664 189.82812 66.15104Q189.03125 65.24479 189.03125 63.760414L189.03125 63.68229ZM190.125 63.822914Q190.125 64.86979 190.60938 65.510414Q191.10938 66.15104 191.92188 66.15104Q192.75 66.15104 193.23438 65.510414Q193.71875 64.854164 193.71875 63.68229Q193.71875 62.65104 193.21875 62.010414Q192.73438 61.354164 191.90625 61.354164Q191.10938 61.354164 190.60938 61.99479Q190.125 62.61979 190.125 63.822914ZM196.0625 63.697914Q196.0625 62.229164 196.75 61.354164Q197.4375 60.46354 198.5625 60.46354Q199.67188 60.46354 200.32812 61.21354L200.32812 57.916664L201.40625 57.916664L201.40625 66.916664L200.40625 66.916664L200.35938 66.229164Q199.70312 67.041664 198.54688 67.041664Q197.45312 67.041664 196.75 66.135414Q196.0625 65.229164 196.0625 63.77604L196.0625 63.697914ZM197.14062 63.822914Q197.14062 64.90104 197.57812 65.510414Q198.03125 66.11979 198.8125 66.11979Q199.84375 66.11979 200.32812 65.18229L200.32812 62.27604Q199.84375 61.385414 198.82812 61.385414Q198.03125 61.385414 197.57812 61.99479Q197.14062 62.604164 197.14062 63.822914ZM207.23438 66.291664Q206.60938 67.041664 205.375 67.041664Q204.35938 67.041664 203.82812 66.447914Q203.29688 65.854164 203.29688 64.697914L203.29688 60.572914L204.375 60.572914L204.375 64.666664Q204.375 66.11979 205.54688 66.11979Q206.79688 66.11979 207.20312 65.18229L207.20312 60.572914L208.29688 60.572914L208.29688 66.916664L207.26562 66.916664L207.23438 66.291664ZM212.85938 66.15104Q213.4375 66.15104 213.875 65.80729Q214.3125 65.447914 214.35938 64.916664L215.39062 64.916664Q215.35938 65.46354 215.0 65.96354Q214.65625 66.447914 214.07812 66.74479Q213.51562 67.041664 212.85938 67.041664Q211.5625 67.041664 210.79688 66.18229Q210.04688 65.30729 210.04688 63.80729L210.04688 63.61979Q210.04688 62.697914 210.375 61.979164Q210.71875 61.260414 211.34375 60.86979Q211.98438 60.46354 212.85938 60.46354Q213.92188 60.46354 214.625 61.104164Q215.34375 61.729164 215.39062 62.760414L214.35938 62.760414Q214.3125 62.135414 213.89062 61.74479Q213.46875 61.354164 212.85938 61.354164Q212.03125 61.354164 211.57812 61.947914Q211.125 62.541664 211.125 63.666664L211.125 63.86979Q211.125 64.96354 211.57812 65.55729Q212.03125 66.15104 212.85938 66.15104ZM217.79688 59.041664L217.79688 60.572914L218.96875 60.572914L218.96875 61.416664L217.79688 61.416664L217.79688 65.33854Q217.79688 65.729164 217.95312 65.916664Q218.10938 66.104164 218.48438 66.104164Q218.67188 66.104164 219.0 66.041664L219.0 66.916664Q218.57812 67.041664 218.17188 67.041664Q217.45312 67.041664 217.07812 66.604164Q216.70312 66.15104 216.70312 65.33854L216.70312 61.416664L215.54688 61.416664L215.54688 60.572914L216.70312 60.572914L216.70312 59.041664L217.79688 59.041664ZM221.5 66.916664L220.42188 66.916664L220.42188 60.572914L221.5 60.572914L221.5 66.916664ZM220.32812 58.90104Q220.32812 58.635414 220.48438 58.447914Q220.65625 58.260414 220.96875 58.260414Q221.28125 58.260414 221.4375 58.447914Q221.60938 58.635414 221.60938 58.90104Q221.60938 59.15104 221.4375 59.33854Q221.28125 59.510414 220.96875 59.510414Q220.65625 59.510414 220.48438 59.33854Q220.32812 59.15104 220.32812 58.90104ZM223.03125 63.68229Q223.03125 62.760414 223.39062 62.010414Q223.76562 61.260414 224.42188 60.86979Q225.07812 60.46354 225.90625 60.46354Q227.20312 60.46354 228.0 61.354164Q228.8125 62.24479 228.8125 63.74479L228.8125 63.822914Q228.8125 64.74479 228.45312 65.479164Q228.09375 66.21354 227.4375 66.635414Q226.78125 67.041664 225.92188 67.041664Q224.64062 67.041664 223.82812 66.15104Q223.03125 65.24479 223.03125 63.760414L223.03125 63.68229ZM224.125 63.822914Q224.125 64.86979 224.60938 65.510414Q225.10938 66.15104 225.92188 66.15104Q226.75 66.15104 227.23438 65.510414Q227.71875 64.854164 227.71875 63.68229Q227.71875 62.65104 227.21875 62.010414Q226.73438 61.354164 225.90625 61.354164Q225.10938 61.354164 224.60938 61.99479Q224.125 62.61979 224.125 63.822914ZM231.34375 60.572914L231.375 61.36979Q232.10938 60.46354 233.28125 60.46354Q235.29688 60.46354 235.3125 62.729164L235.3125 66.916664L234.21875 66.916664L234.21875 62.71354Q234.21875 62.041664 233.90625 61.71354Q233.60938 61.385414 232.95312 61.385414Q232.42188 61.385414 232.01562 61.666664Q231.625 61.947914 231.40625 62.40104L231.40625 66.916664L230.32812 66.916664L230.32812 60.572914L231.34375 60.572914ZM245.79688 66.916664L240.20312 66.916664L240.20312 66.135414L243.15625 62.854164Q243.8125 62.104164 244.0625 61.65104Q244.3125 61.18229 244.3125 60.68229Q244.3125 60.010414 243.90625 59.58854Q243.51562 59.15104 242.82812 59.15104Q242.03125 59.15104 241.57812 59.61979Q241.125 60.072914 241.125 60.90104L240.04688 60.90104Q240.04688 59.71354 240.79688 58.99479Q241.5625 58.260414 242.82812 58.260414Q244.03125 58.260414 244.71875 58.885414Q245.40625 59.510414 245.40625 60.55729Q245.40625 61.80729 243.79688 63.55729L241.51562 66.02604L245.79688 66.02604L245.79688 66.916664ZM252.5625 63.27604Q252.5625 65.18229 251.90625 66.11979Q251.26562 67.041664 249.875 67.041664Q248.51562 67.041664 247.85938 66.135414Q247.20312 65.229164 247.17188 63.416664L247.17188 61.979164Q247.17188 60.08854 247.8125 59.18229Q248.46875 58.260414 249.85938 58.260414Q251.23438 58.260414 251.89062 59.15104Q252.54688 60.02604 252.5625 61.86979L252.5625 63.27604ZM251.46875 61.791664Q251.46875 60.416664 251.07812 59.791664Q250.70312 59.15104 249.85938 59.15104Q249.03125 59.15104 248.64062 59.791664Q248.26562 60.416664 248.26562 61.71354L248.26562 63.447914Q248.26562 64.822914 248.65625 65.49479Q249.0625 66.15104 249.875 66.15104Q250.67188 66.15104 251.0625 65.52604Q251.45312 64.90104 251.46875 63.572914L251.46875 61.791664ZM259.79688 66.916664L254.20312 66.916664L254.20312 66.135414L257.15625 62.854164Q257.8125 62.104164 258.0625 61.65104Q258.3125 61.18229 258.3125 60.68229Q258.3125 60.010414 257.90625 59.58854Q257.51562 59.15104 256.82812 59.15104Q256.03125 59.15104 255.57812 59.61979Q255.125 60.072914 255.125 60.90104L254.04688 60.90104Q254.04688 59.71354 254.79688 58.99479Q255.5625 58.260414 256.82812 58.260414Q258.03125 58.260414 258.71875 58.885414Q259.40625 59.510414 259.40625 60.55729Q259.40625 61.80729 257.79688 63.55729L255.51562 66.02604L259.79688 66.02604L259.79688 66.916664ZM262.78125 62.11979L263.59375 62.11979Q264.375 62.104164 264.8125 61.71354Q265.25 61.322914 265.25 60.65104Q265.25 59.15104 263.75 59.15104Q263.04688 59.15104 262.625 59.55729Q262.21875 59.96354 262.21875 60.61979L261.125 60.61979Q261.125 59.604164 261.85938 58.93229Q262.60938 58.260414 263.75 58.260414Q264.95312 58.260414 265.64062 58.90104Q266.32812 59.541664 266.32812 60.68229Q266.32812 61.24479 265.96875 61.760414Q265.60938 62.27604 264.98438 62.541664Q265.6875 62.760414 266.0625 63.27604Q266.45312 63.791664 266.45312 64.541664Q266.45312 65.68229 265.70312 66.36979Q264.95312 67.041664 263.75 67.041664Q262.5625 67.041664 261.79688 66.385414Q261.04688 65.729164 261.04688 64.666664L262.14062 64.666664Q262.14062 65.33854 262.57812 65.74479Q263.01562 66.15104 263.76562 66.15104Q264.54688 66.15104 264.95312 65.74479Q265.375 65.322914 265.375 64.55729Q265.375 63.822914 264.92188 63.43229Q264.46875 63.02604 263.59375 63.010414L262.78125 63.010414L262.78125 62.11979Z" fill-rule="nonzero"/><path stroke="#db4437" stroke-width="4.0" stroke-linecap="butt" d="M283.5 62.416668L295.5 62.416668" fill-rule="nonzero"/><path fill="#757575" d="M308.23438 66.916664Q308.14062 66.729164 308.07812 66.24479Q307.32812 67.041664 306.28125 67.041664Q305.34375 67.041664 304.73438 66.510414Q304.14062 65.979164 304.14062 65.15104Q304.14062 64.166664 304.89062 63.61979Q305.64062 63.072914 307.01562 63.072914L308.0625 63.072914L308.0625 62.572914Q308.0625 62.010414 307.71875 61.68229Q307.39062 61.33854 306.71875 61.33854Q306.14062 61.33854 305.75 61.635414Q305.35938 61.916664 305.35938 62.33854L304.26562 62.33854Q304.26562 61.854164 304.59375 61.416664Q304.9375 60.979164 305.51562 60.729164Q306.09375 60.46354 306.78125 60.46354Q307.89062 60.46354 308.5 61.010414Q309.125 61.55729 309.15625 62.510414L309.15625 65.43229Q309.15625 66.30729 309.375 66.822914L309.375 66.916664L308.23438 66.916664ZM306.4375 66.08854Q306.95312 66.08854 307.40625 65.822914Q307.85938 65.55729 308.0625 65.135414L308.0625 63.83854L307.21875 63.83854Q305.21875 63.83854 305.21875 65.010414Q305.21875 65.510414 305.5625 65.80729Q305.90625 66.08854 306.4375 66.08854ZM315.23438 66.291664Q314.60938 67.041664 313.375 67.041664Q312.35938 67.041664 311.82812 66.447914Q311.29688 65.854164 311.29688 64.697914L311.29688 60.572914L312.375 60.572914L312.375 64.666664Q312.375 66.11979 313.54688 66.11979Q314.79688 66.11979 315.20312 65.18229L315.20312 60.572914L316.29688 60.572914L316.29688 66.916664L315.26562 66.916664L315.23438 66.291664ZM319.79688 59.041664L319.79688 60.572914L320.96875 60.572914L320.96875 61.416664L319.79688 61.416664L319.79688 65.33854Q319.79688 65.729164 319.95312 65.916664Q320.10938 66.104164 320.48438 66.104164Q320.67188 66.104164 321.0 66.041664L321.0 66.916664Q320.57812 67.041664 320.17188 67.041664Q319.45312 67.041664 319.07812 66.604164Q318.70312 66.15104 318.70312 65.33854L318.70312 61.416664L317.54688 61.416664L317.54688 60.572914L318.70312 60.572914L318.70312 59.041664L319.79688 59.041664ZM322.03125 63.68229Q322.03125 62.760414 322.39062 62.010414Q322.76562 61.260414 323.42188 60.86979Q324.07812 60.46354 324.90625 60.46354Q326.20312 60.46354 327.0 61.354164Q327.8125 62.24479 327.8125 63.74479L327.8125 63.822914Q327.8125 64.74479 327.45312 65.479164Q327.09375 66.21354 326.4375 66.635414Q325.78125 67.041664 324.92188 67.041664Q323.64062 67.041664 322.82812 66.15104Q322.03125 65.24479 322.03125 63.760414L322.03125 63.68229ZM323.125 63.822914Q323.125 64.86979 323.60938 65.510414Q324.10938 66.15104 324.92188 66.15104Q325.75 66.15104 326.23438 65.510414Q326.71875 64.854164 326.71875 63.68229Q326.71875 62.65104 326.21875 62.010414Q325.73438 61.354164 324.90625 61.354164Q324.10938 61.354164 323.60938 61.99479Q323.125 62.61979 323.125 63.822914ZM331.85938 66.15104Q332.4375 66.15104 332.875 65.80729Q333.3125 65.447914 333.35938 64.916664L334.39062 64.916664Q334.35938 65.46354 334.0 65.96354Q333.65625 66.447914 333.07812 66.74479Q332.51562 67.041664 331.85938 67.041664Q330.5625 67.041664 329.79688 66.18229Q329.04688 65.30729 329.04688 63.80729L329.04688 63.61979Q329.04688 62.697914 329.375 61.979164Q329.71875 61.260414 330.34375 60.86979Q330.98438 60.46354 331.85938 60.46354Q332.92188 60.46354 333.625 61.104164Q334.34375 61.729164 334.39062 62.760414L333.35938 62.760414Q333.3125 62.135414 332.89062 61.74479Q332.46875 61.354164 331.85938 61.354164Q331.03125 61.354164 330.57812 61.947914Q330.125 62.541664 330.125 63.666664L330.125 63.86979Q330.125 64.96354 330.57812 65.55729Q331.03125 66.15104 331.85938 66.15104ZM335.03125 63.68229Q335.03125 62.760414 335.39062 62.010414Q335.76562 61.260414 336.42188 60.86979Q337.07812 60.46354 337.90625 60.46354Q339.20312 60.46354 340.0 61.354164Q340.8125 62.24479 340.8125 63.74479L340.8125 63.822914Q340.8125 64.74479 340.45312 65.479164Q340.09375 66.21354 339.4375 66.635414Q338.78125 67.041664 337.92188 67.041664Q336.64062 67.041664 335.82812 66.15104Q335.03125 65.24479 335.03125 63.760414L335.03125 63.68229ZM336.125 63.822914Q336.125 64.86979 336.60938 65.510414Q337.10938 66.15104 337.92188 66.15104Q338.75 66.15104 339.23438 65.510414Q339.71875 64.854164 339.71875 63.68229Q339.71875 62.65104 339.21875 62.010414Q338.73438 61.354164 337.90625 61.354164Q337.10938 61.354164 336.60938 61.99479Q336.125 62.61979 336.125 63.822914ZM343.34375 60.572914L343.375 61.36979Q344.10938 60.46354 345.28125 60.46354Q347.29688 60.46354 347.3125 62.729164L347.3125 66.916664L346.21875 66.916664L346.21875 62.71354Q346.21875 62.041664 345.90625 61.71354Q345.60938 61.385414 344.95312 61.385414Q344.42188 61.385414 344.01562 61.666664Q343.625 61.947914 343.40625 62.40104L343.40625 66.916664L342.32812 66.916664L342.32812 60.572914L343.34375 60.572914ZM353.01562 65.229164Q353.01562 64.791664 352.67188 64.55729Q352.34375 64.30729 351.51562 64.135414Q350.70312 63.96354 350.21875 63.71354Q349.73438 63.46354 349.5 63.135414Q349.28125 62.791664 349.28125 62.322914Q349.28125 61.541664 349.9375 61.010414Q350.59375 60.46354 351.625 60.46354Q352.70312 60.46354 353.35938 61.02604Q354.03125 61.572914 354.03125 62.43229L352.95312 62.43229Q352.95312 61.99479 352.5625 61.68229Q352.1875 61.354164 351.625 61.354164Q351.03125 61.354164 350.6875 61.61979Q350.35938 61.86979 350.35938 62.27604Q350.35938 62.666664 350.67188 62.86979Q350.98438 63.072914 351.79688 63.260414Q352.60938 63.43229 353.10938 63.68229Q353.60938 63.93229 353.84375 64.291664Q354.09375 64.65104 354.09375 65.15104Q354.09375 66.010414 353.40625 66.52604Q352.73438 67.041664 351.65625 67.041664Q350.89062 67.041664 350.29688 66.77604Q349.71875 66.49479 349.39062 66.010414Q349.0625 65.52604 349.0625 64.96354L350.14062 64.96354Q350.17188 65.510414 350.57812 65.83854Q350.98438 66.15104 351.65625 66.15104Q352.26562 66.15104 352.64062 65.90104Q353.01562 65.65104 353.01562 65.229164ZM355.03125 63.68229Q355.03125 62.760414 355.39062 62.010414Q355.76562 61.260414 356.42188 60.86979Q357.07812 60.46354 357.90625 60.46354Q359.20312 60.46354 360.0 61.354164Q360.8125 62.24479 360.8125 63.74479L360.8125 63.822914Q360.8125 64.74479 360.45312 65.479164Q360.09375 66.21354 359.4375 66.635414Q358.78125 67.041664 357.92188 67.041664Q356.64062 67.041664 355.82812 66.15104Q355.03125 65.24479 355.03125 63.760414L355.03125 63.68229ZM356.125 63.822914Q356.125 64.86979 356.60938 65.510414Q357.10938 66.15104 357.92188 66.15104Q358.75 66.15104 359.23438 65.510414Q359.71875 64.854164 359.71875 63.68229Q359.71875 62.65104 359.21875 62.010414Q358.73438 61.354164 357.90625 61.354164Q357.10938 61.354164 356.60938 61.99479Q356.125 62.61979 356.125 63.822914ZM363.34375 60.572914L363.375 61.27604Q364.0625 60.46354 365.25 60.46354Q366.57812 60.46354 367.0625 61.479164Q367.375 61.02604 367.875 60.74479Q368.39062 60.46354 369.07812 60.46354Q371.17188 60.46354 371.20312 62.666664L371.20312 66.916664L370.125 66.916664L370.125 62.729164Q370.125 62.05729 369.8125 61.729164Q369.5 61.385414 368.76562 61.385414Q368.15625 61.385414 367.75 61.74479Q367.35938 62.104164 367.29688 62.71354L367.29688 66.916664L366.21875 66.916664L366.21875 62.760414Q366.21875 61.385414 364.85938 61.385414Q363.79688 61.385414 363.40625 62.291664L363.40625 66.916664L362.3125 66.916664L362.3125 60.572914L363.34375 60.572914ZM374.34375 60.572914L374.375 61.27604Q375.0625 60.46354 376.25 60.46354Q377.57812 60.46354 378.0625 61.479164Q378.375 61.02604 378.875 60.74479Q379.39062 60.46354 380.07812 60.46354Q382.17188 60.46354 382.20312 62.666664L382.20312 66.916664L381.125 66.916664L381.125 62.729164Q381.125 62.05729 380.8125 61.729164Q380.5 61.385414 379.76562 61.385414Q379.15625 61.385414 378.75 61.74479Q378.35938 62.104164 378.29688 62.71354L378.29688 66.916664L377.21875 66.916664L377.21875 62.760414Q377.21875 61.385414 375.85938 61.385414Q374.79688 61.385414 374.40625 62.291664L374.40625 66.916664L373.3125 66.916664L373.3125 60.572914L374.34375 60.572914ZM388.23438 66.916664Q388.14062 66.729164 388.07812 66.24479Q387.32812 67.041664 386.28125 67.041664Q385.34375 67.041664 384.73438 66.510414Q384.14062 65.979164 384.14062 65.15104Q384.14062 64.166664 384.89062 63.61979Q385.64062 63.072914 387.01562 63.072914L388.0625 63.072914L388.0625 62.572914Q388.0625 62.010414 387.71875 61.68229Q387.39062 61.33854 386.71875 61.33854Q386.14062 61.33854 385.75 61.635414Q385.35938 61.916664 385.35938 62.33854L384.26562 62.33854Q384.26562 61.854164 384.59375 61.416664Q384.9375 60.979164 385.51562 60.729164Q386.09375 60.46354 386.78125 60.46354Q387.89062 60.46354 388.5 61.010414Q389.125 61.55729 389.15625 62.510414L389.15625 65.43229Q389.15625 66.30729 389.375 66.822914L389.375 66.916664L388.23438 66.916664ZM386.4375 66.08854Q386.95312 66.08854 387.40625 65.822914Q387.85938 65.55729 388.0625 65.135414L388.0625 63.83854L387.21875 63.83854Q385.21875 63.83854 385.21875 65.010414Q385.21875 65.510414 385.5625 65.80729Q385.90625 66.08854 386.4375 66.08854ZM392.79688 59.041664L392.79688 60.572914L393.96875 60.572914L393.96875 61.416664L392.79688 61.416664L392.79688 65.33854Q392.79688 65.729164 392.95312 65.916664Q393.10938 66.104164 393.48438 66.104164Q393.67188 66.104164 394.0 66.041664L394.0 66.916664Q393.57812 67.041664 393.17188 67.041664Q392.45312 67.041664 392.07812 66.604164Q391.70312 66.15104 391.70312 65.33854L391.70312 61.416664L390.54688 61.416664L390.54688 60.572914L391.70312 60.572914L391.70312 59.041664L392.79688 59.041664ZM396.5 66.916664L395.42188 66.916664L395.42188 60.572914L396.5 60.572914L396.5 66.916664ZM395.32812 58.90104Q395.32812 58.635414 395.48438 58.447914Q395.65625 58.260414 395.96875 58.260414Q396.28125 58.260414 396.4375 58.447914Q396.60938 58.635414 396.60938 58.90104Q396.60938 59.15104 396.4375 59.33854Q396.28125 59.510414 395.96875 59.510414Q395.65625 59.510414 395.48438 59.33854Q395.32812 59.15104 395.32812 58.90104ZM398.03125 63.68229Q398.03125 62.760414 398.39062 62.010414Q398.76562 61.260414 399.42188 60.86979Q400.07812 60.46354 400.90625 60.46354Q402.20312 60.46354 403.0 61.354164Q403.8125 62.24479 403.8125 63.74479L403.8125 63.822914Q403.8125 64.74479 403.45312 65.479164Q403.09375 66.21354 402.4375 66.635414Q401.78125 67.041664 400.92188 67.041664Q399.64062 67.041664 398.82812 66.15104Q398.03125 65.24479 398.03125 63.760414L398.03125 63.68229ZM399.125 63.822914Q399.125 64.86979 399.60938 65.510414Q400.10938 66.15104 400.92188 66.15104Q401.75 66.15104 402.23438 65.510414Q402.71875 64.854164 402.71875 63.68229Q402.71875 62.65104 402.21875 62.010414Q401.73438 61.354164 400.90625 61.354164Q400.10938 61.354164 399.60938 61.99479Q399.125 62.61979 399.125 63.822914ZM406.34375 60.572914L406.375 61.36979Q407.10938 60.46354 408.28125 60.46354Q410.29688 60.46354 410.3125 62.729164L410.3125 66.916664L409.21875 66.916664L409.21875 62.71354Q409.21875 62.041664 408.90625 61.71354Q408.60938 61.385414 407.95312 61.385414Q407.42188 61.385414 407.01562 61.666664Q406.625 61.947914 406.40625 62.40104L406.40625 66.916664L405.32812 66.916664L405.32812 60.572914L406.34375 60.572914ZM420.79688 66.916664L415.20312 66.916664L415.20312 66.135414L418.15625 62.854164Q418.8125 62.104164 419.0625 61.65104Q419.3125 61.18229 419.3125 60.68229Q419.3125 60.010414 418.90625 59.58854Q418.51562 59.15104 417.82812 59.15104Q417.03125 59.15104 416.57812 59.61979Q416.125 60.072914 416.125 60.90104L415.04688 60.90104Q415.04688 59.71354 415.79688 58.99479Q416.5625 58.260414 417.82812 58.260414Q419.03125 58.260414 419.71875 58.885414Q420.40625 59.510414 420.40625 60.55729Q420.40625 61.80729 418.79688 63.55729L416.51562 66.02604L420.79688 66.02604L420.79688 66.916664ZM427.5625 63.27604Q427.5625 65.18229 426.90625 66.11979Q426.26562 67.041664 424.875 67.041664Q423.51562 67.041664 422.85938 66.135414Q422.20312 65.229164 422.17188 63.416664L422.17188 61.979164Q422.17188 60.08854 422.8125 59.18229Q423.46875 58.260414 424.85938 58.260414Q426.23438 58.260414 426.89062 59.15104Q427.54688 60.02604 427.5625 61.86979L427.5625 63.27604ZM426.46875 61.791664Q426.46875 60.416664 426.07812 59.791664Q425.70312 59.15104 424.85938 59.15104Q424.03125 59.15104 423.64062 59.791664Q423.26562 60.416664 423.26562 61.71354L423.26562 63.447914Q423.26562 64.822914 423.65625 65.49479Q424.0625 66.15104 424.875 66.15104Q425.67188 66.15104 426.0625 65.52604Q426.45312 64.90104 426.46875 63.572914L426.46875 61.791664ZM434.79688 66.916664L429.20312 66.916664L429.20312 66.135414L432.15625 62.854164Q432.8125 62.104164 433.0625 61.65104Q433.3125 61.18229 433.3125 60.68229Q433.3125 60.010414 432.90625 59.58854Q432.51562 59.15104 431.82812 59.15104Q431.03125 59.15104 430.57812 59.61979Q430.125 60.072914 430.125 60.90104L429.04688 60.90104Q429.04688 59.71354 429.79688 58.99479Q430.5625 58.260414 431.82812 58.260414Q433.03125 58.260414 433.71875 58.885414Q434.40625 59.510414 434.40625 60.55729Q434.40625 61.80729 432.79688 63.55729L430.51562 66.02604L434.79688 66.02604L434.79688 66.916664ZM437.78125 62.11979L438.59375 62.11979Q439.375 62.104164 439.8125 61.71354Q440.25 61.322914 440.25 60.65104Q440.25 59.15104 438.75 59.15104Q438.04688 59.15104 437.625 59.55729Q437.21875 59.96354 437.21875 60.61979L436.125 60.61979Q436.125 59.604164 436.85938 58.93229Q437.60938 58.260414 438.75 58.260414Q439.95312 58.260414 440.64062 58.90104Q441.32812 59.541664 441.32812 60.68229Q441.32812 61.24479 440.96875 61.760414Q440.60938 62.27604 439.98438 62.541664Q440.6875 62.760414 441.0625 63.27604Q441.45312 63.791664 441.45312 64.541664Q441.45312 65.68229 440.70312 66.36979Q439.95312 67.041664 438.75 67.041664Q437.5625 67.041664 436.79688 66.385414Q436.04688 65.729164 436.04688 64.666664L437.14062 64.666664Q437.14062 65.33854 437.57812 65.74479Q438.01562 66.15104 438.76562 66.15104Q439.54688 66.15104 439.95312 65.74479Q440.375 65.322914 440.375 64.55729Q440.375 63.822914 439.92188 63.43229Q439.46875 63.02604 438.59375 63.010414L437.78125 63.010414L437.78125 62.11979Z" fill-rule="nonzero"/><path fill="#757575" d="M169.60938 33.034374Q169.34375 35.3 167.9375 36.534374Q166.54688 37.753124 164.21875 37.753124Q161.70312 37.753124 160.17188 35.940624Q158.65625 34.128124 158.65625 31.096874L158.65625 29.7375Q158.65625 27.753124 159.35938 26.253124Q160.07812 24.753124 161.375 23.940624Q162.67188 23.128124 164.39062 23.128124Q166.65625 23.128124 168.01562 24.39375Q169.39062 25.659374 169.60938 27.89375L167.71875 27.89375Q167.48438 26.20625 166.65625 25.440624Q165.84375 24.675 164.39062 24.675Q162.59375 24.675 161.5625 26.003124Q160.54688 27.33125 160.54688 29.784374L160.54688 31.159374Q160.54688 33.471874 161.51562 34.846874Q162.48438 36.20625 164.21875 36.20625Q165.78125 36.20625 166.60938 35.503124Q167.45312 34.8 167.71875 33.034374L169.60938 33.034374ZM171.39062 32.175Q171.39062 30.6125 172.0 29.378124Q172.60938 28.128124 173.6875 27.45625Q174.78125 26.784374 176.1875 26.784374Q178.34375 26.784374 179.67188 28.284374Q181.01562 29.76875 181.01562 32.253124L181.01562 32.378124Q181.01562 33.925 180.42188 35.159374Q179.82812 36.378124 178.71875 37.065624Q177.625 37.753124 176.20312 37.753124Q174.0625 37.753124 172.71875 36.253124Q171.39062 34.753124 171.39062 32.3L171.39062 32.175ZM173.20312 32.378124Q173.20312 34.14375 174.01562 35.20625Q174.84375 36.26875 176.20312 36.26875Q177.57812 36.26875 178.39062 35.190624Q179.20312 34.1125 179.20312 32.175Q179.20312 30.425 178.375 29.346874Q177.54688 28.26875 176.1875 28.26875Q174.84375 28.26875 174.01562 29.33125Q173.20312 30.39375 173.20312 32.378124ZM184.57812 26.9875L184.64062 28.315624Q185.84375 26.784374 187.79688 26.784374Q191.15625 26.784374 191.17188 30.565624L191.17188 37.55L189.375 37.55L189.375 30.55Q189.35938 29.409374 188.84375 28.8625Q188.34375 28.315624 187.25 28.315624Q186.375 28.315624 185.70312 28.784374Q185.04688 29.253124 184.67188 30.01875L184.67188 37.55L182.875 37.55L182.875 26.9875L184.57812 26.9875ZM200.01562 34.753124Q200.01562 34.01875 199.46875 33.6125Q198.92188 33.20625 197.54688 32.909374Q196.17188 32.6125 195.35938 32.20625Q194.5625 31.8 194.17188 31.2375Q193.79688 30.659374 193.79688 29.878124Q193.79688 28.58125 194.89062 27.690624Q195.98438 26.784374 197.70312 26.784374Q199.5 26.784374 200.60938 27.721874Q201.73438 28.64375 201.73438 30.08125L199.90625 30.08125Q199.90625 29.346874 199.28125 28.815624Q198.65625 28.26875 197.70312 28.26875Q196.70312 28.26875 196.14062 28.70625Q195.59375 29.128124 195.59375 29.83125Q195.59375 30.471874 196.10938 30.815624Q196.625 31.14375 197.98438 31.45625Q199.34375 31.753124 200.17188 32.175Q201.01562 32.58125 201.42188 33.175Q201.82812 33.76875 201.82812 34.6125Q201.82812 36.034374 200.6875 36.89375Q199.5625 37.753124 197.75 37.753124Q196.48438 37.753124 195.5 37.3Q194.53125 36.846874 193.96875 36.05Q193.42188 35.2375 193.42188 34.3L195.23438 34.3Q195.28125 35.20625 195.95312 35.7375Q196.64062 36.26875 197.75 36.26875Q198.78125 36.26875 199.39062 35.8625Q200.01562 35.440624 200.01562 34.753124ZM203.39062 32.175Q203.39062 30.6125 204.0 29.378124Q204.60938 28.128124 205.6875 27.45625Q206.78125 26.784374 208.1875 26.784374Q210.34375 26.784374 211.67188 28.284374Q213.01562 29.76875 213.01562 32.253124L213.01562 32.378124Q213.01562 33.925 212.42188 35.159374Q211.82812 36.378124 210.71875 37.065624Q209.625 37.753124 208.20312 37.753124Q206.0625 37.753124 204.71875 36.253124Q203.39062 34.753124 203.39062 32.3L203.39062 32.175ZM205.20312 32.378124Q205.20312 34.14375 206.01562 35.20625Q206.84375 36.26875 208.20312 36.26875Q209.57812 36.26875 210.39062 35.190624Q211.20312 34.1125 211.20312 32.175Q211.20312 30.425 210.375 29.346874Q209.54688 28.26875 208.1875 28.26875Q206.84375 28.26875 206.01562 29.33125Q205.20312 30.39375 205.20312 32.378124ZM216.5625 26.9875L216.60938 28.159374Q217.78125 26.784374 219.75 26.784374Q221.96875 26.784374 222.76562 28.4875Q223.29688 27.721874 224.14062 27.253124Q224.98438 26.784374 226.14062 26.784374Q229.60938 26.784374 229.67188 30.471874L229.67188 37.55L227.85938 37.55L227.85938 30.58125Q227.85938 29.440624 227.34375 28.878124Q226.82812 28.315624 225.60938 28.315624Q224.60938 28.315624 223.9375 28.925Q223.28125 29.51875 223.17188 30.534374L223.17188 37.55L221.35938 37.55L221.35938 30.628124Q221.35938 28.315624 219.09375 28.315624Q217.3125 28.315624 216.67188 29.83125L216.67188 37.55L214.85938 37.55L214.85938 26.9875L216.5625 26.9875ZM234.5625 26.9875L234.60938 28.159374Q235.78125 26.784374 237.75 26.784374Q239.96875 26.784374 240.76562 28.4875Q241.29688 27.721874 242.14062 27.253124Q242.98438 26.784374 244.14062 26.784374Q247.60938 26.784374 247.67188 30.471874L247.67188 37.55L245.85938 37.55L245.85938 30.58125Q245.85938 29.440624 245.34375 28.878124Q244.82812 28.315624 243.60938 28.315624Q242.60938 28.315624 241.9375 28.925Q241.28125 29.51875 241.17188 30.534374L241.17188 37.55L239.35938 37.55L239.35938 30.628124Q239.35938 28.315624 237.09375 28.315624Q235.3125 28.315624 234.67188 29.83125L234.67188 37.55L232.85938 37.55L232.85938 26.9875L234.5625 26.9875ZM257.39062 37.55Q257.23438 37.2375 257.14062 36.440624Q255.875 37.753124 254.125 37.753124Q252.5625 37.753124 251.5625 36.8625Q250.5625 35.971874 250.5625 34.6125Q250.5625 32.971874 251.8125 32.065624Q253.07812 31.14375 255.34375 31.14375L257.10938 31.14375L257.10938 30.315624Q257.10938 29.3625 256.53125 28.8Q255.96875 28.2375 254.875 28.2375Q253.90625 28.2375 253.25 28.7375Q252.59375 29.221874 252.59375 29.909374L250.78125 29.909374Q250.78125 29.128124 251.34375 28.39375Q251.90625 27.64375 252.85938 27.221874Q253.82812 26.784374 254.98438 26.784374Q256.8125 26.784374 257.84375 27.70625Q258.875 28.6125 258.92188 30.221874L258.92188 35.08125Q258.92188 36.534374 259.28125 37.39375L259.28125 37.55L257.39062 37.55ZM254.39062 36.175Q255.25 36.175 256.0 35.7375Q256.76562 35.3 257.10938 34.596874L257.10938 32.425L255.6875 32.425Q252.375 32.425 252.375 34.3625Q252.375 35.221874 252.9375 35.70625Q253.5 36.175 254.39062 36.175ZM264.3125 24.425L264.3125 26.9875L266.29688 26.9875L266.29688 28.378124L264.3125 28.378124L264.3125 34.925Q264.3125 35.565624 264.57812 35.89375Q264.84375 36.20625 265.48438 36.20625Q265.79688 36.20625 266.34375 36.08125L266.34375 37.55Q265.625 37.753124 264.95312 37.753124Q263.75 37.753124 263.125 37.01875Q262.51562 36.284374 262.51562 34.925L262.51562 28.378124L260.59375 28.378124L260.59375 26.9875L262.51562 26.9875L262.51562 24.425L264.3125 24.425ZM270.82812 37.55L269.03125 37.55L269.03125 26.9875L270.82812 26.9875L270.82812 37.55ZM268.875 24.175Q268.875 23.7375 269.14062 23.440624Q269.42188 23.128124 269.9375 23.128124Q270.46875 23.128124 270.73438 23.440624Q271.01562 23.7375 271.01562 24.175Q271.01562 24.6125 270.73438 24.909374Q270.46875 25.20625 269.9375 25.20625Q269.42188 25.20625 269.14062 24.909374Q268.875 24.6125 268.875 24.175ZM273.39062 32.175Q273.39062 30.6125 274.0 29.378124Q274.60938 28.128124 275.6875 27.45625Q276.78125 26.784374 278.1875 26.784374Q280.34375 26.784374 281.67188 28.284374Q283.01562 29.76875 283.01562 32.253124L283.01562 32.378124Q283.01562 33.925 282.42188 35.159374Q281.82812 36.378124 280.71875 37.065624Q279.625 37.753124 278.20312 37.753124Q276.0625 37.753124 274.71875 36.253124Q273.39062 34.753124 273.39062 32.3L273.39062 32.175ZM275.20312 32.378124Q275.20312 34.14375 276.01562 35.20625Q276.84375 36.26875 278.20312 36.26875Q279.57812 36.26875 280.39062 35.190624Q281.20312 34.1125 281.20312 32.175Q281.20312 30.425 280.375 29.346874Q279.54688 28.26875 278.1875 28.26875Q276.84375 28.26875 276.01562 29.33125Q275.20312 30.39375 275.20312 32.378124ZM286.57812 26.9875L286.64062 28.315624Q287.84375 26.784374 289.79688 26.784374Q293.15625 26.784374 293.17188 30.565624L293.17188 37.55L291.375 37.55L291.375 30.55Q291.35938 29.409374 290.84375 28.8625Q290.34375 28.315624 289.25 28.315624Q288.375 28.315624 287.70312 28.784374Q287.04688 29.253124 286.67188 30.01875L286.67188 37.55L284.875 37.55L284.875 26.9875L286.57812 26.9875ZM300.42188 32.175Q300.42188 29.753124 301.57812 28.26875Q302.73438 26.784374 304.59375 26.784374Q306.45312 26.784374 307.53125 28.05L307.53125 22.55L309.34375 22.55L309.34375 37.55L307.6875 37.55L307.59375 36.409374Q306.51562 37.753124 304.57812 37.753124Q302.75 37.753124 301.57812 36.253124Q300.42188 34.7375 300.42188 32.315624L300.42188 32.175ZM302.23438 32.378124Q302.23438 34.175 302.96875 35.190624Q303.71875 36.20625 305.03125 36.20625Q306.75 36.20625 307.53125 34.675L307.53125 29.815624Q306.73438 28.315624 305.04688 28.315624Q303.71875 28.315624 302.96875 29.346874Q302.23438 30.378124 302.23438 32.378124ZM316.25 37.753124Q314.10938 37.753124 312.75 36.346874Q311.40625 34.925 311.40625 32.565624L311.40625 32.221874Q311.40625 30.659374 312.0 29.425Q312.60938 28.190624 313.6875 27.4875Q314.76562 26.784374 316.03125 26.784374Q318.09375 26.784374 319.23438 28.14375Q320.375 29.503124 320.375 32.034374L320.375 32.784374L313.21875 32.784374Q313.25 34.346874 314.125 35.315624Q315.0 36.26875 316.34375 36.26875Q317.3125 36.26875 317.96875 35.878124Q318.64062 35.4875 319.14062 34.846874L320.23438 35.70625Q318.90625 37.753124 316.25 37.753124ZM316.03125 28.26875Q314.9375 28.26875 314.1875 29.065624Q313.45312 29.8625 313.28125 31.3L318.5625 31.3L318.5625 31.159374Q318.48438 29.784374 317.8125 29.034374Q317.15625 28.26875 316.03125 28.26875ZM329.82812 37.55L328.03125 37.55L328.03125 22.55L329.82812 22.55L329.82812 37.55ZM339.39062 37.55Q339.23438 37.2375 339.14062 36.440624Q337.875 37.753124 336.125 37.753124Q334.5625 37.753124 333.5625 36.8625Q332.5625 35.971874 332.5625 34.6125Q332.5625 32.971874 333.8125 32.065624Q335.07812 31.14375 337.34375 31.14375L339.10938 31.14375L339.10938 30.315624Q339.10938 29.3625 338.53125 28.8Q337.96875 28.2375 336.875 28.2375Q335.90625 28.2375 335.25 28.7375Q334.59375 29.221874 334.59375 29.909374L332.78125 29.909374Q332.78125 29.128124 333.34375 28.39375Q333.90625 27.64375 334.85938 27.221874Q335.82812 26.784374 336.98438 26.784374Q338.8125 26.784374 339.84375 27.70625Q340.875 28.6125 340.92188 30.221874L340.92188 35.08125Q340.92188 36.534374 341.28125 37.39375L341.28125 37.55L339.39062 37.55ZM336.39062 36.175Q337.25 36.175 338.0 35.7375Q338.76562 35.3 339.10938 34.596874L339.10938 32.425L337.6875 32.425Q334.375 32.425 334.375 34.3625Q334.375 35.221874 334.9375 35.70625Q335.5 36.175 336.39062 36.175ZM357.79688 32.378124Q357.79688 34.8 356.6875 36.284374Q355.59375 37.753124 353.70312 37.753124Q351.78125 37.753124 350.67188 36.51875L350.67188 41.6125L348.875 41.6125L348.875 26.9875L350.51562 26.9875L350.60938 28.159374Q351.70312 26.784374 353.67188 26.784374Q355.57812 26.784374 356.6875 28.221874Q357.79688 29.659374 357.79688 32.221874L357.79688 32.378124ZM355.98438 32.175Q355.98438 30.39375 355.21875 29.3625Q354.46875 28.315624 353.14062 28.315624Q351.5 28.315624 350.67188 29.76875L350.67188 34.83125Q351.48438 36.26875 353.15625 36.26875Q354.45312 36.26875 355.21875 35.2375Q355.98438 34.20625 355.98438 32.175ZM364.96875 28.596874Q364.5625 28.534374 364.09375 28.534374Q362.3125 28.534374 361.67188 30.05L361.67188 37.55L359.875 37.55L359.875 26.9875L361.625 26.9875L361.65625 28.20625Q362.54688 26.784374 364.17188 26.784374Q364.70312 26.784374 364.96875 26.925L364.96875 28.596874ZM366.39062 32.175Q366.39062 30.6125 367.0 29.378124Q367.60938 28.128124 368.6875 27.45625Q369.78125 26.784374 371.1875 26.784374Q373.34375 26.784374 374.67188 28.284374Q376.01562 29.76875 376.01562 32.253124L376.01562 32.378124Q376.01562 33.925 375.42188 35.159374Q374.82812 36.378124 373.71875 37.065624Q372.625 37.753124 371.20312 37.753124Q369.0625 37.753124 367.71875 36.253124Q366.39062 34.753124 366.39062 32.3L366.39062 32.175ZM368.20312 32.378124Q368.20312 34.14375 369.01562 35.20625Q369.84375 36.26875 371.20312 36.26875Q372.57812 36.26875 373.39062 35.190624Q374.20312 34.1125 374.20312 32.175Q374.20312 30.425 373.375 29.346874Q372.54688 28.26875 371.1875 28.26875Q369.84375 28.26875 369.01562 29.33125Q368.20312 30.39375 368.20312 32.378124ZM377.42188 32.175Q377.42188 29.753124 378.57812 28.26875Q379.73438 26.784374 381.59375 26.784374Q383.45312 26.784374 384.53125 28.05L384.53125 22.55L386.34375 22.55L386.34375 37.55L384.6875 37.55L384.59375 36.409374Q383.51562 37.753124 381.57812 37.753124Q379.75 37.753124 378.57812 36.253124Q377.42188 34.7375 377.42188 32.315624L377.42188 32.175ZM379.23438 32.378124Q379.23438 34.175 379.96875 35.190624Q380.71875 36.20625 382.03125 36.20625Q383.75 36.20625 384.53125 34.675L384.53125 29.815624Q383.73438 28.315624 382.04688 28.315624Q380.71875 28.315624 379.96875 29.346874Q379.23438 30.378124 379.23438 32.378124ZM395.39062 36.503124Q394.34375 37.753124 392.29688 37.753124Q390.60938 37.753124 389.71875 36.76875Q388.84375 35.784374 388.82812 33.8625L388.82812 26.9875L390.64062 26.9875L390.64062 33.815624Q390.64062 36.20625 392.59375 36.20625Q394.65625 36.20625 395.34375 34.675L395.34375 26.9875L397.15625 26.9875L397.15625 37.55L395.4375 37.55L395.39062 36.503124ZM404.10938 36.26875Q405.07812 36.26875 405.79688 35.690624Q406.51562 35.096874 406.59375 34.221874L408.3125 34.221874Q408.25 35.128124 407.67188 35.95625Q407.10938 36.76875 406.14062 37.26875Q405.1875 37.753124 404.10938 37.753124Q401.95312 37.753124 400.67188 36.315624Q399.40625 34.8625 399.40625 32.3625L399.40625 32.065624Q399.40625 30.51875 399.96875 29.315624Q400.53125 28.1125 401.59375 27.45625Q402.65625 26.784374 404.09375 26.784374Q405.875 26.784374 407.04688 27.846874Q408.23438 28.909374 408.3125 30.6125L406.59375 30.6125Q406.51562 29.596874 405.8125 28.940624Q405.125 28.26875 404.09375 28.26875Q402.71875 28.26875 401.95312 29.26875Q401.20312 30.253124 401.20312 32.128124L401.20312 32.471874Q401.20312 34.3 401.95312 35.284374Q402.70312 36.26875 404.10938 36.26875ZM412.3125 24.425L412.3125 26.9875L414.29688 26.9875L414.29688 28.378124L412.3125 28.378124L412.3125 34.925Q412.3125 35.565624 412.57812 35.89375Q412.84375 36.20625 413.48438 36.20625Q413.79688 36.20625 414.34375 36.08125L414.34375 37.55Q413.625 37.753124 412.95312 37.753124Q411.75 37.753124 411.125 37.01875Q410.51562 36.284374 410.51562 34.925L410.51562 28.378124L408.59375 28.378124L408.59375 26.9875L410.51562 26.9875L410.51562 24.425L412.3125 24.425ZM418.82812 37.55L417.03125 37.55L417.03125 26.9875L418.82812 26.9875L418.82812 37.55ZM416.875 24.175Q416.875 23.7375 417.14062 23.440624Q417.42188 23.128124 417.9375 23.128124Q418.46875 23.128124 418.73438 23.440624Q419.01562 23.7375 419.01562 24.175Q419.01562 24.6125 418.73438 24.909374Q418.46875 25.20625 417.9375 25.20625Q417.42188 25.20625 417.14062 24.909374Q416.875 24.6125 416.875 24.175ZM421.39062 32.175Q421.39062 30.6125 422.0 29.378124Q422.60938 28.128124 423.6875 27.45625Q424.78125 26.784374 426.1875 26.784374Q428.34375 26.784374 429.67188 28.284374Q431.01562 29.76875 431.01562 32.253124L431.01562 32.378124Q431.01562 33.925 430.42188 35.159374Q429.82812 36.378124 428.71875 37.065624Q427.625 37.753124 426.20312 37.753124Q424.0625 37.753124 422.71875 36.253124Q421.39062 34.753124 421.39062 32.3L421.39062 32.175ZM423.20312 32.378124Q423.20312 34.14375 424.01562 35.20625Q424.84375 36.26875 426.20312 36.26875Q427.57812 36.26875 428.39062 35.190624Q429.20312 34.1125 429.20312 32.175Q429.20312 30.425 428.375 29.346874Q427.54688 28.26875 426.1875 28.26875Q424.84375 28.26875 424.01562 29.33125Q423.20312 30.39375 423.20312 32.378124ZM434.57812 26.9875L434.64062 28.315624Q435.84375 26.784374 437.79688 26.784374Q441.15625 26.784374 441.17188 30.565624L441.17188 37.55L439.375 37.55L439.375 30.55Q439.35938 29.409374 438.84375 28.8625Q438.34375 28.315624 437.25 28.315624Q436.375 28.315624 435.70312 28.784374Q435.04688 29.253124 434.67188 30.01875L434.67188 37.55L432.875 37.55L432.875 26.9875L434.57812 26.9875Z" fill-rule="nonzero"/></svg>