<svg version="1.1" viewBox="0.0 0.0 600.0 371.0" fill="none" stroke="none" stroke-linecap="square" stroke-miterlimit="10" width="600" height="371" xmlns:xlink="http://www.w3.org/1999/xlink" xmlns="http://www.w3.org/2000/svg"><path fill="#ffffff" d="M0 0L600.0 0L600.0 371.0L0 371.0L0 0Z" fill-rule="nonzero"/><path stroke="#cccccc" stroke-width="1.0" stroke-linecap="butt" d="M51.5 89.5L51.5 298.5" fill-rule="nonzero"/><path stroke="#cccccc" stroke-width="1.0" stroke-linecap="butt" d="M99.5 89.5L99.5 298.5" fill-rule="nonzero"/><path stroke="#cccccc" stroke-width="1.0" stroke-linecap="butt" d="M147.5 89.5L147.5 298.5" fill-rule="nonzero"/><path stroke="#cccccc" stroke-width="1.0" stroke-linecap="butt" d="M196.5 89.5L196.5 298.5" fill-rule="nonzero"/><path stroke="#cccccc" stroke-width="1.0" stroke-linecap="butt" d="M244.5 89.5L244.5 298.5" fill-rule="nonzero"/><path stroke="#cccccc" stroke-width="1.0" stroke-linecap="butt" d="M292.5 89.5L292.5 298.5" fill-rule="nonzero"/><path stroke="#cccccc" stroke-width="1.0" stroke-linecap="butt" d="M340.5 89.5L340.5 298.5" fill-rule="nonzero"/><path stroke="#cccccc" stroke-width="1.0" stroke-linecap="butt" d="M388.5 89.5L388.5 298.5" fill-rule="nonzero"/><path stroke="#cccccc" stroke-width="1.0" stroke-linecap="butt" d="M436.5 89.5L436.5 298.5" fill-rule="nonzero"/><path stroke="#cccccc" stroke-width="1.0" stroke-linecap="butt" d="M485.5 89.5L485.5 298.5" fill-rule="nonzero"/><path stroke="#cccccc" stroke-width="1.0" stroke-linecap="butt" d="M533.5 89.5L533.5 298.5" fill-rule="nonzero"/><path stroke="#cccccc" stroke-width="1.0" stroke-linecap="butt" d="M581.5 89.5L581.5 298.5" fill-rule="nonzero"/><path stroke="#333333" stroke-width="1.0" stroke-linecap="butt" d="M51.5 298.5L581.5 298.5" fill-rule="nonzero"/><path stroke="#cccccc" stroke-width="1.0" stroke-linecap="butt" d="M51.5 256.5L581.5 256.5" fill-rule="nonzero"/><path stroke="#cccccc" stroke-width="1.0" stroke-linecap="butt" d="M51.5 214.5L581.5 214.5" fill-rule="nonzero"/><path stroke="#cccccc" stroke-width="1.0" stroke-linecap="butt" d="M51.5 173.5L581.5 173.5" fill-rule="nonzero"/><path stroke="#cccccc" stroke-width="1.0" stroke-linecap="butt" d="M51.5 131.5L581.5 131.5" fill-rule="nonzero"/><path stroke="#cccccc" stroke-width="1.0" stroke-linecap="butt" d="M51.5 89.5L581.5 89.5" fill-rule="nonzero"/><path stroke="#e6e6e6" stroke-width="1.0" stroke-linecap="butt" d="M51.5 290.5L581.5 290.5" fill-rule="nonzero"/><path stroke="#e6e6e6" stroke-width="1.0" stroke-linecap="butt" d="M51.5 281.5L581.5 281.5" fill-rule="nonzero"/><path stroke="#e6e6e6" stroke-width="1.0" stroke-linecap="butt" d="M51.5 273.5L581.5 273.5" fill-rule="nonzero"/><path stroke="#e6e6e6" stroke-width="1.0" stroke-linecap="butt" d="M51.5 265.5L581.5 265.5" fill-rule="nonzero"/><path stroke="#e6e6e6" stroke-width="1.0" stroke-linecap="butt" d="M51.5 248.5L581.5 248.5" fill-rule="nonzero"/><path stroke="#e6e6e6" stroke-width="1.0" stroke-linecap="butt" d="M51.5 240.5L581.5 240.5" fill-rule="nonzero"/><path stroke="#e6e6e6" stroke-width="1.0" stroke-linecap="butt" d="M51.5 231.5L581.5 231.5" fill-rule="nonzero"/><path stroke="#e6e6e6" stroke-width="1.0" stroke-linecap="butt" d="M51.5 223.5L581.5 223.5" fill-rule="nonzero"/><path stroke="#e6e6e6" stroke-width="1.0" stroke-linecap="butt" d="M51.5 206.5L581.5 206.5" fill-rule="nonzero"/><path stroke="#e6e6e6" stroke-width="1.0" stroke-linecap="butt" d="M51.5 198.5L581.5 198.5" fill-rule="nonzero"/><path stroke="#e6e6e6" stroke-width="1.0" stroke-linecap="butt" d="M51.5 189.5L581.5 189.5" fill-rule="nonzero"/><path stroke="#e6e6e6" stroke-width="1.0" stroke-linecap="butt" d="M51.5 181.5L581.5 181.5" fill-rule="nonzero"/><path stroke="#e6e6e6" stroke-width="1.0" stroke-linecap="butt" d="M51.5 164.5L581.5 164.5" fill-rule="nonzero"/><path stroke="#e6e6e6" stroke-width="1.0" stroke-linecap="butt" d="M51.5 156.5L581.5 156.5" fill-rule="nonzero"/><path stroke="#e6e6e6" stroke-width="1.0" stroke-linecap="butt" d="M51.5 148.5L581.5 148.5" fill-rule="nonzero"/><path stroke="#e6e6e6" stroke-width="1.0" stroke-linecap="butt" d="M51.5 139.5L581.5 139.5" fill-rule="nonzero"/><path stroke="#e6e6e6" stroke-width="1.0" stroke-linecap="butt" d="M51.5 123.5L581.5 123.5" fill-rule="nonzero"/><path stroke="#e6e6e6" stroke-width="1.0" stroke-linecap="butt" d="M51.5 114.5L581.5 114.5" fill-rule="nonzero"/><path stroke="#e6e6e6" stroke-width="1.0" stroke-linecap="butt" d="M51.5 106.5L581.5 106.5" fill-rule="nonzero"/><path stroke="#e6e6e6" stroke-width="1.0" stroke-linecap="butt" d="M51.5 98.5L581.5 98.5" fill-rule="nonzero"/><path stroke="#000000" stroke-width="1.0" stroke-linecap="butt" d="M51.5 298.5L51.5 89.5" fill-rule="nonzero"/><clipPath id="id_0"><path d="M51.55 89.78333L581.45 89.78333L581.45 298.45L51.55 298.45L51.55 89.78333Z" clip-rule="nonzero"/></clipPath><path stroke="#4285f4" stroke-width="2.0" stroke-linecap="butt" clip-path="url(#id_0)" d="M51.55 298.45L99.722725 298.45L147.89546 284.01025L196.06818 164.40253L244.2409 122.836136L292.41364 127.9276L340.58636 110.31613L388.7591 137.60973L436.93182 172.4988L485.10455 207.22093L533.2773 246.19986L581.45 268.1516" fill-rule="nonzero"/><path stroke="#db4437" stroke-width="2.0" stroke-linecap="butt" clip-path="url(#id_0)" d="M51.55 261.22388L99.722725 203.5484L147.89546 185.60307L196.06818 175.33667L244.2409 157.2244L292.41364 139.52946L340.58636 125.492874L388.7591 143.80046L436.93182 155.50499L485.10455 203.34808L533.2773 240.27373L581.45 257.55133" fill-rule="nonzero"/><path fill="#000000" fill-opacity="0.0" clip-path="url(#id_0)" d="M54.55 298.45C54.55 300.10684 53.206856 301.45 51.55 301.45C49.893147 301.45 48.55 300.10684 48.55 298.45C48.55 296.79315 49.893147 295.45 51.55 295.45C53.206856 295.45 54.55 296.79315 54.55 298.45Z" fill-rule="nonzero"/><path fill="#000000" fill-opacity="0.0" clip-path="url(#id_0)" d="M102.722725 298.45C102.722725 300.10684 101.379585 301.45 99.722725 301.45C98.06587 301.45 96.722725 300.10684 96.722725 298.45C96.722725 296.79315 98.06587 295.45 99.722725 295.45C101.379585 295.45 102.722725 296.79315 102.722725 298.45Z" fill-rule="nonzero"/><path fill="#000000" fill-opacity="0.0" clip-path="url(#id_0)" d="M150.89546 284.01025C150.89546 285.6671 149.5523 287.01025 147.89546 287.01025C146.2386 287.01025 144.89546 285.6671 144.89546 284.01025C144.89546 282.35342 146.2386 281.01025 147.89546 281.01025C149.5523 281.01025 150.89546 282.35342 150.89546 284.01025Z" fill-rule="nonzero"/><path fill="#000000" fill-opacity="0.0" clip-path="url(#id_0)" d="M199.06818 164.40253C199.06818 166.05939 197.72504 167.40253 196.06818 167.40253C194.41133 167.40253 193.06818 166.05939 193.06818 164.40253C193.06818 162.74568 194.41133 161.40253 196.06818 161.40253C197.72504 161.40253 199.06818 162.74568 199.06818 164.40253Z" fill-rule="nonzero"/><path fill="#000000" fill-opacity="0.0" clip-path="url(#id_0)" d="M247.2409 122.836136C247.2409 124.49299 245.89777 125.836136 244.2409 125.836136C242.58406 125.836136 241.2409 124.49299 241.2409 122.836136C241.2409 121.179276 242.58406 119.836136 244.2409 119.836136C245.89777 119.836136 247.2409 121.179276 247.2409 122.836136Z" fill-rule="nonzero"/><path fill="#000000" fill-opacity="0.0" clip-path="url(#id_0)" d="M295.41364 127.9276C295.41364 129.58446 294.0705 130.9276 292.41364 130.9276C290.75677 130.9276 289.41364 129.58446 289.41364 127.9276C289.41364 126.270744 290.75677 124.9276 292.41364 124.9276C294.0705 124.9276 295.41364 126.270744 295.41364 127.9276Z" fill-rule="nonzero"/><path fill="#000000" fill-opacity="0.0" clip-path="url(#id_0)" d="M343.58636 110.31613C343.58636 111.972984 342.24323 113.31613 340.58636 113.31613C338.9295 113.31613 337.58636 111.972984 337.58636 110.31613C337.58636 108.65928 338.9295 107.31613 340.58636 107.31613C342.24323 107.31613 343.58636 108.65928 343.58636 110.31613Z" fill-rule="nonzero"/><path fill="#000000" fill-opacity="0.0" clip-path="url(#id_0)" d="M391.7591 137.60973C391.7591 139.26659 390.41595 140.60973 388.7591 140.60973C387.10223 140.60973 385.7591 139.26659 385.7591 137.60973C385.7591 135.95288 387.10223 134.60973 388.7591 134.60973C390.41595 134.60973 391.7591 135.95288 391.7591 137.60973Z" fill-rule="nonzero"/><path fill="#000000" fill-opacity="0.0" clip-path="url(#id_0)" d="M439.93182 172.4988C439.93182 174.15565 438.58868 175.4988 436.93182 175.4988C435.27496 175.4988 433.93182 174.15565 433.93182 172.4988C433.93182 170.84195 435.27496 169.4988 436.93182 169.4988C438.58868 169.4988 439.93182 170.84195 439.93182 172.4988Z" fill-rule="nonzero"/><path fill="#000000" fill-opacity="0.0" clip-path="url(#id_0)" d="M488.10455 207.22093C488.10455 208.87779 486.7614 210.22093 485.10455 210.22093C483.4477 210.22093 482.10455 208.87779 482.10455 207.22093C482.10455 205.56407 483.4477 204.22093 485.10455 204.22093C486.7614 204.22093 488.10455 205.56407 488.10455 207.22093Z" fill-rule="nonzero"/><path fill="#000000" fill-opacity="0.0" clip-path="url(#id_0)" d="M536.2773 246.19986C536.2773 247.85672 534.93414 249.19986 533.2773 249.19986C531.6204 249.19986 530.2773 247.85672 530.2773 246.19986C530.2773 244.54301 531.6204 243.19986 533.2773 243.19986C534.93414 243.19986 536.2773 244.54301 536.2773 246.19986Z" fill-rule="nonzero"/><path fill="#000000" fill-opacity="0.0" clip-path="url(#id_0)" d="M584.45 268.1516C584.45 269.80844 583.1069 271.1516 581.45 271.1516C579.79315 271.1516 578.45 269.80844 578.45 268.1516C578.45 266.49475 579.79315 265.1516 581.45 265.1516C583.1069 265.1516 584.45 266.49475 584.45 268.1516Z" fill-rule="nonzero"/><path fill="#000000" fill-opacity="0.0" clip-path="url(#id_0)" d="M54.55 261.22388C54.55 262.8807 53.206856 264.22388 51.55 264.22388C49.893147 264.22388 48.55 262.8807 48.55 261.22388C48.55 259.56702 49.893147 258.22388 51.55 258.22388C53.206856 258.22388 54.55 259.56702 54.55 261.22388Z" fill-rule="nonzero"/><path fill="#000000" fill-opacity="0.0" clip-path="url(#id_0)" d="M102.722725 203.5484C102.722725 205.20526 101.379585 206.5484 99.722725 206.5484C98.06587 206.5484 96.722725 205.20526 96.722725 203.5484C96.722725 201.89154 98.06587 200.5484 99.722725 200.5484C101.379585 200.5484 102.722725 201.89154 102.722725 203.5484Z" fill-rule="nonzero"/><path fill="#000000" fill-opacity="0.0" clip-path="url(#id_0)" d="M150.89546 185.60307C150.89546 187.25992 149.5523 188.60307 147.89546 188.60307C146.2386 188.60307 144.89546 187.25992 144.89546 185.60307C144.89546 183.94621 146.2386 182.60307 147.89546 182.60307C149.5523 182.60307 150.89546 183.94621 150.89546 185.60307Z" fill-rule="nonzero"/><path fill="#000000" fill-opacity="0.0" clip-path="url(#id_0)" d="M199.06818 175.33667C199.06818 176.99352 197.72504 178.33667 196.06818 178.33667C194.41133 178.33667 193.06818 176.99352 193.06818 175.33667C193.06818 173.67981 194.41133 172.33667 196.06818 172.33667C197.72504 172.33667 199.06818 173.67981 199.06818 175.33667Z" fill-rule="nonzero"/><path fill="#000000" fill-opacity="0.0" clip-path="url(#id_0)" d="M247.2409 157.2244C247.2409 158.88126 245.89777 160.2244 244.2409 160.2244C242.58406 160.2244 241.2409 158.88126 241.2409 157.2244C241.2409 155.56755 242.58406 154.2244 244.2409 154.2244C245.89777 154.2244 247.2409 155.56755 247.2409 157.2244Z" fill-rule="nonzero"/><path fill="#000000" fill-opacity="0.0" clip-path="url(#id_0)" d="M295.41364 139.52946C295.41364 141.18633 294.0705 142.52946 292.41364 142.52946C290.75677 142.52946 289.41364 141.18633 289.41364 139.52946C289.41364 137.87262 290.75677 136.52946 292.41364 136.52946C294.0705 136.52946 295.41364 137.87262 295.41364 139.52946Z" fill-rule="nonzero"/><path fill="#000000" fill-opacity="0.0" clip-path="url(#id_0)" d="M343.58636 125.492874C343.58636 127.149734 342.24323 128.49287 340.58636 128.49287C338.9295 128.49287 337.58636 127.149734 337.58636 125.492874C337.58636 123.83602 338.9295 122.492874 340.58636 122.492874C342.24323 122.492874 343.58636 123.83602 343.58636 125.492874Z" fill-rule="nonzero"/><path fill="#000000" fill-opacity="0.0" clip-path="url(#id_0)" d="M391.7591 143.80046C391.7591 145.4573 390.41595 146.80046 388.7591 146.80046C387.10223 146.80046 385.7591 145.4573 385.7591 143.80046C385.7591 142.1436 387.10223 140.80046 388.7591 140.80046C390.41595 140.80046 391.7591 142.1436 391.7591 143.80046Z" fill-rule="nonzero"/><path fill="#000000" fill-opacity="0.0" clip-path="url(#id_0)" d="M439.93182 155.50499C439.93182 157.16183 438.58868 158.50499 436.93182 158.50499C435.27496 158.50499 433.93182 157.16183 433.93182 155.50499C433.93182 153.84813 435.27496 152.50499 436.93182 152.50499C438.58868 152.50499 439.93182 153.84813 439.93182 155.50499Z" fill-rule="nonzero"/><path fill="#000000" fill-opacity="0.0" clip-path="url(#id_0)" d="M488.10455 203.34808C488.10455 205.00493 486.7614 206.34808 485.10455 206.34808C483.4477 206.34808 482.10455 205.00493 482.10455 203.34808C482.10455 201.69122 483.4477 200.34808 485.10455 200.34808C486.7614 200.34808 488.10455 201.69122 488.10455 203.34808Z" fill-rule="nonzero"/><path fill="#000000" fill-opacity="0.0" clip-path="url(#id_0)" d="M536.2773 240.27373C536.2773 241.93059 534.93414 243.27373 533.2773 243.27373C531.6204 243.27373 530.2773 241.93059 530.2773 240.27373C530.2773 238.61688 531.6204 237.27373 533.2773 237.27373C534.93414 237.27373 536.2773 238.61688 536.2773 240.27373Z" fill-rule="nonzero"/><path fill="#000000" fill-opacity="0.0" clip-path="url(#id_0)" d="M584.45 257.55133C584.45 259.2082 583.1069 260.55133 581.45 260.55133C579.79315 260.55133 578.45 259.2082 578.45 257.55133C578.45 255.89449 579.79315 254.55133 581.45 254.55133C583.1069 254.55133 584.45 255.89449 584.45 257.55133Z" fill-rule="nonzero"/><path stroke="#000000" stroke-width="1.0" stroke-linecap="butt" d="M48.5 290.5L54.5 290.5" fill-rule="nonzero"/><path stroke="#000000" stroke-width="1.0" stroke-linecap="butt" d="M48.5 281.5L54.5 281.5" fill-rule="nonzero"/><path stroke="#000000" stroke-width="1.0" stroke-linecap="butt" d="M48.5 273.5L54.5 273.5" fill-rule="nonzero"/><path stroke="#000000" stroke-width="1.0" stroke-linecap="butt" d="M48.5 265.5L54.5 265.5" fill-rule="nonzero"/><path stroke="#000000" stroke-width="1.0" stroke-linecap="butt" d="M48.5 248.5L54.5 248.5" fill-rule="nonzero"/><path stroke="#000000" stroke-width="1.0" stroke-linecap="butt" d="M48.5 240.5L54.5 240.5" fill-rule="nonzero"/><path stroke="#000000" stroke-width="1.0" stroke-linecap="butt" d="M48.5 231.5L54.5 231.5" fill-rule="nonzero"/><path stroke="#000000" stroke-width="1.0" stroke-linecap="butt" d="M48.5 223.5L54.5 223.5" fill-rule="nonzero"/><path stroke="#000000" stroke-width="1.0" stroke-linecap="butt" d="M48.5 206.5L54.5 206.5" fill-rule="nonzero"/><path stroke="#000000" stroke-width="1.0" stroke-linecap="butt" d="M48.5 198.5L54.5 198.5" fill-rule="nonzero"/><path stroke="#000000" stroke-width="1.0" stroke-linecap="butt" d="M48.5 189.5L54.5 189.5" fill-rule="nonzero"/><path stroke="#000000" stroke-width="1.0" stroke-linecap="butt" d="M48.5 181.5L54.5 181.5" fill-rule="nonzero"/><path stroke="#000000" stroke-width="1.0" stroke-linecap="butt" d="M48.5 164.5L54.5 164.5" fill-rule="nonzero"/><path stroke="#000000" stroke-width="1.0" stroke-linecap="butt" d="M48.5 156.5L54.5 156.5" fill-rule="nonzero"/><path stroke="#000000" stroke-width="1.0" stroke-linecap="butt" d="M48.5 148.5L54.5 148.5" fill-rule="nonzero"/><path stroke="#000000" stroke-width="1.0" stroke-linecap="butt" d="M48.5 139.5L54.5 139.5" fill-rule="nonzero"/><path stroke="#000000" stroke-width="1.0" stroke-linecap="butt" d="M48.5 123.5L54.5 123.5" fill-rule="nonzero"/><path stroke="#000000" stroke-width="1.0" stroke-linecap="butt" d="M48.5 114.5L54.5 114.5" fill-rule="nonzero"/><path stroke="#000000" stroke-width="1.0" stroke-linecap="butt" d="M48.5 106.5L54.5 106.5" fill-rule="nonzero"/><path stroke="#000000" stroke-width="1.0" stroke-linecap="butt" d="M48.5 98.5L54.5 98.5" fill-rule="nonzero"/><path stroke="#000000" stroke-width="1.0" stroke-linecap="butt" d="M45.5 298.5L57.5 298.5" fill-rule="nonzero"/><path stroke="#000000" stroke-width="1.0" stroke-linecap="butt" d="M45.5 256.5L57.5 256.5" fill-rule="nonzero"/><path stroke="#000000" stroke-width="1.0" stroke-linecap="butt" d="M45.5 214.5L57.5 214.5" fill-rule="nonzero"/><path stroke="#000000" stroke-width="1.0" stroke-linecap="butt" d="M45.5 173.5L57.5 173.5" fill-rule="nonzero"/><path stroke="#000000" stroke-width="1.0" stroke-linecap="butt" d="M45.5 131.5L57.5 131.5" fill-rule="nonzero"/><path stroke="#000000" stroke-width="1.0" stroke-linecap="butt" d="M45.5 89.5L57.5 89.5" fill-rule="nonzero"/><path fill="#424242" d="M305.9375 340.91876L308.73438 347.8719L311.51562 340.91876L312.98438 340.91876L312.98438 349.45L311.85938 349.45L311.85938 346.1219L311.96875 342.54376L309.15625 349.45L308.29688 349.45L305.5 342.5594L305.60938 346.1219L305.60938 349.45L304.48438 349.45L304.48438 340.91876L305.9375 340.91876ZM314.03125 346.21564Q314.03125 345.29376 314.39062 344.54376Q314.76562 343.79376 315.42188 343.40314Q316.07812 342.9969 316.90625 342.9969Q318.20312 342.9969 319.0 343.8875Q319.8125 344.77814 319.8125 346.27814L319.8125 346.35626Q319.8125 347.27814 319.45312 348.0125Q319.09375 348.7469 318.4375 349.16876Q317.78125 349.575 316.92188 349.575Q315.64062 349.575 314.82812 348.6844Q314.03125 347.77814 314.03125 346.29376L314.03125 346.21564ZM315.125 346.35626Q315.125 347.40314 315.60938 348.04376Q316.10938 348.6844 316.92188 348.6844Q317.75 348.6844 318.23438 348.04376Q318.71875 347.3875 318.71875 346.21564Q318.71875 345.1844 318.21875 344.54376Q317.73438 343.8875 316.90625 343.8875Q316.10938 343.8875 315.60938 344.52814Q315.125 345.15314 315.125 346.35626ZM322.5 349.45L321.42188 349.45L321.42188 343.10626L322.5 343.10626L322.5 349.45ZM321.32812 341.4344Q321.32812 341.16876 321.48438 340.98126Q321.65625 340.79376 321.96875 340.79376Q322.28125 340.79376 322.4375 340.98126Q322.60938 341.16876 322.60938 341.4344Q322.60938 341.6844 322.4375 341.8719Q322.28125 342.04376 321.96875 342.04376Q321.65625 342.04376 321.48438 341.8719Q321.32812 341.6844 321.32812 341.4344ZM328.01562 347.7625Q328.01562 347.325 327.67188 347.09064Q327.34375 346.84064 326.51562 346.66876Q325.70312 346.4969 325.21875 346.2469Q324.73438 345.9969 324.5 345.66876Q324.28125 345.325 324.28125 344.85626Q324.28125 344.075 324.9375 343.54376Q325.59375 342.9969 326.625 342.9969Q327.70312 342.9969 328.35938 343.5594Q329.03125 344.10626 329.03125 344.96564L327.95312 344.96564Q327.95312 344.52814 327.5625 344.21564Q327.1875 343.8875 326.625 343.8875Q326.03125 343.8875 325.6875 344.15314Q325.35938 344.40314 325.35938 344.8094Q325.35938 345.2 325.67188 345.40314Q325.98438 345.60626 326.79688 345.79376Q327.60938 345.96564 328.10938 346.21564Q328.60938 346.46564 328.84375 346.825Q329.09375 347.1844 329.09375 347.6844Q329.09375 348.54376 328.40625 349.0594Q327.73438 349.575 326.65625 349.575Q325.89062 349.575 325.29688 349.3094Q324.71875 349.02814 324.39062 348.54376Q324.0625 348.0594 324.0625 347.4969L325.14062 347.4969Q325.17188 348.04376 325.57812 348.3719Q325.98438 348.6844 326.65625 348.6844Q327.26562 348.6844 327.64062 348.4344Q328.01562 348.1844 328.01562 347.7625Z" fill-rule="nonzero"/><path fill="#757575" d="M38.6125 299.3094Q38.6125 301.21564 37.95625 302.15314Q37.315624 303.075 35.925 303.075Q34.565624 303.075 33.909374 302.16876Q33.253124 301.2625 33.221874 299.45L33.221874 298.0125Q33.221874 296.1219 33.8625 295.21564Q34.51875 294.29376 35.909374 294.29376Q37.284374 294.29376 37.940624 295.1844Q38.596874 296.0594 38.6125 297.90314L38.6125 299.3094ZM37.51875 297.825Q37.51875 296.45 37.128124 295.825Q36.753124 295.1844 35.909374 295.1844Q35.08125 295.1844 34.690624 295.825Q34.315624 296.45 34.315624 297.7469L34.315624 299.48126Q34.315624 300.85626 34.70625 301.52814Q35.1125 302.1844 35.925 302.1844Q36.721874 302.1844 37.1125 301.5594Q37.503124 300.9344 37.51875 299.60626L37.51875 297.825Z" fill-rule="nonzero"/><path fill="#757575" d="M26.753124 256.93542L27.190624 252.68542L31.565624 252.68542L31.565624 253.68542L28.1125 253.68542L27.846874 256.01355Q28.4875 255.63855 29.284374 255.63855Q30.440624 255.63855 31.128124 256.4198Q31.815624 257.18542 31.815624 258.49792Q31.815624 259.81042 31.096874 260.57605Q30.39375 261.34167 29.1125 261.34167Q27.9875 261.34167 27.26875 260.71667Q26.55 260.07605 26.45625 258.96667L27.471874 258.96667Q27.58125 259.70105 28.003124 260.07605Q28.425 260.45105 29.1125 260.45105Q29.8625 260.45105 30.3 259.93542Q30.7375 259.4198 30.7375 258.51355Q30.7375 257.65417 30.26875 257.13855Q29.8 256.62292 29.01875 256.62292Q28.315624 256.62292 27.909374 256.9198L27.628124 257.15417L26.753124 256.93542ZM38.6125 257.57605Q38.6125 259.4823 37.95625 260.4198Q37.315624 261.34167 35.925 261.34167Q34.565624 261.34167 33.909374 260.43542Q33.253124 259.52917 33.221874 257.71667L33.221874 256.27917Q33.221874 254.38855 33.8625 253.4823Q34.51875 252.56042 35.909374 252.56042Q37.284374 252.56042 37.940624 253.45105Q38.596874 254.32605 38.6125 256.1698L38.6125 257.57605ZM37.51875 256.09167Q37.51875 254.71667 37.128124 254.09167Q36.753124 253.45105 35.909374 253.45105Q35.08125 253.45105 34.690624 254.09167Q34.315624 254.71667 34.315624 256.01355L34.315624 257.74792Q34.315624 259.12292 34.70625 259.7948Q35.1125 260.45105 35.925 260.45105Q36.721874 260.45105 37.1125 259.82605Q37.503124 259.20105 37.51875 257.87292L37.51875 256.09167Z" fill-rule="nonzero"/><path fill="#757575" d="M22.815624 219.48334L21.7375 219.48334L21.7375 212.26459L19.55 213.06146L19.55 212.07709L22.659374 210.90521L22.815624 210.90521L22.815624 219.48334ZM31.6125 215.84271Q31.6125 217.74896 30.95625 218.68646Q30.315624 219.60834 28.925 219.60834Q27.565624 219.60834 26.909374 218.70209Q26.253124 217.79584 26.221874 215.98334L26.221874 214.54584Q26.221874 212.65521 26.8625 211.74896Q27.51875 210.82709 28.909374 210.82709Q30.284374 210.82709 30.940624 211.71771Q31.596874 212.59271 31.6125 214.43646L31.6125 215.84271ZM30.51875 214.35834Q30.51875 212.98334 30.128124 212.35834Q29.753124 211.71771 28.909374 211.71771Q28.08125 211.71771 27.690624 212.35834Q27.315624 212.98334 27.315624 214.28021L27.315624 216.01459Q27.315624 217.38959 27.70625 218.06146Q28.1125 218.71771 28.925 218.71771Q29.721874 218.71771 30.1125 218.09271Q30.503124 217.46771 30.51875 216.13959L30.51875 214.35834ZM38.6125 215.84271Q38.6125 217.74896 37.95625 218.68646Q37.315624 219.60834 35.925 219.60834Q34.565624 219.60834 33.909374 218.70209Q33.253124 217.79584 33.221874 215.98334L33.221874 214.54584Q33.221874 212.65521 33.8625 211.74896Q34.51875 210.82709 35.909374 210.82709Q37.284374 210.82709 37.940624 211.71771Q38.596874 212.59271 38.6125 214.43646L38.6125 215.84271ZM37.51875 214.35834Q37.51875 212.98334 37.128124 212.35834Q36.753124 211.71771 35.909374 211.71771Q35.08125 211.71771 34.690624 212.35834Q34.315624 212.98334 34.315624 214.28021L34.315624 216.01459Q34.315624 217.38959 34.70625 218.06146Q35.1125 218.71771 35.925 218.71771Q36.721874 218.71771 37.1125 218.09271Q37.503124 217.46771 37.51875 216.13959L37.51875 214.35834Z" fill-rule="nonzero"/><path fill="#757575" d="M22.815624 177.75L21.7375 177.75L21.7375 170.53125L19.55 171.32812L19.55 170.34375L22.659374 169.17188L22.815624 169.17188L22.815624 177.75ZM26.753124 173.46875L27.190624 169.21875L31.565624 169.21875L31.565624 170.21875L28.1125 170.21875L27.846874 172.54688Q28.4875 172.17188 29.284374 172.17188Q30.440624 172.17188 31.128124 172.95312Q31.815624 173.71875 31.815624 175.03125Q31.815624 176.34375 31.096874 177.10938Q30.39375 177.875 29.1125 177.875Q27.9875 177.875 27.26875 177.25Q26.55 176.60938 26.45625 175.5L27.471874 175.5Q27.58125 176.23438 28.003124 176.60938Q28.425 176.98438 29.1125 176.98438Q29.8625 176.98438 30.3 176.46875Q30.7375 175.95312 30.7375 175.04688Q30.7375 174.1875 30.26875 173.67188Q29.8 173.15625 29.01875 173.15625Q28.315624 173.15625 27.909374 173.45312L27.628124 173.6875L26.753124 173.46875ZM38.6125 174.10938Q38.6125 176.01562 37.95625 176.95312Q37.315624 177.875 35.925 177.875Q34.565624 177.875 33.909374 176.96875Q33.253124 176.0625 33.221874 174.25L33.221874 172.8125Q33.221874 170.92188 33.8625 170.01562Q34.51875 169.09375 35.909374 169.09375Q37.284374 169.09375 37.940624 169.98438Q38.596874 170.85938 38.6125 172.70312L38.6125 174.10938ZM37.51875 172.625Q37.51875 171.25 37.128124 170.625Q36.753124 169.98438 35.909374 169.98438Q35.08125 169.98438 34.690624 170.625Q34.315624 171.25 34.315624 172.54688L34.315624 174.28125Q34.315624 175.65625 34.70625 176.32812Q35.1125 176.98438 35.925 176.98438Q36.721874 176.98438 37.1125 176.35938Q37.503124 175.73438 37.51875 174.40625L37.51875 172.625Z" fill-rule="nonzero"/><path fill="#757575" d="M24.846874 136.01666L19.253124 136.01666L19.253124 135.23541L22.20625 131.95416Q22.8625 131.20416 23.1125 130.75104Q23.3625 130.28229 23.3625 129.78229Q23.3625 129.11041 22.95625 128.68854Q22.565624 128.25104 21.878124 128.25104Q21.08125 128.25104 20.628124 128.71979Q20.175 129.17291 20.175 130.00104L19.096874 130.00104Q19.096874 128.81354 19.846874 128.09479Q20.6125 127.36041 21.878124 127.36041Q23.08125 127.36041 23.76875 127.98541Q24.45625 128.61041 24.45625 129.65729Q24.45625 130.90729 22.846874 132.65729L20.565624 135.12604L24.846874 135.12604L24.846874 136.01666ZM31.6125 132.37604Q31.6125 134.28229 30.95625 135.21979Q30.315624 136.14166 28.925 136.14166Q27.565624 136.14166 26.909374 135.23541Q26.253124 134.32916 26.221874 132.51666L26.221874 131.07916Q26.221874 129.18854 26.8625 128.28229Q27.51875 127.36041 28.909374 127.36041Q30.284374 127.36041 30.940624 128.25104Q31.596874 129.12604 31.6125 130.96979L31.6125 132.37604ZM30.51875 130.89166Q30.51875 129.51666 30.128124 128.89166Q29.753124 128.25104 28.909374 128.25104Q28.08125 128.25104 27.690624 128.89166Q27.315624 129.51666 27.315624 130.81354L27.315624 132.54791Q27.315624 133.92291 27.70625 134.59479Q28.1125 135.25104 28.925 135.25104Q29.721874 135.25104 30.1125 134.62604Q30.503124 134.00104 30.51875 132.67291L30.51875 130.89166ZM38.6125 132.37604Q38.6125 134.28229 37.95625 135.21979Q37.315624 136.14166 35.925 136.14166Q34.565624 136.14166 33.909374 135.23541Q33.253124 134.32916 33.221874 132.51666L33.221874 131.07916Q33.221874 129.18854 33.8625 128.28229Q34.51875 127.36041 35.909374 127.36041Q37.284374 127.36041 37.940624 128.25104Q38.596874 129.12604 38.6125 130.96979L38.6125 132.37604ZM37.51875 130.89166Q37.51875 129.51666 37.128124 128.89166Q36.753124 128.25104 35.909374 128.25104Q35.08125 128.25104 34.690624 128.89166Q34.315624 129.51666 34.315624 130.81354L34.315624 132.54791Q34.315624 133.92291 34.70625 134.59479Q35.1125 135.25104 35.925 135.25104Q36.721874 135.25104 37.1125 134.62604Q37.503124 134.00104 37.51875 132.67291L37.51875 130.89166Z" fill-rule="nonzero"/><path fill="#757575" d="M24.846874 94.28333L19.253124 94.28333L19.253124 93.50208L22.20625 90.22083Q22.8625 89.47083 23.1125 89.01771Q23.3625 88.54896 23.3625 88.04896Q23.3625 87.37708 22.95625 86.95521Q22.565624 86.51771 21.878124 86.51771Q21.08125 86.51771 20.628124 86.98646Q20.175 87.43958 20.175 88.26771L19.096874 88.26771Q19.096874 87.08021 19.846874 86.36146Q20.6125 85.62708 21.878124 85.62708Q23.08125 85.62708 23.76875 86.25208Q24.45625 86.87708 24.45625 87.92396Q24.45625 89.17396 22.846874 90.92396L20.565624 93.39271L24.846874 93.39271L24.846874 94.28333ZM26.753124 90.00208L27.190624 85.75208L31.565624 85.75208L31.565624 86.75208L28.1125 86.75208L27.846874 89.08021Q28.4875 88.70521 29.284374 88.70521Q30.440624 88.70521 31.128124 89.48646Q31.815624 90.25208 31.815624 91.56458Q31.815624 92.87708 31.096874 93.64271Q30.39375 94.40833 29.1125 94.40833Q27.9875 94.40833 27.26875 93.78333Q26.55 93.14271 26.45625 92.03333L27.471874 92.03333Q27.58125 92.76771 28.003124 93.14271Q28.425 93.51771 29.1125 93.51771Q29.8625 93.51771 30.3 93.00208Q30.7375 92.48646 30.7375 91.58021Q30.7375 90.72083 30.26875 90.20521Q29.8 89.68958 29.01875 89.68958Q28.315624 89.68958 27.909374 89.98646L27.628124 90.22083L26.753124 90.00208ZM38.6125 90.64271Q38.6125 92.54896 37.95625 93.48646Q37.315624 94.40833 35.925 94.40833Q34.565624 94.40833 33.909374 93.50208Q33.253124 92.59583 33.221874 90.78333L33.221874 89.34583Q33.221874 87.45521 33.8625 86.54896Q34.51875 85.62708 35.909374 85.62708Q37.284374 85.62708 37.940624 86.51771Q38.596874 87.39271 38.6125 89.23646L38.6125 90.64271ZM37.51875 89.15833Q37.51875 87.78333 37.128124 87.15833Q36.753124 86.51771 35.909374 86.51771Q35.08125 86.51771 34.690624 87.15833Q34.315624 87.78333 34.315624 89.08021L34.315624 90.81458Q34.315624 92.18958 34.70625 92.86146Q35.1125 93.51771 35.925 93.51771Q36.721874 93.51771 37.1125 92.89271Q37.503124 92.26771 37.51875 90.93958L37.51875 89.15833Z" fill-rule="nonzero"/><path fill="#757575" d="M52.315624 316.45L51.2375 316.45L51.2375 309.23126L49.05 310.02814L49.05 309.04376L52.159374 307.8719L52.315624 307.8719L52.315624 316.45Z" fill-rule="nonzero"/><path fill="#757575" d="M102.5196 316.45L96.92585 316.45L96.92585 315.66876L99.878975 312.3875Q100.535225 311.6375 100.785225 311.1844Q101.035225 310.71564 101.035225 310.21564Q101.035225 309.54376 100.628975 309.1219Q100.23835 308.6844 99.55085 308.6844Q98.753975 308.6844 98.30085 309.15314Q97.847725 309.60626 97.847725 310.4344L96.7696 310.4344Q96.7696 309.2469 97.5196 308.52814Q98.285225 307.79376 99.55085 307.79376Q100.753975 307.79376 101.441475 308.41876Q102.128975 309.04376 102.128975 310.09064Q102.128975 311.34064 100.5196 313.09064L98.23835 315.5594L102.5196 315.5594L102.5196 316.45Z" fill-rule="nonzero"/><path fill="#757575" d="M146.67671 311.65314L147.48921 311.65314Q148.27046 311.6375 148.70796 311.2469Q149.14546 310.85626 149.14546 310.1844Q149.14546 308.6844 147.64546 308.6844Q146.94234 308.6844 146.52046 309.09064Q146.11421 309.4969 146.11421 310.15314L145.02046 310.15314Q145.02046 309.1375 145.75484 308.46564Q146.50484 307.79376 147.64546 307.79376Q148.84859 307.79376 149.53609 308.4344Q150.22359 309.075 150.22359 310.21564Q150.22359 310.77814 149.86421 311.29376Q149.50484 311.8094 148.87984 312.075Q149.58296 312.29376 149.95796 312.8094Q150.34859 313.325 150.34859 314.075Q150.34859 315.21564 149.59859 315.90314Q148.84859 316.575 147.64546 316.575Q146.45796 316.575 145.69234 315.91876Q144.94234 315.2625 144.94234 314.2L146.03609 314.2Q146.03609 314.8719 146.47359 315.27814Q146.91109 315.6844 147.66109 315.6844Q148.44234 315.6844 148.84859 315.27814Q149.27046 314.85626 149.27046 314.09064Q149.27046 313.35626 148.81734 312.96564Q148.36421 312.5594 147.48921 312.54376L146.67671 312.54376L146.67671 311.65314Z" fill-rule="nonzero"/><path fill="#757575" d="M197.84943 313.59064L199.03693 313.59064L199.03693 314.46564L197.84943 314.46564L197.84943 316.45L196.7713 316.45L196.7713 314.46564L192.88068 314.46564L192.88068 313.825L196.69318 307.91876L197.84943 307.91876L197.84943 313.59064ZM194.11505 313.59064L196.7713 313.59064L196.7713 309.40314L196.63068 309.6375L194.11505 313.59064Z" fill-rule="nonzero"/><path fill="#757575" d="M241.94403 312.16876L242.38153 307.91876L246.75653 307.91876L246.75653 308.91876L243.3034 308.91876L243.03778 311.2469Q243.6784 310.8719 244.47528 310.8719Q245.63153 310.8719 246.31903 311.65314Q247.00653 312.41876 247.00653 313.73126Q247.00653 315.04376 246.28778 315.8094Q245.58466 316.575 244.3034 316.575Q243.1784 316.575 242.45966 315.95Q241.7409 315.3094 241.64716 314.2L242.66278 314.2Q242.77216 314.9344 243.19403 315.3094Q243.6159 315.6844 244.3034 315.6844Q245.0534 315.6844 245.4909 315.16876Q245.9284 314.65314 245.9284 313.7469Q245.9284 312.8875 245.45966 312.3719Q244.9909 311.85626 244.20966 311.85626Q243.50653 311.85626 243.10028 312.15314L242.81903 312.3875L241.94403 312.16876Z" fill-rule="nonzero"/><path fill="#757575" d="M293.8824 307.91876L293.8824 308.825L293.67926 308.825Q292.41364 308.85626 291.66364 309.59064Q290.91364 310.3094 290.78864 311.6219Q291.47614 310.85626 292.6324 310.85626Q293.74176 310.85626 294.41364 311.6375Q295.0855 312.41876 295.0855 313.66876Q295.0855 314.98126 294.36676 315.77814Q293.648 316.575 292.42926 316.575Q291.2105 316.575 290.4449 315.6375Q289.6949 314.6844 289.6949 313.2L289.6949 312.79376Q289.6949 310.4344 290.6949 309.1844Q291.6949 307.9344 293.67926 307.91876L293.8824 307.91876ZM292.4605 311.7625Q291.898 311.7625 291.42926 312.09064Q290.9605 312.41876 290.773 312.9344L290.773 313.325Q290.773 314.3875 291.24176 315.02814Q291.72614 315.66876 292.42926 315.66876Q293.16364 315.66876 293.5855 315.1375Q294.0074 314.59064 294.0074 313.71564Q294.0074 312.84064 293.5855 312.3094Q293.16364 311.7625 292.4605 311.7625Z" fill-rule="nonzero"/><path fill="#757575" d="M343.3051 308.52814L339.77386 316.45L338.63324 316.45L342.14886 308.8094L337.5395 308.8094L337.5395 307.91876L343.3051 307.91876L343.3051 308.52814Z" fill-rule="nonzero"/><path fill="#757575" d="M391.14972 310.1375Q391.14972 310.77814 390.80597 311.27814Q390.46222 311.77814 389.89972 312.0594Q390.55597 312.34064 390.9466 312.90314Q391.33722 313.45 391.33722 314.15314Q391.33722 315.2469 390.58722 315.91876Q389.85284 316.575 388.6341 316.575Q387.39972 316.575 386.64972 315.91876Q385.91534 315.2469 385.91534 314.15314Q385.91534 313.45 386.29034 312.90314Q386.66534 312.34064 387.33722 312.0594Q386.77472 311.77814 386.4466 311.27814Q386.11847 310.77814 386.11847 310.1375Q386.11847 309.0594 386.80597 308.4344Q387.49347 307.79376 388.6341 307.79376Q389.7591 307.79376 390.4466 308.4344Q391.14972 309.0594 391.14972 310.1375ZM390.2591 314.1219Q390.2591 313.40314 389.80597 312.96564Q389.35284 312.5125 388.61847 312.5125Q387.8841 312.5125 387.43097 312.96564Q386.99347 313.40314 386.99347 314.1375Q386.99347 314.85626 387.43097 315.27814Q387.86847 315.6844 388.6341 315.6844Q389.3841 315.6844 389.8216 315.2625Q390.2591 314.84064 390.2591 314.1219ZM388.6341 308.6844Q387.99347 308.6844 387.58722 309.09064Q387.1966 309.48126 387.1966 310.16876Q387.1966 310.8094 387.58722 311.21564Q387.97784 311.6219 388.61847 311.6219Q389.27472 311.6219 389.66534 311.21564Q390.05597 310.8094 390.05597 310.16876Q390.05597 309.5125 389.64972 309.10626Q389.24347 308.6844 388.6341 308.6844Z" fill-rule="nonzero"/><path fill="#757575" d="M438.2912 312.7Q437.96307 313.10626 437.4787 313.35626Q437.00995 313.59064 436.44745 313.59064Q435.71307 313.59064 435.1662 313.23126Q434.61932 312.8719 434.32245 312.21564Q434.02557 311.54376 434.02557 310.7469Q434.02557 309.90314 434.33807 309.21564Q434.6662 308.52814 435.25995 308.16876Q435.86932 307.79376 436.6662 307.79376Q437.93182 307.79376 438.65057 308.7469Q439.38495 309.7 439.38495 311.325L439.38495 311.6375Q439.38495 314.1375 438.40057 315.27814Q437.4162 316.41876 435.43182 316.45L435.21307 316.45L435.21307 315.54376L435.44745 315.54376Q436.7912 315.5125 437.50995 314.84064Q438.2287 314.16876 438.2912 312.7ZM436.61932 312.7Q437.1662 312.7 437.61932 312.3719Q438.08807 312.02814 438.30682 311.54376L438.30682 311.10626Q438.30682 310.04376 437.83807 309.3719Q437.36932 308.7 436.6662 308.7Q435.94745 308.7 435.50995 309.2469Q435.08807 309.79376 435.08807 310.7Q435.08807 311.575 435.49432 312.1375Q435.9162 312.7 436.61932 312.7Z" fill-rule="nonzero"/><path fill="#757575" d="M482.37018 316.45L481.29205 316.45L481.29205 309.23126L479.10455 310.02814L479.10455 309.04376L482.21393 307.8719L482.37018 307.8719L482.37018 316.45ZM491.16705 312.8094Q491.16705 314.71564 490.5108 315.65314Q489.87018 316.575 488.47955 316.575Q487.12018 316.575 486.46393 315.66876Q485.80768 314.7625 485.77643 312.95L485.77643 311.5125Q485.77643 309.6219 486.41705 308.71564Q487.0733 307.79376 488.46393 307.79376Q489.83893 307.79376 490.49518 308.6844Q491.15143 309.5594 491.16705 311.40314L491.16705 312.8094ZM490.0733 311.325Q490.0733 309.95 489.68268 309.325Q489.30768 308.6844 488.46393 308.6844Q487.6358 308.6844 487.24518 309.325Q486.87018 309.95 486.87018 311.2469L486.87018 312.98126Q486.87018 314.35626 487.2608 315.02814Q487.66705 315.6844 488.47955 315.6844Q489.27643 315.6844 489.66705 315.0594Q490.05768 314.4344 490.0733 313.10626L490.0733 311.325Z" fill-rule="nonzero"/><path fill="#757575" d="M530.5429 316.45L529.4648 316.45L529.4648 309.23126L527.2773 310.02814L527.2773 309.04376L530.38666 307.8719L530.5429 307.8719L530.5429 316.45ZM537.5429 316.45L536.4648 316.45L536.4648 309.23126L534.2773 310.02814L534.2773 309.04376L537.38666 307.8719L537.5429 307.8719L537.5429 316.45Z" fill-rule="nonzero"/><path fill="#757575" d="M578.71564 316.45L577.6375 316.45L577.6375 309.23126L575.45 310.02814L575.45 309.04376L578.5594 307.8719L578.71564 307.8719L578.71564 316.45ZM587.7469 316.45L582.15314 316.45L582.15314 315.66876L585.10626 312.3875Q585.7625 311.6375 586.0125 311.1844Q586.2625 310.71564 586.2625 310.21564Q586.2625 309.54376 585.85626 309.1219Q585.46564 308.6844 584.77814 308.6844Q583.98126 308.6844 583.52814 309.15314Q583.075 309.60626 583.075 310.4344L581.9969 310.4344Q581.9969 309.2469 582.7469 308.52814Q583.5125 307.79376 584.77814 307.79376Q585.98126 307.79376 586.66876 308.41876Q587.35626 309.04376 587.35626 310.09064Q587.35626 311.34064 585.7469 313.09064L583.46564 315.5594L587.7469 315.5594L587.7469 316.45Z" fill-rule="nonzero"/><path stroke="#4285f4" stroke-width="4.0" stroke-linecap="butt" d="M244.0 62.416668L256.0 62.416668" fill-rule="nonzero"/><path fill="#757575" d="M270.29688 66.916664L264.70312 66.916664L264.70312 66.135414L267.65625 62.854164Q268.3125 62.104164 268.5625 61.65104Q268.8125 61.18229 268.8125 60.68229Q268.8125 60.010414 268.40625 59.58854Q268.01562 59.15104 267.32812 59.15104Q266.53125 59.15104 266.07812 59.61979Q265.625 60.072914 265.625 60.90104L264.54688 60.90104Q264.54688 59.71354 265.29688 58.99479Q266.0625 58.260414 267.32812 58.260414Q268.53125 58.260414 269.21875 58.885414Q269.90625 59.510414 269.90625 60.55729Q269.90625 61.80729 268.29688 63.55729L266.01562 66.02604L270.29688 66.02604L270.29688 66.916664ZM277.0625 63.27604Q277.0625 65.18229 276.40625 66.11979Q275.76562 67.041664 274.375 67.041664Q273.01562 67.041664 272.35938 66.135414Q271.70312 65.229164 271.67188 63.416664L271.67188 61.979164Q271.67188 60.08854 272.3125 59.18229Q272.96875 58.260414 274.35938 58.260414Q275.73438 58.260414 276.39062 59.15104Q277.04688 60.02604 277.0625 61.86979L277.0625 63.27604ZM275.96875 61.791664Q275.96875 60.416664 275.57812 59.791664Q275.20312 59.15104 274.35938 59.15104Q273.53125 59.15104 273.14062 59.791664Q272.76562 60.416664 272.76562 61.71354L272.76562 63.447914Q272.76562 64.822914 273.15625 65.49479Q273.5625 66.15104 274.375 66.15104Q275.17188 66.15104 275.5625 65.52604Q275.95312 64.90104 275.96875 63.572914L275.96875 61.791664ZM284.29688 66.916664L278.70312 66.916664L278.70312 66.135414L281.65625 62.854164Q282.3125 62.104164 282.5625 61.65104Q282.8125 61.18229 282.8125 60.68229Q282.8125 60.010414 282.40625 59.58854Q282.01562 59.15104 281.32812 59.15104Q280.53125 59.15104 280.07812 59.61979Q279.625 60.072914 279.625 60.90104L278.54688 60.90104Q278.54688 59.71354 279.29688 58.99479Q280.0625 58.260414 281.32812 58.260414Q282.53125 58.260414 283.21875 58.885414Q283.90625 59.510414 283.90625 60.55729Q283.90625 61.80729 282.29688 63.55729L280.01562 66.02604L284.29688 66.02604L284.29688 66.916664ZM291.29688 66.916664L285.70312 66.916664L285.70312 66.135414L288.65625 62.854164Q289.3125 62.104164 289.5625 61.65104Q289.8125 61.18229 289.8125 60.68229Q289.8125 60.010414 289.40625 59.58854Q289.01562 59.15104 288.32812 59.15104Q287.53125 59.15104 287.07812 59.61979Q286.625 60.072914 286.625 60.90104L285.54688 60.90104Q285.54688 59.71354 286.29688 58.99479Q287.0625 58.260414 288.32812 58.260414Q289.53125 58.260414 290.21875 58.885414Q290.90625 59.510414 290.90625 60.55729Q290.90625 61.80729 289.29688 63.55729L287.01562 66.02604L291.29688 66.02604L291.29688 66.916664Z" fill-rule="nonzero"/><path stroke="#db4437" stroke-width="4.0" stroke-linecap="butt" d="M308.0 62.416668L320.0 62.416668" fill-rule="nonzero"/><path fill="#757575" d="M334.29688 66.916664L328.70312 66.916664L328.70312 66.135414L331.65625 62.854164Q332.3125 62.104164 332.5625 61.65104Q332.8125 61.18229 332.8125 60.68229Q332.8125 60.010414 332.40625 59.58854Q332.01562 59.15104 331.32812 59.15104Q330.53125 59.15104 330.07812 59.61979Q329.625 60.072914 329.625 60.90104L328.54688 60.90104Q328.54688 59.71354 329.29688 58.99479Q330.0625 58.260414 331.32812 58.260414Q332.53125 58.260414 333.21875 58.885414Q333.90625 59.510414 333.90625 60.55729Q333.90625 61.80729 332.29688 63.55729L330.01562 66.02604L334.29688 66.02604L334.29688 66.916664ZM341.0625 63.27604Q341.0625 65.18229 340.40625 66.11979Q339.76562 67.041664 338.375 67.041664Q337.01562 67.041664 336.35938 66.135414Q335.70312 65.229164 335.67188 63.416664L335.67188 61.979164Q335.67188 60.08854 336.3125 59.18229Q336.96875 58.260414 338.35938 58.260414Q339.73438 58.260414 340.39062 59.15104Q341.04688 60.02604 341.0625 61.86979L341.0625 63.27604ZM339.96875 61.791664Q339.96875 60.416664 339.57812 59.791664Q339.20312 59.15104 338.35938 59.15104Q337.53125 59.15104 337.14062 59.791664Q336.76562 60.416664 336.76562 61.71354L336.76562 63.447914Q336.76562 64.822914 337.15625 65.49479Q337.5625 66.15104 338.375 66.15104Q339.17188 66.15104 339.5625 65.52604Q339.95312 64.90104 339.96875 63.572914L339.96875 61.791664ZM348.29688 66.916664L342.70312 66.916664L342.70312 66.135414L345.65625 62.854164Q346.3125 62.104164 346.5625 61.65104Q346.8125 61.18229 346.8125 60.68229Q346.8125 60.010414 346.40625 59.58854Q346.01562 59.15104 345.32812 59.15104Q344.53125 59.15104 344.07812 59.61979Q343.625 60.072914 343.625 60.90104L342.54688 60.90104Q342.54688 59.71354 343.29688 58.99479Q344.0625 58.260414 345.32812 58.260414Q346.53125 58.260414 347.21875 58.885414Q347.90625 59.510414 347.90625 60.55729Q347.90625 61.80729 346.29688 63.55729L344.01562 66.02604L348.29688 66.02604L348.29688 66.916664ZM351.28125 62.11979L352.09375 62.11979Q352.875 62.104164 353.3125 61.71354Q353.75 61.322914 353.75 60.65104Q353.75 59.15104 352.25 59.15104Q351.54688 59.15104 351.125 59.55729Q350.71875 59.96354 350.71875 60.61979L349.625 60.61979Q349.625 59.604164 350.35938 58.93229Q351.10938 58.260414 352.25 58.260414Q353.45312 58.260414 354.14062 58.90104Q354.82812 59.541664 354.82812 60.68229Q354.82812 61.24479 354.46875 61.760414Q354.10938 62.27604 353.48438 62.541664Q354.1875 62.760414 354.5625 63.27604Q354.95312 63.791664 354.95312 64.541664Q354.95312 65.68229 354.20312 66.36979Q353.45312 67.041664 352.25 67.041664Q351.0625 67.041664 350.29688 66.385414Q349.54688 65.729164 349.54688 64.666664L350.64062 64.666664Q350.64062 65.33854 351.07812 65.74479Q351.51562 66.15104 352.26562 66.15104Q353.04688 66.15104 353.45312 65.74479Q353.875 65.322914 353.875 64.55729Q353.875 63.822914 353.42188 63.43229Q352.96875 63.02604 352.09375 63.010414L351.28125 63.010414L351.28125 62.11979Z" fill-rule="nonzero"/><path fill="#757575" d="M255.03125 31.9875L255.03125 37.55L253.15625 37.55L253.15625 23.33125L258.39062 23.33125Q260.73438 23.33125 262.04688 24.51875Q263.375 25.70625 263.375 27.675Q263.375 29.753124 262.07812 30.878124Q260.78125 31.9875 258.375 31.9875L255.03125 31.9875ZM255.03125 30.45625L258.39062 30.45625Q259.90625 30.45625 260.70312 29.753124Q261.5 29.034374 261.5 27.690624Q261.5 26.425 260.70312 25.675Q259.90625 24.909374 258.5 24.878124L255.03125 24.878124L255.03125 30.45625ZM270.96875 28.596874Q270.5625 28.534374 270.09375 28.534374Q268.3125 28.534374 267.67188 30.05L267.67188 37.55L265.875 37.55L265.875 26.9875L267.625 26.9875L267.65625 28.20625Q268.54688 26.784374 270.17188 26.784374Q270.70312 26.784374 270.96875 26.925L270.96875 28.596874ZM272.39062 32.175Q272.39062 30.6125 273.0 29.378124Q273.60938 28.128124 274.6875 27.45625Q275.78125 26.784374 277.1875 26.784374Q279.34375 26.784374 280.67188 28.284374Q282.01562 29.76875 282.01562 32.253124L282.01562 32.378124Q282.01562 33.925 281.42188 35.159374Q280.82812 36.378124 279.71875 37.065624Q278.625 37.753124 277.20312 37.753124Q275.0625 37.753124 273.71875 36.253124Q272.39062 34.753124 272.39062 32.3L272.39062 32.175ZM274.20312 32.378124Q274.20312 34.14375 275.01562 35.20625Q275.84375 36.26875 277.20312 36.26875Q278.57812 36.26875 279.39062 35.190624Q280.20312 34.1125 280.20312 32.175Q280.20312 30.425 279.375 29.346874Q278.54688 28.26875 277.1875 28.26875Q275.84375 28.26875 275.01562 29.33125Q274.20312 30.39375 274.20312 32.378124ZM283.42188 32.175Q283.42188 29.753124 284.57812 28.26875Q285.73438 26.784374 287.59375 26.784374Q289.45312 26.784374 290.53125 28.05L290.53125 22.55L292.34375 22.55L292.34375 37.55L290.6875 37.55L290.59375 36.409374Q289.51562 37.753124 287.57812 37.753124Q285.75 37.753124 284.57812 36.253124Q283.42188 34.7375 283.42188 32.315624L283.42188 32.175ZM285.23438 32.378124Q285.23438 34.175 285.96875 35.190624Q286.71875 36.20625 288.03125 36.20625Q289.75 36.20625 290.53125 34.675L290.53125 29.815624Q289.73438 28.315624 288.04688 28.315624Q286.71875 28.315624 285.96875 29.346874Q285.23438 30.378124 285.23438 32.378124ZM301.39062 36.503124Q300.34375 37.753124 298.29688 37.753124Q296.60938 37.753124 295.71875 36.76875Q294.84375 35.784374 294.82812 33.8625L294.82812 26.9875L296.64062 26.9875L296.64062 33.815624Q296.64062 36.20625 298.59375 36.20625Q300.65625 36.20625 301.34375 34.675L301.34375 26.9875L303.15625 26.9875L303.15625 37.55L301.4375 37.55L301.39062 36.503124ZM310.10938 36.26875Q311.07812 36.26875 311.79688 35.690624Q312.51562 35.096874 312.59375 34.221874L314.3125 34.221874Q314.25 35.128124 313.67188 35.95625Q313.10938 36.76875 312.14062 37.26875Q311.1875 37.753124 310.10938 37.753124Q307.95312 37.753124 306.67188 36.315624Q305.40625 34.8625 305.40625 32.3625L305.40625 32.065624Q305.40625 30.51875 305.96875 29.315624Q306.53125 28.1125 307.59375 27.45625Q308.65625 26.784374 310.09375 26.784374Q311.875 26.784374 313.04688 27.846874Q314.23438 28.909374 314.3125 30.6125L312.59375 30.6125Q312.51562 29.596874 311.8125 28.940624Q311.125 28.26875 310.09375 28.26875Q308.71875 28.26875 307.95312 29.26875Q307.20312 30.253124 307.20312 32.128124L307.20312 32.471874Q307.20312 34.3 307.95312 35.284374Q308.70312 36.26875 310.10938 36.26875ZM318.3125 24.425L318.3125 26.9875L320.29688 26.9875L320.29688 28.378124L318.3125 28.378124L318.3125 34.925Q318.3125 35.565624 318.57812 35.89375Q318.84375 36.20625 319.48438 36.20625Q319.79688 36.20625 320.34375 36.08125L320.34375 37.55Q319.625 37.753124 318.95312 37.753124Q317.75 37.753124 317.125 37.01875Q316.51562 36.284374 316.51562 34.925L316.51562 28.378124L314.59375 28.378124L314.59375 26.9875L316.51562 26.9875L316.51562 24.425L318.3125 24.425ZM324.82812 37.55L323.03125 37.55L323.03125 26.9875L324.82812 26.9875L324.82812 37.55ZM322.875 24.175Q322.875 23.7375 323.14062 23.440624Q323.42188 23.128124 323.9375 23.128124Q324.46875 23.128124 324.73438 23.440624Q325.01562 23.7375 325.01562 24.175Q325.01562 24.6125 324.73438 24.909374Q324.46875 25.20625 323.9375 25.20625Q323.42188 25.20625 323.14062 24.909374Q322.875 24.6125 322.875 24.175ZM327.39062 32.175Q327.39062 30.6125 328.0 29.378124Q328.60938 28.128124 329.6875 27.45625Q330.78125 26.784374 332.1875 26.784374Q334.34375 26.784374 335.67188 28.284374Q337.01562 29.76875 337.01562 32.253124L337.01562 32.378124Q337.01562 33.925 336.42188 35.159374Q335.82812 36.378124 334.71875 37.065624Q333.625 37.753124 332.20312 37.753124Q330.0625 37.753124 328.71875 36.253124Q327.39062 34.753124 327.39062 32.3L327.39062 32.175ZM329.20312 32.378124Q329.20312 34.14375 330.01562 35.20625Q330.84375 36.26875 332.20312 36.26875Q333.57812 36.26875 334.39062 35.190624Q335.20312 34.1125 335.20312 32.175Q335.20312 30.425 334.375 29.346874Q333.54688 28.26875 332.1875 28.26875Q330.84375 28.26875 330.01562 29.33125Q329.20312 30.39375 329.20312 32.378124ZM340.57812 26.9875L340.64062 28.315624Q341.84375 26.784374 343.79688 26.784374Q347.15625 26.784374 347.17188 30.565624L347.17188 37.55L345.375 37.55L345.375 30.55Q345.35938 29.409374 344.84375 28.8625Q344.34375 28.315624 343.25 28.315624Q342.375 28.315624 341.70312 28.784374Q341.04688 29.253124 340.67188 30.01875L340.67188 37.55L338.875 37.55L338.875 26.9875L340.57812 26.9875Z" fill-rule="nonzero"/></svg>