<svg version="1.1" viewBox="0.0 0.0 600.0 371.0" fill="none" stroke="none" stroke-linecap="square" stroke-miterlimit="10" width="600" height="371" xmlns:xlink="http://www.w3.org/1999/xlink" xmlns="http://www.w3.org/2000/svg"><path fill="#ffffff" d="M0 0L600.0 0L600.0 371.0L0 371.0L0 0Z" fill-rule="nonzero"/><path stroke="#cccccc" stroke-width="1.0" stroke-linecap="butt" d="M74.5 89.5L74.5 298.5" fill-rule="nonzero"/><path stroke="#cccccc" stroke-width="1.0" stroke-linecap="butt" d="M120.5 89.5L120.5 298.5" fill-rule="nonzero"/><path stroke="#cccccc" stroke-width="1.0" stroke-linecap="butt" d="M166.5 89.5L166.5 298.5" fill-rule="nonzero"/><path stroke="#cccccc" stroke-width="1.0" stroke-linecap="butt" d="M212.5 89.5L212.5 298.5" fill-rule="nonzero"/><path stroke="#cccccc" stroke-width="1.0" stroke-linecap="butt" d="M258.5 89.5L258.5 298.5" fill-rule="nonzero"/><path stroke="#cccccc" stroke-width="1.0" stroke-linecap="butt" d="M304.5 89.5L304.5 298.5" fill-rule="nonzero"/><path stroke="#cccccc" stroke-width="1.0" stroke-linecap="butt" d="M351.5 89.5L351.5 298.5" fill-rule="nonzero"/><path stroke="#cccccc" stroke-width="1.0" stroke-linecap="butt" d="M397.5 89.5L397.5 298.5" fill-rule="nonzero"/><path stroke="#cccccc" stroke-width="1.0" stroke-linecap="butt" d="M443.5 89.5L443.5 298.5" fill-rule="nonzero"/><path stroke="#cccccc" stroke-width="1.0" stroke-linecap="butt" d="M489.5 89.5L489.5 298.5" fill-rule="nonzero"/><path stroke="#cccccc" stroke-width="1.0" stroke-linecap="butt" d="M535.5 89.5L535.5 298.5" fill-rule="nonzero"/><path stroke="#cccccc" stroke-width="1.0" stroke-linecap="butt" d="M581.5 89.5L581.5 298.5" fill-rule="nonzero"/><path stroke="#333333" stroke-width="1.0" stroke-linecap="butt" d="M74.5 298.5L581.5 298.5" fill-rule="nonzero"/><path stroke="#cccccc" stroke-width="1.0" stroke-linecap="butt" d="M74.5 256.5L581.5 256.5" fill-rule="nonzero"/><path stroke="#cccccc" stroke-width="1.0" stroke-linecap="butt" d="M74.5 214.5L581.5 214.5" fill-rule="nonzero"/><path stroke="#cccccc" stroke-width="1.0" stroke-linecap="butt" d="M74.5 173.5L581.5 173.5" fill-rule="nonzero"/><path stroke="#cccccc" stroke-width="1.0" stroke-linecap="butt" d="M74.5 131.5L581.5 131.5" fill-rule="nonzero"/><path stroke="#cccccc" stroke-width="1.0" stroke-linecap="butt" d="M74.5 89.5L581.5 89.5" fill-rule="nonzero"/><path stroke="#e6e6e6" stroke-width="1.0" stroke-linecap="butt" d="M74.5 290.5L581.5 290.5" fill-rule="nonzero"/><path stroke="#e6e6e6" stroke-width="1.0" stroke-linecap="butt" d="M74.5 281.5L581.5 281.5" fill-rule="nonzero"/><path stroke="#e6e6e6" stroke-width="1.0" stroke-linecap="butt" d="M74.5 273.5L581.5 273.5" fill-rule="nonzero"/><path stroke="#e6e6e6" stroke-width="1.0" stroke-linecap="butt" d="M74.5 265.5L581.5 265.5" fill-rule="nonzero"/><path stroke="#e6e6e6" stroke-width="1.0" stroke-linecap="butt" d="M74.5 248.5L581.5 248.5" fill-rule="nonzero"/><path stroke="#e6e6e6" stroke-width="1.0" stroke-linecap="butt" d="M74.5 240.5L581.5 240.5" fill-rule="nonzero"/><path stroke="#e6e6e6" stroke-width="1.0" stroke-linecap="butt" d="M74.5 231.5L581.5 231.5" fill-rule="nonzero"/><path stroke="#e6e6e6" stroke-width="1.0" stroke-linecap="butt" d="M74.5 223.5L581.5 223.5" fill-rule="nonzero"/><path stroke="#e6e6e6" stroke-width="1.0" stroke-linecap="butt" d="M74.5 206.5L581.5 206.5" fill-rule="nonzero"/><path stroke="#e6e6e6" stroke-width="1.0" stroke-linecap="butt" d="M74.5 198.5L581.5 198.5" fill-rule="nonzero"/><path stroke="#e6e6e6" stroke-width="1.0" stroke-linecap="butt" d="M74.5 189.5L581.5 189.5" fill-rule="nonzero"/><path stroke="#e6e6e6" stroke-width="1.0" stroke-linecap="butt" d="M74.5 181.5L581.5 181.5" fill-rule="nonzero"/><path stroke="#e6e6e6" stroke-width="1.0" stroke-linecap="butt" d="M74.5 164.5L581.5 164.5" fill-rule="nonzero"/><path stroke="#e6e6e6" stroke-width="1.0" stroke-linecap="butt" d="M74.5 156.5L581.5 156.5" fill-rule="nonzero"/><path stroke="#e6e6e6" stroke-width="1.0" stroke-linecap="butt" d="M74.5 148.5L581.5 148.5" fill-rule="nonzero"/><path stroke="#e6e6e6" stroke-width="1.0" stroke-linecap="butt" d="M74.5 139.5L581.5 139.5" fill-rule="nonzero"/><path stroke="#e6e6e6" stroke-width="1.0" stroke-linecap="butt" d="M74.5 123.5L581.5 123.5" fill-rule="nonzero"/><path stroke="#e6e6e6" stroke-width="1.0" stroke-linecap="butt" d="M74.5 114.5L581.5 114.5" fill-rule="nonzero"/><path stroke="#e6e6e6" stroke-width="1.0" stroke-linecap="butt" d="M74.5 106.5L581.5 106.5" fill-rule="nonzero"/><path stroke="#e6e6e6" stroke-width="1.0" stroke-linecap="butt" d="M74.5 98.5L581.5 98.5" fill-rule="nonzero"/><path stroke="#000000" stroke-width="1.0" stroke-linecap="butt" d="M74.5 298.5L74.5 89.5" fill-rule="nonzero"/><clipPath id="id_0"><path d="M74.55 89.78333L581.45 89.78333L581.45 298.45L74.55 298.45L74.55 89.78333Z" clip-rule="nonzero"/></clipPath><path stroke="#4285f4" stroke-width="2.0" stroke-linecap="butt" clip-path="url(#id_0)" d="M74.55 298.45L120.63182 298.45L166.71364 298.45L212.79546 275.24292L258.87726 168.55583L304.95908 175.78906L351.04092 130.5401L397.12274 200.76395L443.20456 194.29695L489.28638 248.8658L535.36816 258.21072L581.45 274.48672" fill-rule="nonzero"/><path stroke="#db4437" stroke-width="2.0" stroke-linecap="butt" clip-path="url(#id_0)" d="M74.55 266.18512L120.63182 200.83072L166.71364 192.88303L212.79546 152.81068L258.87726 179.21286L304.95908 157.14761L351.04092 138.83168L397.12274 211.436L443.20456 167.74287L489.28638 208.68828L535.36816 248.98766L581.45 283.24905" fill-rule="nonzero"/><path fill="#000000" fill-opacity="0.0" clip-path="url(#id_0)" d="M77.55 298.45C77.55 300.10684 76.206856 301.45 74.55 301.45C72.89314 301.45 71.55 300.10684 71.55 298.45C71.55 296.79315 72.89314 295.45 74.55 295.45C76.206856 295.45 77.55 296.79315 77.55 298.45Z" fill-rule="nonzero"/><path fill="#000000" fill-opacity="0.0" clip-path="url(#id_0)" d="M123.63182 298.45C123.63182 300.10684 122.28867 301.45 120.63182 301.45C118.97496 301.45 117.63182 300.10684 117.63182 298.45C117.63182 296.79315 118.97496 295.45 120.63182 295.45C122.28867 295.45 123.63182 296.79315 123.63182 298.45Z" fill-rule="nonzero"/><path fill="#000000" fill-opacity="0.0" clip-path="url(#id_0)" d="M169.71364 298.45C169.71364 300.10684 168.37048 301.45 166.71364 301.45C165.05678 301.45 163.71364 300.10684 163.71364 298.45C163.71364 296.79315 165.05678 295.45 166.71364 295.45C168.37048 295.45 169.71364 296.79315 169.71364 298.45Z" fill-rule="nonzero"/><path fill="#000000" fill-opacity="0.0" clip-path="url(#id_0)" d="M215.79546 275.24292C215.79546 276.89978 214.45232 278.24292 212.79546 278.24292C211.1386 278.24292 209.79546 276.89978 209.79546 275.24292C209.79546 273.58606 211.1386 272.24292 212.79546 272.24292C214.45232 272.24292 215.79546 273.58606 215.79546 275.24292Z" fill-rule="nonzero"/><path fill="#000000" fill-opacity="0.0" clip-path="url(#id_0)" d="M261.87726 168.55583C261.87726 170.21269 260.53412 171.55583 258.87726 171.55583C257.22043 171.55583 255.87727 170.21269 255.87727 168.55583C255.87727 166.89899 257.22043 165.55583 258.87726 165.55583C260.53412 165.55583 261.87726 166.89899 261.87726 168.55583Z" fill-rule="nonzero"/><path fill="#000000" fill-opacity="0.0" clip-path="url(#id_0)" d="M307.95908 175.78906C307.95908 177.4459 306.61594 178.78906 304.95908 178.78906C303.30225 178.78906 301.95908 177.4459 301.95908 175.78906C301.95908 174.1322 303.30225 172.78906 304.95908 172.78906C306.61594 172.78906 307.95908 174.1322 307.95908 175.78906Z" fill-rule="nonzero"/><path fill="#000000" fill-opacity="0.0" clip-path="url(#id_0)" d="M354.04092 130.5401C354.04092 132.19696 352.69775 133.5401 351.04092 133.5401C349.38406 133.5401 348.04092 132.19696 348.04092 130.5401C348.04092 128.88326 349.38406 127.54011 351.04092 127.54011C352.69775 127.54011 354.04092 128.88326 354.04092 130.5401Z" fill-rule="nonzero"/><path fill="#000000" fill-opacity="0.0" clip-path="url(#id_0)" d="M400.12274 200.76395C400.12274 202.4208 398.77957 203.76395 397.12274 203.76395C395.46588 203.76395 394.12274 202.4208 394.12274 200.76395C394.12274 199.1071 395.46588 197.76395 397.12274 197.76395C398.77957 197.76395 400.12274 199.1071 400.12274 200.76395Z" fill-rule="nonzero"/><path fill="#000000" fill-opacity="0.0" clip-path="url(#id_0)" d="M446.20456 194.29695C446.20456 195.95381 444.8614 197.29695 443.20456 197.29695C441.5477 197.29695 440.20456 195.95381 440.20456 194.29695C440.20456 192.6401 441.5477 191.29695 443.20456 191.29695C444.8614 191.29695 446.20456 192.6401 446.20456 194.29695Z" fill-rule="nonzero"/><path fill="#000000" fill-opacity="0.0" clip-path="url(#id_0)" d="M492.28638 248.8658C492.28638 250.52264 490.9432 251.8658 489.28638 251.8658C487.62952 251.8658 486.28638 250.52264 486.28638 248.8658C486.28638 247.20894 487.62952 245.8658 489.28638 245.8658C490.9432 245.8658 492.28638 247.20894 492.28638 248.8658Z" fill-rule="nonzero"/><path fill="#000000" fill-opacity="0.0" clip-path="url(#id_0)" d="M538.36816 258.21072C538.36816 259.86758 537.025 261.21072 535.36816 261.21072C533.7113 261.21072 532.36816 259.86758 532.36816 258.21072C532.36816 256.55386 533.7113 255.21072 535.36816 255.21072C537.025 255.21072 538.36816 256.55386 538.36816 258.21072Z" fill-rule="nonzero"/><path fill="#000000" fill-opacity="0.0" clip-path="url(#id_0)" d="M584.45 274.48672C584.45 276.1436 583.1069 277.48672 581.45 277.48672C579.79315 277.48672 578.45 276.1436 578.45 274.48672C578.45 272.82986 579.79315 271.48672 581.45 271.48672C583.1069 271.48672 584.45 272.82986 584.45 274.48672Z" fill-rule="nonzero"/><path fill="#000000" fill-opacity="0.0" clip-path="url(#id_0)" d="M77.55 266.18512C77.55 267.84198 76.206856 269.18512 74.55 269.18512C72.89314 269.18512 71.55 267.84198 71.55 266.18512C71.55 264.52826 72.89314 263.18512 74.55 263.18512C76.206856 263.18512 77.55 264.52826 77.55 266.18512Z" fill-rule="nonzero"/><path fill="#000000" fill-opacity="0.0" clip-path="url(#id_0)" d="M123.63182 200.83072C123.63182 202.48758 122.28867 203.83072 120.63182 203.83072C118.97496 203.83072 117.63182 202.48758 117.63182 200.83072C117.63182 199.17387 118.97496 197.83072 120.63182 197.83072C122.28867 197.83072 123.63182 199.17387 123.63182 200.83072Z" fill-rule="nonzero"/><path fill="#000000" fill-opacity="0.0" clip-path="url(#id_0)" d="M169.71364 192.88303C169.71364 194.53989 168.37048 195.88303 166.71364 195.88303C165.05678 195.88303 163.71364 194.53989 163.71364 192.88303C163.71364 191.22618 165.05678 189.88303 166.71364 189.88303C168.37048 189.88303 169.71364 191.22618 169.71364 192.88303Z" fill-rule="nonzero"/><path fill="#000000" fill-opacity="0.0" clip-path="url(#id_0)" d="M215.79546 152.81068C215.79546 154.46753 214.45232 155.81068 212.79546 155.81068C211.1386 155.81068 209.79546 154.46753 209.79546 152.81068C209.79546 151.15382 211.1386 149.81068 212.79546 149.81068C214.45232 149.81068 215.79546 151.15382 215.79546 152.81068Z" fill-rule="nonzero"/><path fill="#000000" fill-opacity="0.0" clip-path="url(#id_0)" d="M261.87726 179.21286C261.87726 180.86972 260.53412 182.21286 258.87726 182.21286C257.22043 182.21286 255.87727 180.86972 255.87727 179.21286C255.87727 177.556 257.22043 176.21286 258.87726 176.21286C260.53412 176.21286 261.87726 177.556 261.87726 179.21286Z" fill-rule="nonzero"/><path fill="#000000" fill-opacity="0.0" clip-path="url(#id_0)" d="M307.95908 157.14761C307.95908 158.80446 306.61594 160.14761 304.95908 160.14761C303.30225 160.14761 301.95908 158.80446 301.95908 157.14761C301.95908 155.49075 303.30225 154.14761 304.95908 154.14761C306.61594 154.14761 307.95908 155.49075 307.95908 157.14761Z" fill-rule="nonzero"/><path fill="#000000" fill-opacity="0.0" clip-path="url(#id_0)" d="M354.04092 138.83168C354.04092 140.48854 352.69775 141.83168 351.04092 141.83168C349.38406 141.83168 348.04092 140.48854 348.04092 138.83168C348.04092 137.17484 349.38406 135.83168 351.04092 135.83168C352.69775 135.83168 354.04092 137.17484 354.04092 138.83168Z" fill-rule="nonzero"/><path fill="#000000" fill-opacity="0.0" clip-path="url(#id_0)" d="M400.12274 211.436C400.12274 213.09285 398.77957 214.436 397.12274 214.436C395.46588 214.436 394.12274 213.09285 394.12274 211.436C394.12274 209.77914 395.46588 208.436 397.12274 208.436C398.77957 208.436 400.12274 209.77914 400.12274 211.436Z" fill-rule="nonzero"/><path fill="#000000" fill-opacity="0.0" clip-path="url(#id_0)" d="M446.20456 167.74287C446.20456 169.39972 444.8614 170.74287 443.20456 170.74287C441.5477 170.74287 440.20456 169.39972 440.20456 167.74287C440.20456 166.08601 441.5477 164.74287 443.20456 164.74287C444.8614 164.74287 446.20456 166.08601 446.20456 167.74287Z" fill-rule="nonzero"/><path fill="#000000" fill-opacity="0.0" clip-path="url(#id_0)" d="M492.28638 208.68828C492.28638 210.34514 490.9432 211.68828 489.28638 211.68828C487.62952 211.68828 486.28638 210.34514 486.28638 208.68828C486.28638 207.03142 487.62952 205.68828 489.28638 205.68828C490.9432 205.68828 492.28638 207.03142 492.28638 208.68828Z" fill-rule="nonzero"/><path fill="#000000" fill-opacity="0.0" clip-path="url(#id_0)" d="M538.36816 248.98766C538.36816 250.6445 537.025 251.98766 535.36816 251.98766C533.7113 251.98766 532.36816 250.6445 532.36816 248.98766C532.36816 247.3308 533.7113 245.98766 535.36816 245.98766C537.025 245.98766 538.36816 247.3308 538.36816 248.98766Z" fill-rule="nonzero"/><path fill="#000000" fill-opacity="0.0" clip-path="url(#id_0)" d="M584.45 283.24905C584.45 284.9059 583.1069 286.24905 581.45 286.24905C579.79315 286.24905 578.45 284.9059 578.45 283.24905C578.45 281.5922 579.79315 280.24905 581.45 280.24905C583.1069 280.24905 584.45 281.5922 584.45 283.24905Z" fill-rule="nonzero"/><path stroke="#000000" stroke-width="1.0" stroke-linecap="butt" d="M71.5 290.5L77.5 290.5" fill-rule="nonzero"/><path stroke="#000000" stroke-width="1.0" stroke-linecap="butt" d="M71.5 281.5L77.5 281.5" fill-rule="nonzero"/><path stroke="#000000" stroke-width="1.0" stroke-linecap="butt" d="M71.5 273.5L77.5 273.5" fill-rule="nonzero"/><path stroke="#000000" stroke-width="1.0" stroke-linecap="butt" d="M71.5 265.5L77.5 265.5" fill-rule="nonzero"/><path stroke="#000000" stroke-width="1.0" stroke-linecap="butt" d="M71.5 248.5L77.5 248.5" fill-rule="nonzero"/><path stroke="#000000" stroke-width="1.0" stroke-linecap="butt" d="M71.5 240.5L77.5 240.5" fill-rule="nonzero"/><path stroke="#000000" stroke-width="1.0" stroke-linecap="butt" d="M71.5 231.5L77.5 231.5" fill-rule="nonzero"/><path stroke="#000000" stroke-width="1.0" stroke-linecap="butt" d="M71.5 223.5L77.5 223.5" fill-rule="nonzero"/><path stroke="#000000" stroke-width="1.0" stroke-linecap="butt" d="M71.5 206.5L77.5 206.5" fill-rule="nonzero"/><path stroke="#000000" stroke-width="1.0" stroke-linecap="butt" d="M71.5 198.5L77.5 198.5" fill-rule="nonzero"/><path stroke="#000000" stroke-width="1.0" stroke-linecap="butt" d="M71.5 189.5L77.5 189.5" fill-rule="nonzero"/><path stroke="#000000" stroke-width="1.0" stroke-linecap="butt" d="M71.5 181.5L77.5 181.5" fill-rule="nonzero"/><path stroke="#000000" stroke-width="1.0" stroke-linecap="butt" d="M71.5 164.5L77.5 164.5" fill-rule="nonzero"/><path stroke="#000000" stroke-width="1.0" stroke-linecap="butt" d="M71.5 156.5L77.5 156.5" fill-rule="nonzero"/><path stroke="#000000" stroke-width="1.0" stroke-linecap="butt" d="M71.5 148.5L77.5 148.5" fill-rule="nonzero"/><path stroke="#000000" stroke-width="1.0" stroke-linecap="butt" d="M71.5 139.5L77.5 139.5" fill-rule="nonzero"/><path stroke="#000000" stroke-width="1.0" stroke-linecap="butt" d="M71.5 123.5L77.5 123.5" fill-rule="nonzero"/><path stroke="#000000" stroke-width="1.0" stroke-linecap="butt" d="M71.5 114.5L77.5 114.5" fill-rule="nonzero"/><path stroke="#000000" stroke-width="1.0" stroke-linecap="butt" d="M71.5 106.5L77.5 106.5" fill-rule="nonzero"/><path stroke="#000000" stroke-width="1.0" stroke-linecap="butt" d="M71.5 98.5L77.5 98.5" fill-rule="nonzero"/><path stroke="#000000" stroke-width="1.0" stroke-linecap="butt" d="M68.5 298.5L80.5 298.5" fill-rule="nonzero"/><path stroke="#000000" stroke-width="1.0" stroke-linecap="butt" d="M68.5 256.5L80.5 256.5" fill-rule="nonzero"/><path stroke="#000000" stroke-width="1.0" stroke-linecap="butt" d="M68.5 214.5L80.5 214.5" fill-rule="nonzero"/><path stroke="#000000" stroke-width="1.0" stroke-linecap="butt" d="M68.5 173.5L80.5 173.5" fill-rule="nonzero"/><path stroke="#000000" stroke-width="1.0" stroke-linecap="butt" d="M68.5 131.5L80.5 131.5" fill-rule="nonzero"/><path stroke="#000000" stroke-width="1.0" stroke-linecap="butt" d="M68.5 89.5L80.5 89.5" fill-rule="nonzero"/><path fill="#424242" d="M317.4375 340.91876L320.23438 347.8719L323.01562 340.91876L324.48438 340.91876L324.48438 349.45L323.35938 349.45L323.35938 346.1219L323.46875 342.54376L320.65625 349.45L319.79688 349.45L317.0 342.5594L317.10938 346.1219L317.10938 349.45L315.98438 349.45L315.98438 340.91876L317.4375 340.91876ZM325.53125 346.21564Q325.53125 345.29376 325.89062 344.54376Q326.26562 343.79376 326.92188 343.40314Q327.57812 342.9969 328.40625 342.9969Q329.70312 342.9969 330.5 343.8875Q331.3125 344.77814 331.3125 346.27814L331.3125 346.35626Q331.3125 347.27814 330.95312 348.0125Q330.59375 348.7469 329.9375 349.16876Q329.28125 349.575 328.42188 349.575Q327.14062 349.575 326.32812 348.6844Q325.53125 347.77814 325.53125 346.29376L325.53125 346.21564ZM326.625 346.35626Q326.625 347.40314 327.10938 348.04376Q327.60938 348.6844 328.42188 348.6844Q329.25 348.6844 329.73438 348.04376Q330.21875 347.3875 330.21875 346.21564Q330.21875 345.1844 329.71875 344.54376Q329.23438 343.8875 328.40625 343.8875Q327.60938 343.8875 327.10938 344.52814Q326.625 345.15314 326.625 346.35626ZM334.0 349.45L332.92188 349.45L332.92188 343.10626L334.0 343.10626L334.0 349.45ZM332.82812 341.4344Q332.82812 341.16876 332.98438 340.98126Q333.15625 340.79376 333.46875 340.79376Q333.78125 340.79376 333.9375 340.98126Q334.10938 341.16876 334.10938 341.4344Q334.10938 341.6844 333.9375 341.8719Q333.78125 342.04376 333.46875 342.04376Q333.15625 342.04376 332.98438 341.8719Q332.82812 341.6844 332.82812 341.4344ZM339.51562 347.7625Q339.51562 347.325 339.17188 347.09064Q338.84375 346.84064 338.01562 346.66876Q337.20312 346.4969 336.71875 346.2469Q336.23438 345.9969 336.0 345.66876Q335.78125 345.325 335.78125 344.85626Q335.78125 344.075 336.4375 343.54376Q337.09375 342.9969 338.125 342.9969Q339.20312 342.9969 339.85938 343.5594Q340.53125 344.10626 340.53125 344.96564L339.45312 344.96564Q339.45312 344.52814 339.0625 344.21564Q338.6875 343.8875 338.125 343.8875Q337.53125 343.8875 337.1875 344.15314Q336.85938 344.40314 336.85938 344.8094Q336.85938 345.2 337.17188 345.40314Q337.48438 345.60626 338.29688 345.79376Q339.10938 345.96564 339.60938 346.21564Q340.10938 346.46564 340.34375 346.825Q340.59375 347.1844 340.59375 347.6844Q340.59375 348.54376 339.90625 349.0594Q339.23438 349.575 338.15625 349.575Q337.39062 349.575 336.79688 349.3094Q336.21875 349.02814 335.89062 348.54376Q335.5625 348.0594 335.5625 347.4969L336.64062 347.4969Q336.67188 348.04376 337.07812 348.3719Q337.48438 348.6844 338.15625 348.6844Q338.76562 348.6844 339.14062 348.4344Q339.51562 348.1844 339.51562 347.7625Z" fill-rule="nonzero"/><path fill="#757575" d="M38.6125 299.3094Q38.6125 301.21564 37.95625 302.15314Q37.315624 303.075 35.925 303.075Q34.565624 303.075 33.909374 302.16876Q33.253124 301.2625 33.221874 299.45L33.221874 298.0125Q33.221874 296.1219 33.8625 295.21564Q34.51875 294.29376 35.909374 294.29376Q37.284374 294.29376 37.940624 295.1844Q38.596874 296.0594 38.6125 297.90314L38.6125 299.3094ZM37.51875 297.825Q37.51875 296.45 37.128124 295.825Q36.753124 295.1844 35.909374 295.1844Q35.08125 295.1844 34.690624 295.825Q34.315624 296.45 34.315624 297.7469L34.315624 299.48126Q34.315624 300.85626 34.70625 301.52814Q35.1125 302.1844 35.925 302.1844Q36.721874 302.1844 37.1125 301.5594Q37.503124 300.9344 37.51875 299.60626L37.51875 297.825ZM40.33125 304.65314L39.721874 304.23126Q40.26875 303.46564 40.3 302.6375L40.3 301.66876L41.3625 301.66876L41.3625 302.5125Q41.3625 303.10626 41.065624 303.7Q40.76875 304.29376 40.33125 304.65314ZM47.6125 299.3094Q47.6125 301.21564 46.95625 302.15314Q46.315624 303.075 44.925 303.075Q43.565624 303.075 42.909374 302.16876Q42.253124 301.2625 42.221874 299.45L42.221874 298.0125Q42.221874 296.1219 42.8625 295.21564Q43.51875 294.29376 44.909374 294.29376Q46.284374 294.29376 46.940624 295.1844Q47.596874 296.0594 47.6125 297.90314L47.6125 299.3094ZM46.51875 297.825Q46.51875 296.45 46.128124 295.825Q45.753124 295.1844 44.909374 295.1844Q44.08125 295.1844 43.690624 295.825Q43.315624 296.45 43.315624 297.7469L43.315624 299.48126Q43.315624 300.85626 43.70625 301.52814Q44.1125 302.1844 44.925 302.1844Q45.721874 302.1844 46.1125 301.5594Q46.503124 300.9344 46.51875 299.60626L46.51875 297.825ZM54.6125 299.3094Q54.6125 301.21564 53.95625 302.15314Q53.315624 303.075 51.925 303.075Q50.565624 303.075 49.909374 302.16876Q49.253124 301.2625 49.221874 299.45L49.221874 298.0125Q49.221874 296.1219 49.8625 295.21564Q50.51875 294.29376 51.909374 294.29376Q53.284374 294.29376 53.940624 295.1844Q54.596874 296.0594 54.6125 297.90314L54.6125 299.3094ZM53.51875 297.825Q53.51875 296.45 53.128124 295.825Q52.753124 295.1844 51.909374 295.1844Q51.08125 295.1844 50.690624 295.825Q50.315624 296.45 50.315624 297.7469L50.315624 299.48126Q50.315624 300.85626 50.70625 301.52814Q51.1125 302.1844 51.925 302.1844Q52.721874 302.1844 53.1125 301.5594Q53.503124 300.9344 53.51875 299.60626L53.51875 297.825ZM61.6125 299.3094Q61.6125 301.21564 60.95625 302.15314Q60.315624 303.075 58.925 303.075Q57.565624 303.075 56.909374 302.16876Q56.253124 301.2625 56.221874 299.45L56.221874 298.0125Q56.221874 296.1219 56.8625 295.21564Q57.51875 294.29376 58.909374 294.29376Q60.284374 294.29376 60.940624 295.1844Q61.596874 296.0594 61.6125 297.90314L61.6125 299.3094ZM60.51875 297.825Q60.51875 296.45 60.128124 295.825Q59.753124 295.1844 58.909374 295.1844Q58.08125 295.1844 57.690624 295.825Q57.315624 296.45 57.315624 297.7469L57.315624 299.48126Q57.315624 300.85626 57.70625 301.52814Q58.1125 302.1844 58.925 302.1844Q59.721874 302.1844 60.1125 301.5594Q60.503124 300.9344 60.51875 299.60626L60.51875 297.825Z" fill-rule="nonzero"/><path fill="#757575" d="M31.846874 261.21667L26.253124 261.21667L26.253124 260.43542L29.20625 257.15417Q29.8625 256.40417 30.1125 255.95105Q30.3625 255.4823 30.3625 254.9823Q30.3625 254.31042 29.95625 253.88855Q29.565624 253.45105 28.878124 253.45105Q28.08125 253.45105 27.628124 253.9198Q27.175 254.37292 27.175 255.20105L26.096874 255.20105Q26.096874 254.01355 26.846874 253.2948Q27.6125 252.56042 28.878124 252.56042Q30.08125 252.56042 30.76875 253.18542Q31.45625 253.81042 31.45625 254.8573Q31.45625 256.1073 29.846874 257.8573L27.565624 260.32605L31.846874 260.32605L31.846874 261.21667ZM33.753124 256.93542L34.190624 252.68542L38.565624 252.68542L38.565624 253.68542L35.1125 253.68542L34.846874 256.01355Q35.4875 255.63855 36.284374 255.63855Q37.440624 255.63855 38.128124 256.4198Q38.815624 257.18542 38.815624 258.49792Q38.815624 259.81042 38.096874 260.57605Q37.39375 261.34167 36.1125 261.34167Q34.9875 261.34167 34.26875 260.71667Q33.55 260.07605 33.45625 258.96667L34.471874 258.96667Q34.58125 259.70105 35.003124 260.07605Q35.425 260.45105 36.1125 260.45105Q36.8625 260.45105 37.3 259.93542Q37.7375 259.4198 37.7375 258.51355Q37.7375 257.65417 37.26875 257.13855Q36.8 256.62292 36.01875 256.62292Q35.315624 256.62292 34.909374 256.9198L34.628124 257.15417L33.753124 256.93542ZM40.33125 262.9198L39.721874 262.49792Q40.26875 261.7323 40.3 260.90417L40.3 259.93542L41.3625 259.93542L41.3625 260.77917Q41.3625 261.37292 41.065624 261.96667Q40.76875 262.56042 40.33125 262.9198ZM47.6125 257.57605Q47.6125 259.4823 46.95625 260.4198Q46.315624 261.34167 44.925 261.34167Q43.565624 261.34167 42.909374 260.43542Q42.253124 259.52917 42.221874 257.71667L42.221874 256.27917Q42.221874 254.38855 42.8625 253.4823Q43.51875 252.56042 44.909374 252.56042Q46.284374 252.56042 46.940624 253.45105Q47.596874 254.32605 47.6125 256.1698L47.6125 257.57605ZM46.51875 256.09167Q46.51875 254.71667 46.128124 254.09167Q45.753124 253.45105 44.909374 253.45105Q44.08125 253.45105 43.690624 254.09167Q43.315624 254.71667 43.315624 256.01355L43.315624 257.74792Q43.315624 259.12292 43.70625 259.7948Q44.1125 260.45105 44.925 260.45105Q45.721874 260.45105 46.1125 259.82605Q46.503124 259.20105 46.51875 257.87292L46.51875 256.09167ZM54.6125 257.57605Q54.6125 259.4823 53.95625 260.4198Q53.315624 261.34167 51.925 261.34167Q50.565624 261.34167 49.909374 260.43542Q49.253124 259.52917 49.221874 257.71667L49.221874 256.27917Q49.221874 254.38855 49.8625 253.4823Q50.51875 252.56042 51.909374 252.56042Q53.284374 252.56042 53.940624 253.45105Q54.596874 254.32605 54.6125 256.1698L54.6125 257.57605ZM53.51875 256.09167Q53.51875 254.71667 53.128124 254.09167Q52.753124 253.45105 51.909374 253.45105Q51.08125 253.45105 50.690624 254.09167Q50.315624 254.71667 50.315624 256.01355L50.315624 257.74792Q50.315624 259.12292 50.70625 259.7948Q51.1125 260.45105 51.925 260.45105Q52.721874 260.45105 53.1125 259.82605Q53.503124 259.20105 53.51875 257.87292L53.51875 256.09167ZM61.6125 257.57605Q61.6125 259.4823 60.95625 260.4198Q60.315624 261.34167 58.925 261.34167Q57.565624 261.34167 56.909374 260.43542Q56.253124 259.52917 56.221874 257.71667L56.221874 256.27917Q56.221874 254.38855 56.8625 253.4823Q57.51875 252.56042 58.909374 252.56042Q60.284374 252.56042 60.940624 253.45105Q61.596874 254.32605 61.6125 256.1698L61.6125 257.57605ZM60.51875 256.09167Q60.51875 254.71667 60.128124 254.09167Q59.753124 253.45105 58.909374 253.45105Q58.08125 253.45105 57.690624 254.09167Q57.315624 254.71667 57.315624 256.01355L57.315624 257.74792Q57.315624 259.12292 57.70625 259.7948Q58.1125 260.45105 58.925 260.45105Q59.721874 260.45105 60.1125 259.82605Q60.503124 259.20105 60.51875 257.87292L60.51875 256.09167Z" fill-rule="nonzero"/><path fill="#757575" d="M26.753124 215.20209L27.190624 210.95209L31.565624 210.95209L31.565624 211.95209L28.1125 211.95209L27.846874 214.28021Q28.4875 213.90521 29.284374 213.90521Q30.440624 213.90521 31.128124 214.68646Q31.815624 215.45209 31.815624 216.76459Q31.815624 218.07709 31.096874 218.84271Q30.39375 219.60834 29.1125 219.60834Q27.9875 219.60834 27.26875 218.98334Q26.55 218.34271 26.45625 217.23334L27.471874 217.23334Q27.58125 217.96771 28.003124 218.34271Q28.425 218.71771 29.1125 218.71771Q29.8625 218.71771 30.3 218.20209Q30.7375 217.68646 30.7375 216.78021Q30.7375 215.92084 30.26875 215.40521Q29.8 214.88959 29.01875 214.88959Q28.315624 214.88959 27.909374 215.18646L27.628124 215.42084L26.753124 215.20209ZM38.6125 215.84271Q38.6125 217.74896 37.95625 218.68646Q37.315624 219.60834 35.925 219.60834Q34.565624 219.60834 33.909374 218.70209Q33.253124 217.79584 33.221874 215.98334L33.221874 214.54584Q33.221874 212.65521 33.8625 211.74896Q34.51875 210.82709 35.909374 210.82709Q37.284374 210.82709 37.940624 211.71771Q38.596874 212.59271 38.6125 214.43646L38.6125 215.84271ZM37.51875 214.35834Q37.51875 212.98334 37.128124 212.35834Q36.753124 211.71771 35.909374 211.71771Q35.08125 211.71771 34.690624 212.35834Q34.315624 212.98334 34.315624 214.28021L34.315624 216.01459Q34.315624 217.38959 34.70625 218.06146Q35.1125 218.71771 35.925 218.71771Q36.721874 218.71771 37.1125 218.09271Q37.503124 217.46771 37.51875 216.13959L37.51875 214.35834ZM40.33125 221.18646L39.721874 220.76459Q40.26875 219.99896 40.3 219.17084L40.3 218.20209L41.3625 218.20209L41.3625 219.04584Q41.3625 219.63959 41.065624 220.23334Q40.76875 220.82709 40.33125 221.18646ZM47.6125 215.84271Q47.6125 217.74896 46.95625 218.68646Q46.315624 219.60834 44.925 219.60834Q43.565624 219.60834 42.909374 218.70209Q42.253124 217.79584 42.221874 215.98334L42.221874 214.54584Q42.221874 212.65521 42.8625 211.74896Q43.51875 210.82709 44.909374 210.82709Q46.284374 210.82709 46.940624 211.71771Q47.596874 212.59271 47.6125 214.43646L47.6125 215.84271ZM46.51875 214.35834Q46.51875 212.98334 46.128124 212.35834Q45.753124 211.71771 44.909374 211.71771Q44.08125 211.71771 43.690624 212.35834Q43.315624 212.98334 43.315624 214.28021L43.315624 216.01459Q43.315624 217.38959 43.70625 218.06146Q44.1125 218.71771 44.925 218.71771Q45.721874 218.71771 46.1125 218.09271Q46.503124 217.46771 46.51875 216.13959L46.51875 214.35834ZM54.6125 215.84271Q54.6125 217.74896 53.95625 218.68646Q53.315624 219.60834 51.925 219.60834Q50.565624 219.60834 49.909374 218.70209Q49.253124 217.79584 49.221874 215.98334L49.221874 214.54584Q49.221874 212.65521 49.8625 211.74896Q50.51875 210.82709 51.909374 210.82709Q53.284374 210.82709 53.940624 211.71771Q54.596874 212.59271 54.6125 214.43646L54.6125 215.84271ZM53.51875 214.35834Q53.51875 212.98334 53.128124 212.35834Q52.753124 211.71771 51.909374 211.71771Q51.08125 211.71771 50.690624 212.35834Q50.315624 212.98334 50.315624 214.28021L50.315624 216.01459Q50.315624 217.38959 50.70625 218.06146Q51.1125 218.71771 51.925 218.71771Q52.721874 218.71771 53.1125 218.09271Q53.503124 217.46771 53.51875 216.13959L53.51875 214.35834ZM61.6125 215.84271Q61.6125 217.74896 60.95625 218.68646Q60.315624 219.60834 58.925 219.60834Q57.565624 219.60834 56.909374 218.70209Q56.253124 217.79584 56.221874 215.98334L56.221874 214.54584Q56.221874 212.65521 56.8625 211.74896Q57.51875 210.82709 58.909374 210.82709Q60.284374 210.82709 60.940624 211.71771Q61.596874 212.59271 61.6125 214.43646L61.6125 215.84271ZM60.51875 214.35834Q60.51875 212.98334 60.128124 212.35834Q59.753124 211.71771 58.909374 211.71771Q58.08125 211.71771 57.690624 212.35834Q57.315624 212.98334 57.315624 214.28021L57.315624 216.01459Q57.315624 217.38959 57.70625 218.06146Q58.1125 218.71771 58.925 218.71771Q59.721874 218.71771 60.1125 218.09271Q60.503124 217.46771 60.51875 216.13959L60.51875 214.35834Z" fill-rule="nonzero"/><path fill="#757575" d="M31.76875 169.82812L28.2375 177.75L27.096874 177.75L30.6125 170.10938L26.003124 170.10938L26.003124 169.21875L31.76875 169.21875L31.76875 169.82812ZM33.753124 173.46875L34.190624 169.21875L38.565624 169.21875L38.565624 170.21875L35.1125 170.21875L34.846874 172.54688Q35.4875 172.17188 36.284374 172.17188Q37.440624 172.17188 38.128124 172.95312Q38.815624 173.71875 38.815624 175.03125Q38.815624 176.34375 38.096874 177.10938Q37.39375 177.875 36.1125 177.875Q34.9875 177.875 34.26875 177.25Q33.55 176.60938 33.45625 175.5L34.471874 175.5Q34.58125 176.23438 35.003124 176.60938Q35.425 176.98438 36.1125 176.98438Q36.8625 176.98438 37.3 176.46875Q37.7375 175.95312 37.7375 175.04688Q37.7375 174.1875 37.26875 173.67188Q36.8 173.15625 36.01875 173.15625Q35.315624 173.15625 34.909374 173.45312L34.628124 173.6875L33.753124 173.46875ZM40.33125 179.45312L39.721874 179.03125Q40.26875 178.26562 40.3 177.4375L40.3 176.46875L41.3625 176.46875L41.3625 177.3125Q41.3625 177.90625 41.065624 178.5Q40.76875 179.09375 40.33125 179.45312ZM47.6125 174.10938Q47.6125 176.01562 46.95625 176.95312Q46.315624 177.875 44.925 177.875Q43.565624 177.875 42.909374 176.96875Q42.253124 176.0625 42.221874 174.25L42.221874 172.8125Q42.221874 170.92188 42.8625 170.01562Q43.51875 169.09375 44.909374 169.09375Q46.284374 169.09375 46.940624 169.98438Q47.596874 170.85938 47.6125 172.70312L47.6125 174.10938ZM46.51875 172.625Q46.51875 171.25 46.128124 170.625Q45.753124 169.98438 44.909374 169.98438Q44.08125 169.98438 43.690624 170.625Q43.315624 171.25 43.315624 172.54688L43.315624 174.28125Q43.315624 175.65625 43.70625 176.32812Q44.1125 176.98438 44.925 176.98438Q45.721874 176.98438 46.1125 176.35938Q46.503124 175.73438 46.51875 174.40625L46.51875 172.625ZM54.6125 174.10938Q54.6125 176.01562 53.95625 176.95312Q53.315624 177.875 51.925 177.875Q50.565624 177.875 49.909374 176.96875Q49.253124 176.0625 49.221874 174.25L49.221874 172.8125Q49.221874 170.92188 49.8625 170.01562Q50.51875 169.09375 51.909374 169.09375Q53.284374 169.09375 53.940624 169.98438Q54.596874 170.85938 54.6125 172.70312L54.6125 174.10938ZM53.51875 172.625Q53.51875 171.25 53.128124 170.625Q52.753124 169.98438 51.909374 169.98438Q51.08125 169.98438 50.690624 170.625Q50.315624 171.25 50.315624 172.54688L50.315624 174.28125Q50.315624 175.65625 50.70625 176.32812Q51.1125 176.98438 51.925 176.98438Q52.721874 176.98438 53.1125 176.35938Q53.503124 175.73438 53.51875 174.40625L53.51875 172.625ZM61.6125 174.10938Q61.6125 176.01562 60.95625 176.95312Q60.315624 177.875 58.925 177.875Q57.565624 177.875 56.909374 176.96875Q56.253124 176.0625 56.221874 174.25L56.221874 172.8125Q56.221874 170.92188 56.8625 170.01562Q57.51875 169.09375 58.909374 169.09375Q60.284374 169.09375 60.940624 169.98438Q61.596874 170.85938 61.6125 172.70312L61.6125 174.10938ZM60.51875 172.625Q60.51875 171.25 60.128124 170.625Q59.753124 169.98438 58.909374 169.98438Q58.08125 169.98438 57.690624 170.625Q57.315624 171.25 57.315624 172.54688L57.315624 174.28125Q57.315624 175.65625 57.70625 176.32812Q58.1125 176.98438 58.925 176.98438Q59.721874 176.98438 60.1125 176.35938Q60.503124 175.73438 60.51875 174.40625L60.51875 172.625Z" fill-rule="nonzero"/><path fill="#757575" d="M22.815624 136.01666L21.7375 136.01666L21.7375 128.79791L19.55 129.59479L19.55 128.61041L22.659374 127.43854L22.815624 127.43854L22.815624 136.01666ZM31.6125 132.37604Q31.6125 134.28229 30.95625 135.21979Q30.315624 136.14166 28.925 136.14166Q27.565624 136.14166 26.909374 135.23541Q26.253124 134.32916 26.221874 132.51666L26.221874 131.07916Q26.221874 129.18854 26.8625 128.28229Q27.51875 127.36041 28.909374 127.36041Q30.284374 127.36041 30.940624 128.25104Q31.596874 129.12604 31.6125 130.96979L31.6125 132.37604ZM30.51875 130.89166Q30.51875 129.51666 30.128124 128.89166Q29.753124 128.25104 28.909374 128.25104Q28.08125 128.25104 27.690624 128.89166Q27.315624 129.51666 27.315624 130.81354L27.315624 132.54791Q27.315624 133.92291 27.70625 134.59479Q28.1125 135.25104 28.925 135.25104Q29.721874 135.25104 30.1125 134.62604Q30.503124 134.00104 30.51875 132.67291L30.51875 130.89166ZM38.6125 132.37604Q38.6125 134.28229 37.95625 135.21979Q37.315624 136.14166 35.925 136.14166Q34.565624 136.14166 33.909374 135.23541Q33.253124 134.32916 33.221874 132.51666L33.221874 131.07916Q33.221874 129.18854 33.8625 128.28229Q34.51875 127.36041 35.909374 127.36041Q37.284374 127.36041 37.940624 128.25104Q38.596874 129.12604 38.6125 130.96979L38.6125 132.37604ZM37.51875 130.89166Q37.51875 129.51666 37.128124 128.89166Q36.753124 128.25104 35.909374 128.25104Q35.08125 128.25104 34.690624 128.89166Q34.315624 129.51666 34.315624 130.81354L34.315624 132.54791Q34.315624 133.92291 34.70625 134.59479Q35.1125 135.25104 35.925 135.25104Q36.721874 135.25104 37.1125 134.62604Q37.503124 134.00104 37.51875 132.67291L37.51875 130.89166ZM40.33125 137.71979L39.721874 137.29791Q40.26875 136.53229 40.3 135.70416L40.3 134.73541L41.3625 134.73541L41.3625 135.57916Q41.3625 136.17291 41.065624 136.76666Q40.76875 137.36041 40.33125 137.71979ZM47.6125 132.37604Q47.6125 134.28229 46.95625 135.21979Q46.315624 136.14166 44.925 136.14166Q43.565624 136.14166 42.909374 135.23541Q42.253124 134.32916 42.221874 132.51666L42.221874 131.07916Q42.221874 129.18854 42.8625 128.28229Q43.51875 127.36041 44.909374 127.36041Q46.284374 127.36041 46.940624 128.25104Q47.596874 129.12604 47.6125 130.96979L47.6125 132.37604ZM46.51875 130.89166Q46.51875 129.51666 46.128124 128.89166Q45.753124 128.25104 44.909374 128.25104Q44.08125 128.25104 43.690624 128.89166Q43.315624 129.51666 43.315624 130.81354L43.315624 132.54791Q43.315624 133.92291 43.70625 134.59479Q44.1125 135.25104 44.925 135.25104Q45.721874 135.25104 46.1125 134.62604Q46.503124 134.00104 46.51875 132.67291L46.51875 130.89166ZM54.6125 132.37604Q54.6125 134.28229 53.95625 135.21979Q53.315624 136.14166 51.925 136.14166Q50.565624 136.14166 49.909374 135.23541Q49.253124 134.32916 49.221874 132.51666L49.221874 131.07916Q49.221874 129.18854 49.8625 128.28229Q50.51875 127.36041 51.909374 127.36041Q53.284374 127.36041 53.940624 128.25104Q54.596874 129.12604 54.6125 130.96979L54.6125 132.37604ZM53.51875 130.89166Q53.51875 129.51666 53.128124 128.89166Q52.753124 128.25104 51.909374 128.25104Q51.08125 128.25104 50.690624 128.89166Q50.315624 129.51666 50.315624 130.81354L50.315624 132.54791Q50.315624 133.92291 50.70625 134.59479Q51.1125 135.25104 51.925 135.25104Q52.721874 135.25104 53.1125 134.62604Q53.503124 134.00104 53.51875 132.67291L53.51875 130.89166ZM61.6125 132.37604Q61.6125 134.28229 60.95625 135.21979Q60.315624 136.14166 58.925 136.14166Q57.565624 136.14166 56.909374 135.23541Q56.253124 134.32916 56.221874 132.51666L56.221874 131.07916Q56.221874 129.18854 56.8625 128.28229Q57.51875 127.36041 58.909374 127.36041Q60.284374 127.36041 60.940624 128.25104Q61.596874 129.12604 61.6125 130.96979L61.6125 132.37604ZM60.51875 130.89166Q60.51875 129.51666 60.128124 128.89166Q59.753124 128.25104 58.909374 128.25104Q58.08125 128.25104 57.690624 128.89166Q57.315624 129.51666 57.315624 130.81354L57.315624 132.54791Q57.315624 133.92291 57.70625 134.59479Q58.1125 135.25104 58.925 135.25104Q59.721874 135.25104 60.1125 134.62604Q60.503124 134.00104 60.51875 132.67291L60.51875 130.89166Z" fill-rule="nonzero"/><path fill="#757575" d="M22.815624 94.28333L21.7375 94.28333L21.7375 87.06458L19.55 87.86146L19.55 86.87708L22.659374 85.70521L22.815624 85.70521L22.815624 94.28333ZM31.846874 94.28333L26.253124 94.28333L26.253124 93.50208L29.20625 90.22083Q29.8625 89.47083 30.1125 89.01771Q30.3625 88.54896 30.3625 88.04896Q30.3625 87.37708 29.95625 86.95521Q29.565624 86.51771 28.878124 86.51771Q28.08125 86.51771 27.628124 86.98646Q27.175 87.43958 27.175 88.26771L26.096874 88.26771Q26.096874 87.08021 26.846874 86.36146Q27.6125 85.62708 28.878124 85.62708Q30.08125 85.62708 30.76875 86.25208Q31.45625 86.87708 31.45625 87.92396Q31.45625 89.17396 29.846874 90.92396L27.565624 93.39271L31.846874 93.39271L31.846874 94.28333ZM33.753124 90.00208L34.190624 85.75208L38.565624 85.75208L38.565624 86.75208L35.1125 86.75208L34.846874 89.08021Q35.4875 88.70521 36.284374 88.70521Q37.440624 88.70521 38.128124 89.48646Q38.815624 90.25208 38.815624 91.56458Q38.815624 92.87708 38.096874 93.64271Q37.39375 94.40833 36.1125 94.40833Q34.9875 94.40833 34.26875 93.78333Q33.55 93.14271 33.45625 92.03333L34.471874 92.03333Q34.58125 92.76771 35.003124 93.14271Q35.425 93.51771 36.1125 93.51771Q36.8625 93.51771 37.3 93.00208Q37.7375 92.48646 37.7375 91.58021Q37.7375 90.72083 37.26875 90.20521Q36.8 89.68958 36.01875 89.68958Q35.315624 89.68958 34.909374 89.98646L34.628124 90.22083L33.753124 90.00208ZM40.33125 95.98646L39.721874 95.56458Q40.26875 94.79896 40.3 93.97083L40.3 93.00208L41.3625 93.00208L41.3625 93.84583Q41.3625 94.43958 41.065624 95.03333Q40.76875 95.62708 40.33125 95.98646ZM47.6125 90.64271Q47.6125 92.54896 46.95625 93.48646Q46.315624 94.40833 44.925 94.40833Q43.565624 94.40833 42.909374 93.50208Q42.253124 92.59583 42.221874 90.78333L42.221874 89.34583Q42.221874 87.45521 42.8625 86.54896Q43.51875 85.62708 44.909374 85.62708Q46.284374 85.62708 46.940624 86.51771Q47.596874 87.39271 47.6125 89.23646L47.6125 90.64271ZM46.51875 89.15833Q46.51875 87.78333 46.128124 87.15833Q45.753124 86.51771 44.909374 86.51771Q44.08125 86.51771 43.690624 87.15833Q43.315624 87.78333 43.315624 89.08021L43.315624 90.81458Q43.315624 92.18958 43.70625 92.86146Q44.1125 93.51771 44.925 93.51771Q45.721874 93.51771 46.1125 92.89271Q46.503124 92.26771 46.51875 90.93958L46.51875 89.15833ZM54.6125 90.64271Q54.6125 92.54896 53.95625 93.48646Q53.315624 94.40833 51.925 94.40833Q50.565624 94.40833 49.909374 93.50208Q49.253124 92.59583 49.221874 90.78333L49.221874 89.34583Q49.221874 87.45521 49.8625 86.54896Q50.51875 85.62708 51.909374 85.62708Q53.284374 85.62708 53.940624 86.51771Q54.596874 87.39271 54.6125 89.23646L54.6125 90.64271ZM53.51875 89.15833Q53.51875 87.78333 53.128124 87.15833Q52.753124 86.51771 51.909374 86.51771Q51.08125 86.51771 50.690624 87.15833Q50.315624 87.78333 50.315624 89.08021L50.315624 90.81458Q50.315624 92.18958 50.70625 92.86146Q51.1125 93.51771 51.925 93.51771Q52.721874 93.51771 53.1125 92.89271Q53.503124 92.26771 53.51875 90.93958L53.51875 89.15833ZM61.6125 90.64271Q61.6125 92.54896 60.95625 93.48646Q60.315624 94.40833 58.925 94.40833Q57.565624 94.40833 56.909374 93.50208Q56.253124 92.59583 56.221874 90.78333L56.221874 89.34583Q56.221874 87.45521 56.8625 86.54896Q57.51875 85.62708 58.909374 85.62708Q60.284374 85.62708 60.940624 86.51771Q61.596874 87.39271 61.6125 89.23646L61.6125 90.64271ZM60.51875 89.15833Q60.51875 87.78333 60.128124 87.15833Q59.753124 86.51771 58.909374 86.51771Q58.08125 86.51771 57.690624 87.15833Q57.315624 87.78333 57.315624 89.08021L57.315624 90.81458Q57.315624 92.18958 57.70625 92.86146Q58.1125 93.51771 58.925 93.51771Q59.721874 93.51771 60.1125 92.89271Q60.503124 92.26771 60.51875 90.93958L60.51875 89.15833Z" fill-rule="nonzero"/><path fill="#757575" d="M75.31563 316.45L74.2375 316.45L74.2375 309.23126L72.05 310.02814L72.05 309.04376L75.15938 307.8719L75.31563 307.8719L75.31563 316.45Z" fill-rule="nonzero"/><path fill="#757575" d="M123.428696 316.45L117.834946 316.45L117.834946 315.66876L120.78807 312.3875Q121.44432 311.6375 121.69432 311.1844Q121.94432 310.71564 121.94432 310.21564Q121.94432 309.54376 121.53807 309.1219Q121.147446 308.6844 120.459946 308.6844Q119.66307 308.6844 119.209946 309.15314Q118.75682 309.60626 118.75682 310.4344L117.678696 310.4344Q117.678696 309.2469 118.428696 308.52814Q119.19432 307.79376 120.459946 307.79376Q121.66307 307.79376 122.35057 308.41876Q123.03807 309.04376 123.03807 310.09064Q123.03807 311.34064 121.428696 313.09064L119.147446 315.5594L123.428696 315.5594L123.428696 316.45Z" fill-rule="nonzero"/><path fill="#757575" d="M165.49489 311.65314L166.30739 311.65314Q167.08864 311.6375 167.52614 311.2469Q167.96364 310.85626 167.96364 310.1844Q167.96364 308.6844 166.46364 308.6844Q165.76051 308.6844 165.33864 309.09064Q164.93239 309.4969 164.93239 310.15314L163.83864 310.15314Q163.83864 309.1375 164.57301 308.46564Q165.32301 307.79376 166.46364 307.79376Q167.66676 307.79376 168.35426 308.4344Q169.04176 309.075 169.04176 310.21564Q169.04176 310.77814 168.68239 311.29376Q168.32301 311.8094 167.69801 312.075Q168.40114 312.29376 168.77614 312.8094Q169.16676 313.325 169.16676 314.075Q169.16676 315.21564 168.41676 315.90314Q167.66676 316.575 166.46364 316.575Q165.27614 316.575 164.51051 315.91876Q163.76051 315.2625 163.76051 314.2L164.85426 314.2Q164.85426 314.8719 165.29176 315.27814Q165.72926 315.6844 166.47926 315.6844Q167.26051 315.6844 167.66676 315.27814Q168.08864 314.85626 168.08864 314.09064Q168.08864 313.35626 167.63551 312.96564Q167.18239 312.5594 166.30739 312.54376L165.49489 312.54376L165.49489 311.65314Z" fill-rule="nonzero"/><path fill="#757575" d="M214.5767 313.59064L215.7642 313.59064L215.7642 314.46564L214.5767 314.46564L214.5767 316.45L213.49858 316.45L213.49858 314.46564L209.60796 314.46564L209.60796 313.825L213.42046 307.91876L214.5767 307.91876L214.5767 313.59064ZM210.84233 313.59064L213.49858 313.59064L213.49858 309.40314L213.35796 309.6375L210.84233 313.59064Z" fill-rule="nonzero"/><path fill="#757575" d="M256.58038 312.16876L257.01788 307.91876L261.39288 307.91876L261.39288 308.91876L257.93976 308.91876L257.67413 311.2469Q258.31476 310.8719 259.11163 310.8719Q260.26788 310.8719 260.95538 311.65314Q261.64288 312.41876 261.64288 313.73126Q261.64288 315.04376 260.92413 315.8094Q260.221 316.575 258.93976 316.575Q257.81476 316.575 257.096 315.95Q256.37726 315.3094 256.2835 314.2L257.29913 314.2Q257.4085 314.9344 257.83038 315.3094Q258.25226 315.6844 258.93976 315.6844Q259.68976 315.6844 260.12726 315.16876Q260.56476 314.65314 260.56476 313.7469Q260.56476 312.8875 260.096 312.3719Q259.62726 311.85626 258.846 311.85626Q258.14288 311.85626 257.73663 312.15314L257.45538 312.3875L256.58038 312.16876Z" fill-rule="nonzero"/><path fill="#757575" d="M306.42783 307.91876L306.42783 308.825L306.2247 308.825Q304.95908 308.85626 304.20908 309.59064Q303.45908 310.3094 303.33408 311.6219Q304.02158 310.85626 305.17783 310.85626Q306.2872 310.85626 306.95908 311.6375Q307.63095 312.41876 307.63095 313.66876Q307.63095 314.98126 306.9122 315.77814Q306.19345 316.575 304.9747 316.575Q303.75595 316.575 302.99033 315.6375Q302.24033 314.6844 302.24033 313.2L302.24033 312.79376Q302.24033 310.4344 303.24033 309.1844Q304.24033 307.9344 306.2247 307.91876L306.42783 307.91876ZM305.00595 311.7625Q304.44345 311.7625 303.9747 312.09064Q303.50595 312.41876 303.31845 312.9344L303.31845 313.325Q303.31845 314.3875 303.7872 315.02814Q304.27158 315.66876 304.9747 315.66876Q305.70908 315.66876 306.13095 315.1375Q306.55283 314.59064 306.55283 313.71564Q306.55283 312.84064 306.13095 312.3094Q305.70908 311.7625 305.00595 311.7625Z" fill-rule="nonzero"/><path fill="#757575" d="M353.75967 308.52814L350.22842 316.45L349.0878 316.45L352.60342 308.8094L347.99405 308.8094L347.99405 307.91876L353.75967 307.91876L353.75967 308.52814Z" fill-rule="nonzero"/><path fill="#757575" d="M399.51337 310.1375Q399.51337 310.77814 399.16962 311.27814Q398.82587 311.77814 398.26337 312.0594Q398.91962 312.34064 399.31024 312.90314Q399.70087 313.45 399.70087 314.15314Q399.70087 315.2469 398.95087 315.91876Q398.2165 316.575 396.99774 316.575Q395.76337 316.575 395.01337 315.91876Q394.279 315.2469 394.279 314.15314Q394.279 313.45 394.654 312.90314Q395.029 312.34064 395.70087 312.0594Q395.13837 311.77814 394.81024 311.27814Q394.48212 310.77814 394.48212 310.1375Q394.48212 309.0594 395.16962 308.4344Q395.85712 307.79376 396.99774 307.79376Q398.12274 307.79376 398.81024 308.4344Q399.51337 309.0594 399.51337 310.1375ZM398.62274 314.1219Q398.62274 313.40314 398.16962 312.96564Q397.7165 312.5125 396.98212 312.5125Q396.24774 312.5125 395.79462 312.96564Q395.35712 313.40314 395.35712 314.1375Q395.35712 314.85626 395.79462 315.27814Q396.23212 315.6844 396.99774 315.6844Q397.74774 315.6844 398.18524 315.2625Q398.62274 314.84064 398.62274 314.1219ZM396.99774 308.6844Q396.35712 308.6844 395.95087 309.09064Q395.56024 309.48126 395.56024 310.16876Q395.56024 310.8094 395.95087 311.21564Q396.3415 311.6219 396.98212 311.6219Q397.63837 311.6219 398.029 311.21564Q398.41962 310.8094 398.41962 310.16876Q398.41962 309.5125 398.01337 309.10626Q397.60712 308.6844 396.99774 308.6844Z" fill-rule="nonzero"/><path fill="#757575" d="M444.56393 312.7Q444.2358 313.10626 443.75143 313.35626Q443.28268 313.59064 442.72018 313.59064Q441.9858 313.59064 441.43893 313.23126Q440.89206 312.8719 440.59518 312.21564Q440.2983 311.54376 440.2983 310.7469Q440.2983 309.90314 440.6108 309.21564Q440.93893 308.52814 441.53268 308.16876Q442.14206 307.79376 442.93893 307.79376Q444.20456 307.79376 444.9233 308.7469Q445.65768 309.7 445.65768 311.325L445.65768 311.6375Q445.65768 314.1375 444.6733 315.27814Q443.68893 316.41876 441.70456 316.45L441.4858 316.45L441.4858 315.54376L441.72018 315.54376Q443.06393 315.5125 443.78268 314.84064Q444.50143 314.16876 444.56393 312.7ZM442.89206 312.7Q443.43893 312.7 443.89206 312.3719Q444.3608 312.02814 444.57956 311.54376L444.57956 311.10626Q444.57956 310.04376 444.1108 309.3719Q443.64206 308.7 442.93893 308.7Q442.22018 308.7 441.78268 309.2469Q441.3608 309.79376 441.3608 310.7Q441.3608 311.575 441.76706 312.1375Q442.18893 312.7 442.89206 312.7Z" fill-rule="nonzero"/><path fill="#757575" d="M486.552 316.45L485.47388 316.45L485.47388 309.23126L483.28638 310.02814L483.28638 309.04376L486.39575 307.8719L486.552 307.8719L486.552 316.45ZM495.34888 312.8094Q495.34888 314.71564 494.69263 315.65314Q494.052 316.575 492.66138 316.575Q491.302 316.575 490.64575 315.66876Q489.9895 314.7625 489.95825 312.95L489.95825 311.5125Q489.95825 309.6219 490.59888 308.71564Q491.25513 307.79376 492.64575 307.79376Q494.02075 307.79376 494.677 308.6844Q495.33325 309.5594 495.34888 311.40314L495.34888 312.8094ZM494.25513 311.325Q494.25513 309.95 493.8645 309.325Q493.4895 308.6844 492.64575 308.6844Q491.81763 308.6844 491.427 309.325Q491.052 309.95 491.052 311.2469L491.052 312.98126Q491.052 314.35626 491.44263 315.02814Q491.84888 315.6844 492.66138 315.6844Q493.45825 315.6844 493.84888 315.0594Q494.2395 314.4344 494.25513 313.10626L494.25513 311.325Z" fill-rule="nonzero"/><path fill="#757575" d="M532.6338 316.45L531.55566 316.45L531.55566 309.23126L529.36816 310.02814L529.36816 309.04376L532.47754 307.8719L532.6338 307.8719L532.6338 316.45ZM539.6338 316.45L538.55566 316.45L538.55566 309.23126L536.36816 310.02814L536.36816 309.04376L539.47754 307.8719L539.6338 307.8719L539.6338 316.45Z" fill-rule="nonzero"/><path fill="#757575" d="M578.71564 316.45L577.6375 316.45L577.6375 309.23126L575.45 310.02814L575.45 309.04376L578.5594 307.8719L578.71564 307.8719L578.71564 316.45ZM587.7469 316.45L582.15314 316.45L582.15314 315.66876L585.10626 312.3875Q585.7625 311.6375 586.0125 311.1844Q586.2625 310.71564 586.2625 310.21564Q586.2625 309.54376 585.85626 309.1219Q585.46564 308.6844 584.77814 308.6844Q583.98126 308.6844 583.52814 309.15314Q583.075 309.60626 583.075 310.4344L581.9969 310.4344Q581.9969 309.2469 582.7469 308.52814Q583.5125 307.79376 584.77814 307.79376Q585.98126 307.79376 586.66876 308.41876Q587.35626 309.04376 587.35626 310.09064Q587.35626 311.34064 585.7469 313.09064L583.46564 315.5594L587.7469 315.5594L587.7469 316.45Z" fill-rule="nonzero"/><path stroke="#4285f4" stroke-width="4.0" stroke-linecap="butt" d="M244.0 62.416668L256.0 62.416668" fill-rule="nonzero"/><path fill="#757575" d="M270.29688 66.916664L264.70312 66.916664L264.70312 66.135414L267.65625 62.854164Q268.3125 62.104164 268.5625 61.65104Q268.8125 61.18229 268.8125 60.68229Q268.8125 60.010414 268.40625 59.58854Q268.01562 59.15104 267.32812 59.15104Q266.53125 59.15104 266.07812 59.61979Q265.625 60.072914 265.625 60.90104L264.54688 60.90104Q264.54688 59.71354 265.29688 58.99479Q266.0625 58.260414 267.32812 58.260414Q268.53125 58.260414 269.21875 58.885414Q269.90625 59.510414 269.90625 60.55729Q269.90625 61.80729 268.29688 63.55729L266.01562 66.02604L270.29688 66.02604L270.29688 66.916664ZM277.0625 63.27604Q277.0625 65.18229 276.40625 66.11979Q275.76562 67.041664 274.375 67.041664Q273.01562 67.041664 272.35938 66.135414Q271.70312 65.229164 271.67188 63.416664L271.67188 61.979164Q271.67188 60.08854 272.3125 59.18229Q272.96875 58.260414 274.35938 58.260414Q275.73438 58.260414 276.39062 59.15104Q277.04688 60.02604 277.0625 61.86979L277.0625 63.27604ZM275.96875 61.791664Q275.96875 60.416664 275.57812 59.791664Q275.20312 59.15104 274.35938 59.15104Q273.53125 59.15104 273.14062 59.791664Q272.76562 60.416664 272.76562 61.71354L272.76562 63.447914Q272.76562 64.822914 273.15625 65.49479Q273.5625 66.15104 274.375 66.15104Q275.17188 66.15104 275.5625 65.52604Q275.95312 64.90104 275.96875 63.572914L275.96875 61.791664ZM284.29688 66.916664L278.70312 66.916664L278.70312 66.135414L281.65625 62.854164Q282.3125 62.104164 282.5625 61.65104Q282.8125 61.18229 282.8125 60.68229Q282.8125 60.010414 282.40625 59.58854Q282.01562 59.15104 281.32812 59.15104Q280.53125 59.15104 280.07812 59.61979Q279.625 60.072914 279.625 60.90104L278.54688 60.90104Q278.54688 59.71354 279.29688 58.99479Q280.0625 58.260414 281.32812 58.260414Q282.53125 58.260414 283.21875 58.885414Q283.90625 59.510414 283.90625 60.55729Q283.90625 61.80729 282.29688 63.55729L280.01562 66.02604L284.29688 66.02604L284.29688 66.916664ZM291.29688 66.916664L285.70312 66.916664L285.70312 66.135414L288.65625 62.854164Q289.3125 62.104164 289.5625 61.65104Q289.8125 61.18229 289.8125 60.68229Q289.8125 60.010414 289.40625 59.58854Q289.01562 59.15104 288.32812 59.15104Q287.53125 59.15104 287.07812 59.61979Q286.625 60.072914 286.625 60.90104L285.54688 60.90104Q285.54688 59.71354 286.29688 58.99479Q287.0625 58.260414 288.32812 58.260414Q289.53125 58.260414 290.21875 58.885414Q290.90625 59.510414 290.90625 60.55729Q290.90625 61.80729 289.29688 63.55729L287.01562 66.02604L291.29688 66.02604L291.29688 66.916664Z" fill-rule="nonzero"/><path stroke="#db4437" stroke-width="4.0" stroke-linecap="butt" d="M308.0 62.416668L320.0 62.416668" fill-rule="nonzero"/><path fill="#757575" d="M334.29688 66.916664L328.70312 66.916664L328.70312 66.135414L331.65625 62.854164Q332.3125 62.104164 332.5625 61.65104Q332.8125 61.18229 332.8125 60.68229Q332.8125 60.010414 332.40625 59.58854Q332.01562 59.15104 331.32812 59.15104Q330.53125 59.15104 330.07812 59.61979Q329.625 60.072914 329.625 60.90104L328.54688 60.90104Q328.54688 59.71354 329.29688 58.99479Q330.0625 58.260414 331.32812 58.260414Q332.53125 58.260414 333.21875 58.885414Q333.90625 59.510414 333.90625 60.55729Q333.90625 61.80729 332.29688 63.55729L330.01562 66.02604L334.29688 66.02604L334.29688 66.916664ZM341.0625 63.27604Q341.0625 65.18229 340.40625 66.11979Q339.76562 67.041664 338.375 67.041664Q337.01562 67.041664 336.35938 66.135414Q335.70312 65.229164 335.67188 63.416664L335.67188 61.979164Q335.67188 60.08854 336.3125 59.18229Q336.96875 58.260414 338.35938 58.260414Q339.73438 58.260414 340.39062 59.15104Q341.04688 60.02604 341.0625 61.86979L341.0625 63.27604ZM339.96875 61.791664Q339.96875 60.416664 339.57812 59.791664Q339.20312 59.15104 338.35938 59.15104Q337.53125 59.15104 337.14062 59.791664Q336.76562 60.416664 336.76562 61.71354L336.76562 63.447914Q336.76562 64.822914 337.15625 65.49479Q337.5625 66.15104 338.375 66.15104Q339.17188 66.15104 339.5625 65.52604Q339.95312 64.90104 339.96875 63.572914L339.96875 61.791664ZM348.29688 66.916664L342.70312 66.916664L342.70312 66.135414L345.65625 62.854164Q346.3125 62.104164 346.5625 61.65104Q346.8125 61.18229 346.8125 60.68229Q346.8125 60.010414 346.40625 59.58854Q346.01562 59.15104 345.32812 59.15104Q344.53125 59.15104 344.07812 59.61979Q343.625 60.072914 343.625 60.90104L342.54688 60.90104Q342.54688 59.71354 343.29688 58.99479Q344.0625 58.260414 345.32812 58.260414Q346.53125 58.260414 347.21875 58.885414Q347.90625 59.510414 347.90625 60.55729Q347.90625 61.80729 346.29688 63.55729L344.01562 66.02604L348.29688 66.02604L348.29688 66.916664ZM351.28125 62.11979L352.09375 62.11979Q352.875 62.104164 353.3125 61.71354Q353.75 61.322914 353.75 60.65104Q353.75 59.15104 352.25 59.15104Q351.54688 59.15104 351.125 59.55729Q350.71875 59.96354 350.71875 60.61979L349.625 60.61979Q349.625 59.604164 350.35938 58.93229Q351.10938 58.260414 352.25 58.260414Q353.45312 58.260414 354.14062 58.90104Q354.82812 59.541664 354.82812 60.68229Q354.82812 61.24479 354.46875 61.760414Q354.10938 62.27604 353.48438 62.541664Q354.1875 62.760414 354.5625 63.27604Q354.95312 63.791664 354.95312 64.541664Q354.95312 65.68229 354.20312 66.36979Q353.45312 67.041664 352.25 67.041664Q351.0625 67.041664 350.29688 66.385414Q349.54688 65.729164 349.54688 64.666664L350.64062 64.666664Q350.64062 65.33854 351.07812 65.74479Q351.51562 66.15104 352.26562 66.15104Q353.04688 66.15104 353.45312 65.74479Q353.875 65.322914 353.875 64.55729Q353.875 63.822914 353.42188 63.43229Q352.96875 63.02604 352.09375 63.010414L351.28125 63.010414L351.28125 62.11979Z" fill-rule="nonzero"/><path fill="#757575" d="M132.03125 31.9875L132.03125 37.55L130.15625 37.55L130.15625 23.33125L135.39062 23.33125Q137.73438 23.33125 139.04688 24.51875Q140.375 25.70625 140.375 27.675Q140.375 29.753124 139.07812 30.878124Q137.78125 31.9875 135.375 31.9875L132.03125 31.9875ZM132.03125 30.45625L135.39062 30.45625Q136.90625 30.45625 137.70312 29.753124Q138.5 29.034374 138.5 27.690624Q138.5 26.425 137.70312 25.675Q136.90625 24.909374 135.5 24.878124L132.03125 24.878124L132.03125 30.45625ZM147.96875 28.596874Q147.5625 28.534374 147.09375 28.534374Q145.3125 28.534374 144.67188 30.05L144.67188 37.55L142.875 37.55L142.875 26.9875L144.625 26.9875L144.65625 28.20625Q145.54688 26.784374 147.17188 26.784374Q147.70312 26.784374 147.96875 26.925L147.96875 28.596874ZM149.39062 32.175Q149.39062 30.6125 150.0 29.378124Q150.60938 28.128124 151.6875 27.45625Q152.78125 26.784374 154.1875 26.784374Q156.34375 26.784374 157.67188 28.284374Q159.01562 29.76875 159.01562 32.253124L159.01562 32.378124Q159.01562 33.925 158.42188 35.159374Q157.82812 36.378124 156.71875 37.065624Q155.625 37.753124 154.20312 37.753124Q152.0625 37.753124 150.71875 36.253124Q149.39062 34.753124 149.39062 32.3L149.39062 32.175ZM151.20312 32.378124Q151.20312 34.14375 152.01562 35.20625Q152.84375 36.26875 154.20312 36.26875Q155.57812 36.26875 156.39062 35.190624Q157.20312 34.1125 157.20312 32.175Q157.20312 30.425 156.375 29.346874Q155.54688 28.26875 154.1875 28.26875Q152.84375 28.26875 152.01562 29.33125Q151.20312 30.39375 151.20312 32.378124ZM160.42188 32.175Q160.42188 29.753124 161.57812 28.26875Q162.73438 26.784374 164.59375 26.784374Q166.45312 26.784374 167.53125 28.05L167.53125 22.55L169.34375 22.55L169.34375 37.55L167.6875 37.55L167.59375 36.409374Q166.51562 37.753124 164.57812 37.753124Q162.75 37.753124 161.57812 36.253124Q160.42188 34.7375 160.42188 32.315624L160.42188 32.175ZM162.23438 32.378124Q162.23438 34.175 162.96875 35.190624Q163.71875 36.20625 165.03125 36.20625Q166.75 36.20625 167.53125 34.675L167.53125 29.815624Q166.73438 28.315624 165.04688 28.315624Q163.71875 28.315624 162.96875 29.346874Q162.23438 30.378124 162.23438 32.378124ZM178.39062 36.503124Q177.34375 37.753124 175.29688 37.753124Q173.60938 37.753124 172.71875 36.76875Q171.84375 35.784374 171.82812 33.8625L171.82812 26.9875L173.64062 26.9875L173.64062 33.815624Q173.64062 36.20625 175.59375 36.20625Q177.65625 36.20625 178.34375 34.675L178.34375 26.9875L180.15625 26.9875L180.15625 37.55L178.4375 37.55L178.39062 36.503124ZM187.10938 36.26875Q188.07812 36.26875 188.79688 35.690624Q189.51562 35.096874 189.59375 34.221874L191.3125 34.221874Q191.25 35.128124 190.67188 35.95625Q190.10938 36.76875 189.14062 37.26875Q188.1875 37.753124 187.10938 37.753124Q184.95312 37.753124 183.67188 36.315624Q182.40625 34.8625 182.40625 32.3625L182.40625 32.065624Q182.40625 30.51875 182.96875 29.315624Q183.53125 28.1125 184.59375 27.45625Q185.65625 26.784374 187.09375 26.784374Q188.875 26.784374 190.04688 27.846874Q191.23438 28.909374 191.3125 30.6125L189.59375 30.6125Q189.51562 29.596874 188.8125 28.940624Q188.125 28.26875 187.09375 28.26875Q185.71875 28.26875 184.95312 29.26875Q184.20312 30.253124 184.20312 32.128124L184.20312 32.471874Q184.20312 34.3 184.95312 35.284374Q185.70312 36.26875 187.10938 36.26875ZM195.3125 24.425L195.3125 26.9875L197.29688 26.9875L197.29688 28.378124L195.3125 28.378124L195.3125 34.925Q195.3125 35.565624 195.57812 35.89375Q195.84375 36.20625 196.48438 36.20625Q196.79688 36.20625 197.34375 36.08125L197.34375 37.55Q196.625 37.753124 195.95312 37.753124Q194.75 37.753124 194.125 37.01875Q193.51562 36.284374 193.51562 34.925L193.51562 28.378124L191.59375 28.378124L191.59375 26.9875L193.51562 26.9875L193.51562 24.425L195.3125 24.425ZM201.82812 37.55L200.03125 37.55L200.03125 26.9875L201.82812 26.9875L201.82812 37.55ZM199.875 24.175Q199.875 23.7375 200.14062 23.440624Q200.42188 23.128124 200.9375 23.128124Q201.46875 23.128124 201.73438 23.440624Q202.01562 23.7375 202.01562 24.175Q202.01562 24.6125 201.73438 24.909374Q201.46875 25.20625 200.9375 25.20625Q200.42188 25.20625 200.14062 24.909374Q199.875 24.6125 199.875 24.175ZM204.39062 32.175Q204.39062 30.6125 205.0 29.378124Q205.60938 28.128124 206.6875 27.45625Q207.78125 26.784374 209.1875 26.784374Q211.34375 26.784374 212.67188 28.284374Q214.01562 29.76875 214.01562 32.253124L214.01562 32.378124Q214.01562 33.925 213.42188 35.159374Q212.82812 36.378124 211.71875 37.065624Q210.625 37.753124 209.20312 37.753124Q207.0625 37.753124 205.71875 36.253124Q204.39062 34.753124 204.39062 32.3L204.39062 32.175ZM206.20312 32.378124Q206.20312 34.14375 207.01562 35.20625Q207.84375 36.26875 209.20312 36.26875Q210.57812 36.26875 211.39062 35.190624Q212.20312 34.1125 212.20312 32.175Q212.20312 30.425 211.375 29.346874Q210.54688 28.26875 209.1875 28.26875Q207.84375 28.26875 207.01562 29.33125Q206.20312 30.39375 206.20312 32.378124ZM217.57812 26.9875L217.64062 28.315624Q218.84375 26.784374 220.79688 26.784374Q224.15625 26.784374 224.17188 30.565624L224.17188 37.55L222.375 37.55L222.375 30.55Q222.35938 29.409374 221.84375 28.8625Q221.34375 28.315624 220.25 28.315624Q219.375 28.315624 218.70312 28.784374Q218.04688 29.253124 217.67188 30.01875L217.67188 37.55L215.875 37.55L215.875 26.9875L217.57812 26.9875ZM238.39062 36.503124Q237.34375 37.753124 235.29688 37.753124Q233.60938 37.753124 232.71875 36.76875Q231.84375 35.784374 231.82812 33.8625L231.82812 26.9875L233.64062 26.9875L233.64062 33.815624Q233.64062 36.20625 235.59375 36.20625Q237.65625 36.20625 238.34375 34.675L238.34375 26.9875L240.15625 26.9875L240.15625 37.55L238.4375 37.55L238.39062 36.503124ZM245.3125 24.425L245.3125 26.9875L247.29688 26.9875L247.29688 28.378124L245.3125 28.378124L245.3125 34.925Q245.3125 35.565624 245.57812 35.89375Q245.84375 36.20625 246.48438 36.20625Q246.79688 36.20625 247.34375 36.08125L247.34375 37.55Q246.625 37.753124 245.95312 37.753124Q244.75 37.753124 244.125 37.01875Q243.51562 36.284374 243.51562 34.925L243.51562 28.378124L241.59375 28.378124L241.59375 26.9875L243.51562 26.9875L243.51562 24.425L245.3125 24.425ZM251.82812 37.55L250.03125 37.55L250.03125 26.9875L251.82812 26.9875L251.82812 37.55ZM249.875 24.175Q249.875 23.7375 250.14062 23.440624Q250.42188 23.128124 250.9375 23.128124Q251.46875 23.128124 251.73438 23.440624Q252.01562 23.7375 252.01562 24.175Q252.01562 24.6125 251.73438 24.909374Q251.46875 25.20625 250.9375 25.20625Q250.42188 25.20625 250.14062 24.909374Q249.875 24.6125 249.875 24.175ZM256.82812 37.55L255.03125 37.55L255.03125 22.55L256.82812 22.55L256.82812 37.55ZM261.82812 37.55L260.03125 37.55L260.03125 26.9875L261.82812 26.9875L261.82812 37.55ZM259.875 24.175Q259.875 23.7375 260.14062 23.440624Q260.42188 23.128124 260.9375 23.128124Q261.46875 23.128124 261.73438 23.440624Q262.01562 23.7375 262.01562 24.175Q262.01562 24.6125 261.73438 24.909374Q261.46875 25.20625 260.9375 25.20625Q260.42188 25.20625 260.14062 24.909374Q259.875 24.6125 259.875 24.175ZM271.01562 34.753124Q271.01562 34.01875 270.46875 33.6125Q269.92188 33.20625 268.54688 32.909374Q267.17188 32.6125 266.35938 32.20625Q265.5625 31.8 265.17188 31.2375Q264.79688 30.659374 264.79688 29.878124Q264.79688 28.58125 265.89062 27.690624Q266.98438 26.784374 268.70312 26.784374Q270.5 26.784374 271.60938 27.721874Q272.73438 28.64375 272.73438 30.08125L270.90625 30.08125Q270.90625 29.346874 270.28125 28.815624Q269.65625 28.26875 268.70312 28.26875Q267.70312 28.26875 267.14062 28.70625Q266.59375 29.128124 266.59375 29.83125Q266.59375 30.471874 267.10938 30.815624Q267.625 31.14375 268.98438 31.45625Q270.34375 31.753124 271.17188 32.175Q272.01562 32.58125 272.42188 33.175Q272.82812 33.76875 272.82812 34.6125Q272.82812 36.034374 271.6875 36.89375Q270.5625 37.753124 268.75 37.753124Q267.48438 37.753124 266.5 37.3Q265.53125 36.846874 264.96875 36.05Q264.42188 35.2375 264.42188 34.3L266.23438 34.3Q266.28125 35.20625 266.95312 35.7375Q267.64062 36.26875 268.75 36.26875Q269.78125 36.26875 270.39062 35.8625Q271.01562 35.440624 271.01562 34.753124ZM279.25 37.753124Q277.10938 37.753124 275.75 36.346874Q274.40625 34.925 274.40625 32.565624L274.40625 32.221874Q274.40625 30.659374 275.0 29.425Q275.60938 28.190624 276.6875 27.4875Q277.76562 26.784374 279.03125 26.784374Q281.09375 26.784374 282.23438 28.14375Q283.375 29.503124 283.375 32.034374L283.375 32.784374L276.21875 32.784374Q276.25 34.346874 277.125 35.315624Q278.0 36.26875 279.34375 36.26875Q280.3125 36.26875 280.96875 35.878124Q281.64062 35.4875 282.14062 34.846874L283.23438 35.70625Q281.90625 37.753124 279.25 37.753124ZM279.03125 28.26875Q277.9375 28.26875 277.1875 29.065624Q276.45312 29.8625 276.28125 31.3L281.5625 31.3L281.5625 31.159374Q281.48438 29.784374 280.8125 29.034374Q280.15625 28.26875 279.03125 28.26875ZM279.92188 22.55L282.10938 22.55L279.48438 25.425L278.03125 25.425L279.92188 22.55ZM294.35938 35.096874L296.96875 26.9875L298.8125 26.9875L295.03125 37.55L293.65625 37.55L289.82812 26.9875L291.67188 26.9875L294.35938 35.096874ZM302.82812 37.55L301.03125 37.55L301.03125 26.9875L302.82812 26.9875L302.82812 37.55ZM300.875 24.175Q300.875 23.7375 301.14062 23.440624Q301.42188 23.128124 301.9375 23.128124Q302.46875 23.128124 302.73438 23.440624Q303.01562 23.7375 303.01562 24.175Q303.01562 24.6125 302.73438 24.909374Q302.46875 25.20625 301.9375 25.20625Q301.42188 25.20625 301.14062 24.909374Q300.875 24.6125 300.875 24.175ZM312.39062 37.55Q312.23438 37.2375 312.14062 36.440624Q310.875 37.753124 309.125 37.753124Q307.5625 37.753124 306.5625 36.8625Q305.5625 35.971874 305.5625 34.6125Q305.5625 32.971874 306.8125 32.065624Q308.07812 31.14375 310.34375 31.14375L312.10938 31.14375L312.10938 30.315624Q312.10938 29.3625 311.53125 28.8Q310.96875 28.2375 309.875 28.2375Q308.90625 28.2375 308.25 28.7375Q307.59375 29.221874 307.59375 29.909374L305.78125 29.909374Q305.78125 29.128124 306.34375 28.39375Q306.90625 27.64375 307.85938 27.221874Q308.82812 26.784374 309.98438 26.784374Q311.8125 26.784374 312.84375 27.70625Q313.875 28.6125 313.92188 30.221874L313.92188 35.08125Q313.92188 36.534374 314.28125 37.39375L314.28125 37.55L312.39062 37.55ZM309.39062 36.175Q310.25 36.175 311.0 35.7375Q311.76562 35.3 312.10938 34.596874L312.10938 32.425L310.6875 32.425Q307.375 32.425 307.375 34.3625Q307.375 35.221874 307.9375 35.70625Q308.5 36.175 309.39062 36.175ZM323.82812 37.55L322.03125 37.55L322.03125 22.55L323.82812 22.55L323.82812 37.55ZM331.25 37.753124Q329.10938 37.753124 327.75 36.346874Q326.40625 34.925 326.40625 32.565624L326.40625 32.221874Q326.40625 30.659374 327.0 29.425Q327.60938 28.190624 328.6875 27.4875Q329.76562 26.784374 331.03125 26.784374Q333.09375 26.784374 334.23438 28.14375Q335.375 29.503124 335.375 32.034374L335.375 32.784374L328.21875 32.784374Q328.25 34.346874 329.125 35.315624Q330.0 36.26875 331.34375 36.26875Q332.3125 36.26875 332.96875 35.878124Q333.64062 35.4875 334.14062 34.846874L335.23438 35.70625Q333.90625 37.753124 331.25 37.753124ZM331.03125 28.26875Q329.9375 28.26875 329.1875 29.065624Q328.45312 29.8625 328.28125 31.3L333.5625 31.3L333.5625 31.159374Q333.48438 29.784374 332.8125 29.034374Q332.15625 28.26875 331.03125 28.26875ZM347.96875 28.596874Q347.5625 28.534374 347.09375 28.534374Q345.3125 28.534374 344.67188 30.05L344.67188 37.55L342.875 37.55L342.875 26.9875L344.625 26.9875L344.65625 28.20625Q345.54688 26.784374 347.17188 26.784374Q347.70312 26.784374 347.96875 26.925L347.96875 28.596874ZM349.39062 32.175Q349.39062 30.6125 350.0 29.378124Q350.60938 28.128124 351.6875 27.45625Q352.78125 26.784374 354.1875 26.784374Q356.34375 26.784374 357.67188 28.284374Q359.01562 29.76875 359.01562 32.253124L359.01562 32.378124Q359.01562 33.925 358.42188 35.159374Q357.82812 36.378124 356.71875 37.065624Q355.625 37.753124 354.20312 37.753124Q352.0625 37.753124 350.71875 36.253124Q349.39062 34.753124 349.39062 32.3L349.39062 32.175ZM351.20312 32.378124Q351.20312 34.14375 352.01562 35.20625Q352.84375 36.26875 354.20312 36.26875Q355.57812 36.26875 356.39062 35.190624Q357.20312 34.1125 357.20312 32.175Q357.20312 30.425 356.375 29.346874Q355.54688 28.26875 354.1875 28.26875Q352.84375 28.26875 352.01562 29.33125Q351.20312 30.39375 351.20312 32.378124ZM367.39062 36.503124Q366.34375 37.753124 364.29688 37.753124Q362.60938 37.753124 361.71875 36.76875Q360.84375 35.784374 360.82812 33.8625L360.82812 26.9875L362.64062 26.9875L362.64062 33.815624Q362.64062 36.20625 364.59375 36.20625Q366.65625 36.20625 367.34375 34.675L367.34375 26.9875L369.15625 26.9875L369.15625 37.55L367.4375 37.55L367.39062 36.503124ZM374.3125 24.425L374.3125 26.9875L376.29688 26.9875L376.29688 28.378124L374.3125 28.378124L374.3125 34.925Q374.3125 35.565624 374.57812 35.89375Q374.84375 36.20625 375.48438 36.20625Q375.79688 36.20625 376.34375 36.08125L376.34375 37.55Q375.625 37.753124 374.95312 37.753124Q373.75 37.753124 373.125 37.01875Q372.51562 36.284374 372.51562 34.925L372.51562 28.378124L370.59375 28.378124L370.59375 26.9875L372.51562 26.9875L372.51562 24.425L374.3125 24.425ZM383.25 37.753124Q381.10938 37.753124 379.75 36.346874Q378.40625 34.925 378.40625 32.565624L378.40625 32.221874Q378.40625 30.659374 379.0 29.425Q379.60938 28.190624 380.6875 27.4875Q381.76562 26.784374 383.03125 26.784374Q385.09375 26.784374 386.23438 28.14375Q387.375 29.503124 387.375 32.034374L387.375 32.784374L380.21875 32.784374Q380.25 34.346874 381.125 35.315624Q382.0 36.26875 383.34375 36.26875Q384.3125 36.26875 384.96875 35.878124Q385.64062 35.4875 386.14062 34.846874L387.23438 35.70625Q385.90625 37.753124 383.25 37.753124ZM383.03125 28.26875Q381.9375 28.26875 381.1875 29.065624Q380.45312 29.8625 380.28125 31.3L385.5625 31.3L385.5625 31.159374Q385.48438 29.784374 384.8125 29.034374Q384.15625 28.26875 383.03125 28.26875ZM396.39062 36.503124Q395.34375 37.753124 393.29688 37.753124Q391.60938 37.753124 390.71875 36.76875Q389.84375 35.784374 389.82812 33.8625L389.82812 26.9875L391.64062 26.9875L391.64062 33.815624Q391.64062 36.20625 393.59375 36.20625Q395.65625 36.20625 396.34375 34.675L396.34375 26.9875L398.15625 26.9875L398.15625 37.55L396.4375 37.55L396.39062 36.503124ZM405.96875 28.596874Q405.5625 28.534374 405.09375 28.534374Q403.3125 28.534374 402.67188 30.05L402.67188 37.55L400.875 37.55L400.875 26.9875L402.625 26.9875L402.65625 28.20625Q403.54688 26.784374 405.17188 26.784374Q405.70312 26.784374 405.96875 26.925L405.96875 28.596874ZM419.01562 34.753124Q419.01562 34.01875 418.46875 33.6125Q417.92188 33.20625 416.54688 32.909374Q415.17188 32.6125 414.35938 32.20625Q413.5625 31.8 413.17188 31.2375Q412.79688 30.659374 412.79688 29.878124Q412.79688 28.58125 413.89062 27.690624Q414.98438 26.784374 416.70312 26.784374Q418.5 26.784374 419.60938 27.721874Q420.73438 28.64375 420.73438 30.08125L418.90625 30.08125Q418.90625 29.346874 418.28125 28.815624Q417.65625 28.26875 416.70312 28.26875Q415.70312 28.26875 415.14062 28.70625Q414.59375 29.128124 414.59375 29.83125Q414.59375 30.471874 415.10938 30.815624Q415.625 31.14375 416.98438 31.45625Q418.34375 31.753124 419.17188 32.175Q420.01562 32.58125 420.42188 33.175Q420.82812 33.76875 420.82812 34.6125Q420.82812 36.034374 419.6875 36.89375Q418.5625 37.753124 416.75 37.753124Q415.48438 37.753124 414.5 37.3Q413.53125 36.846874 412.96875 36.05Q412.42188 35.2375 412.42188 34.3L414.23438 34.3Q414.28125 35.20625 414.95312 35.7375Q415.64062 36.26875 416.75 36.26875Q417.78125 36.26875 418.39062 35.8625Q419.01562 35.440624 419.01562 34.753124ZM422.39062 32.175Q422.39062 30.6125 423.0 29.378124Q423.60938 28.128124 424.6875 27.45625Q425.78125 26.784374 427.1875 26.784374Q429.34375 26.784374 430.67188 28.284374Q432.01562 29.76875 432.01562 32.253124L432.01562 32.378124Q432.01562 33.925 431.42188 35.159374Q430.82812 36.378124 429.71875 37.065624Q428.625 37.753124 427.20312 37.753124Q425.0625 37.753124 423.71875 36.253124Q422.39062 34.753124 422.39062 32.3L422.39062 32.175ZM424.20312 32.378124Q424.20312 34.14375 425.01562 35.20625Q425.84375 36.26875 427.20312 36.26875Q428.57812 36.26875 429.39062 35.190624Q430.20312 34.1125 430.20312 32.175Q430.20312 30.425 429.375 29.346874Q428.54688 28.26875 427.1875 28.26875Q425.84375 28.26875 425.01562 29.33125Q424.20312 30.39375 424.20312 32.378124ZM435.82812 37.55L434.03125 37.55L434.03125 22.55L435.82812 22.55L435.82812 37.55ZM445.39062 37.55Q445.23438 37.2375 445.14062 36.440624Q443.875 37.753124 442.125 37.753124Q440.5625 37.753124 439.5625 36.8625Q438.5625 35.971874 438.5625 34.6125Q438.5625 32.971874 439.8125 32.065624Q441.07812 31.14375 443.34375 31.14375L445.10938 31.14375L445.10938 30.315624Q445.10938 29.3625 444.53125 28.8Q443.96875 28.2375 442.875 28.2375Q441.90625 28.2375 441.25 28.7375Q440.59375 29.221874 440.59375 29.909374L438.78125 29.909374Q438.78125 29.128124 439.34375 28.39375Q439.90625 27.64375 440.85938 27.221874Q441.82812 26.784374 442.98438 26.784374Q444.8125 26.784374 445.84375 27.70625Q446.875 28.6125 446.92188 30.221874L446.92188 35.08125Q446.92188 36.534374 447.28125 37.39375L447.28125 37.55L445.39062 37.55ZM442.39062 36.175Q443.25 36.175 444.0 35.7375Q444.76562 35.3 445.10938 34.596874L445.10938 32.425L443.6875 32.425Q440.375 32.425 440.375 34.3625Q440.375 35.221874 440.9375 35.70625Q441.5 36.175 442.39062 36.175ZM451.82812 37.55L450.03125 37.55L450.03125 26.9875L451.82812 26.9875L451.82812 37.55ZM449.875 24.175Q449.875 23.7375 450.14062 23.440624Q450.42188 23.128124 450.9375 23.128124Q451.46875 23.128124 451.73438 23.440624Q452.01562 23.7375 452.01562 24.175Q452.01562 24.6125 451.73438 24.909374Q451.46875 25.20625 450.9375 25.20625Q450.42188 25.20625 450.14062 24.909374Q449.875 24.6125 449.875 24.175ZM459.96875 28.596874Q459.5625 28.534374 459.09375 28.534374Q457.3125 28.534374 456.67188 30.05L456.67188 37.55L454.875 37.55L454.875 26.9875L456.625 26.9875L456.65625 28.20625Q457.54688 26.784374 459.17188 26.784374Q459.70312 26.784374 459.96875 26.925L459.96875 28.596874ZM466.25 37.753124Q464.10938 37.753124 462.75 36.346874Q461.40625 34.925 461.40625 32.565624L461.40625 32.221874Q461.40625 30.659374 462.0 29.425Q462.60938 28.190624 463.6875 27.4875Q464.76562 26.784374 466.03125 26.784374Q468.09375 26.784374 469.23438 28.14375Q470.375 29.503124 470.375 32.034374L470.375 32.784374L463.21875 32.784374Q463.25 34.346874 464.125 35.315624Q465.0 36.26875 466.34375 36.26875Q467.3125 36.26875 467.96875 35.878124Q468.64062 35.4875 469.14062 34.846874L470.23438 35.70625Q468.90625 37.753124 466.25 37.753124ZM466.03125 28.26875Q464.9375 28.26875 464.1875 29.065624Q463.45312 29.8625 463.28125 31.3L468.5625 31.3L468.5625 31.159374Q468.48438 29.784374 467.8125 29.034374Q467.15625 28.26875 466.03125 28.26875Z" fill-rule="nonzero"/></svg>