<svg version="1.1" viewBox="0.0 0.0 600.0 371.0" width="813" height="360px" xmlns:xlink="http://www.w3.org/1999/xlink" xmlns="http://www.w3.org/2000/svg">
    <defs>
        <filter id="skyline_chart_div_f1" width="300%" height="300%" filterUnits="userSpaceOnUse">
            <feOffset result="offOut" in="SourceAlpha" dx="5" dy="5"></feOffset>
            <feGaussianBlur result="blurOut" in="offOut" stdDeviation="3"></feGaussianBlur>
            <feBlend in="SourceGraphic" in2="blurOut" mode="normal"></feBlend>
        </filter>
        <marker id="skyline_chart_div_jxgBoard1L13TriangleStart" stroke="black" stroke-opacity="1" fill="black" fill-opacity="1" orient="auto" markerUnits="strokeWidth" viewBox="-1 -1 12 12" markerHeight="10" markerWidth="10" refY="5" refX="8" stroke-width="1" style="position: absolute;">
            <path d="M 0 0 L 10 5 L 0 10 z"></path>
        </marker>
        <marker id="skyline_chart_div_jxgBoard1L26TriangleStart" stroke="black" stroke-opacity="1" fill="black" fill-opacity="1" orient="auto" markerUnits="strokeWidth" viewBox="-1 -1 12 12" markerHeight="10" markerWidth="10" refY="5" refX="8" stroke-width="1" style="position: absolute;">
            <path d="M 0 0 L 10 5 L 0 10 z"></path>
        </marker>
    </defs>
    <g>
        <ellipse id="skyline_chart_div_jxgBoard1P11" stroke-width="2px" stroke="#0000ff" stroke-opacity="1" fill="red" fill-opacity="1" cx="50.18518518518519" cy="290.7692307692308" rx="4" ry="4" display="none" style="position: absolute; visibility: hidden;"></ellipse>
        <ellipse id="skyline_chart_div_jxgBoard1P12" stroke-width="2px" stroke="#0000ff" stroke-opacity="1" fill="red" fill-opacity="1" cx="813.0000000000001" cy="290.7692307692308" rx="4" ry="4" display="none" style="position: absolute; visibility: hidden;"></ellipse>
        <path id="skyline_chart_div_jxgBoard1L13_ticks_1" stroke-linecap="butt" stroke-linejoin="round" style="position: absolute;" stroke="black" stroke-opacity="1" stroke-width="1" d="M 411.5185185185186 285.7692307692308 L 411.5185185185186 295.7692307692308 M 393.45185185185187 288.7692307692308 L 393.45185185185187 292.7692307692308 M 429.5851851851852 288.7692307692308 L 429.5851851851852 292.7692307692308 M 375.38518518518526 288.7692307692308 L 375.38518518518526 292.7692307692308 M 447.6518518518519 288.7692307692308 L 447.6518518518519 292.7692307692308 M 357.31851851851854 288.7692307692308 L 357.31851851851854 292.7692307692308 M 465.7185185185185 288.7692307692308 L 465.7185185185185 292.7692307692308 M 339.2518518518518 288.7692307692308 L 339.2518518518518 292.7692307692308 M 483.78518518518524 288.7692307692308 L 483.78518518518524 292.7692307692308 M 321.1851851851852 285.7692307692308 L 321.1851851851852 295.7692307692308 M 501.85185185185185 285.7692307692308 L 501.85185185185185 295.7692307692308 M 303.1185185185185 288.7692307692308 L 303.1185185185185 292.7692307692308 M 519.9185185185186 288.7692307692308 L 519.9185185185186 292.7692307692308 M 285.0518518518519 288.7692307692308 L 285.0518518518519 292.7692307692308 M 537.9851851851852 288.7692307692308 L 537.9851851851852 292.7692307692308 M 266.9851851851852 288.7692307692308 L 266.9851851851852 292.7692307692308 M 556.0518518518519 288.7692307692308 L 556.0518518518519 292.7692307692308 M 248.91851851851854 288.7692307692308 L 248.91851851851854 292.7692307692308 M 574.1185185185186 288.7692307692308 L 574.1185185185186 292.7692307692308 M 230.85185185185188 285.7692307692308 L 230.85185185185188 295.7692307692308 M 592.1851851851852 285.7692307692308 L 592.1851851851852 295.7692307692308 M 212.7851851851852 288.7692307692308 L 212.7851851851852 292.7692307692308 M 610.2518518518519 288.7692307692308 L 610.2518518518519 292.7692307692308 M 194.71851851851852 288.7692307692308 L 194.71851851851852 292.7692307692308 M 628.3185185185185 288.7692307692308 L 628.3185185185185 292.7692307692308 M 176.65185185185186 288.7692307692308 L 176.65185185185186 292.7692307692308 M 646.3851851851853 288.7692307692308 L 646.3851851851853 292.7692307692308 M 158.5851851851852 288.7692307692308 L 158.5851851851852 292.7692307692308 M 664.4518518518519 288.7692307692308 L 664.4518518518519 292.7692307692308 M 140.51851851851853 285.7692307692308 L 140.51851851851853 295.7692307692308 M 682.5185185185186 285.7692307692308 L 682.5185185185186 295.7692307692308 M 122.45185185185186 288.7692307692308 L 122.45185185185186 292.7692307692308 M 700.5851851851853 288.7692307692308 L 700.5851851851853 292.7692307692308 M 104.3851851851852 288.7692307692308 L 104.3851851851852 292.7692307692308 M 718.6518518518519 288.7692307692308 L 718.6518518518519 292.7692307692308 M 86.31851851851852 288.7692307692308 L 86.31851851851852 292.7692307692308 M 736.7185185185186 288.7692307692308 L 736.7185185185186 292.7692307692308 M 68.25185185185185 288.7692307692308 L 68.25185185185185 292.7692307692308 M 754.7851851851852 288.7692307692308 L 754.7851851851852 292.7692307692308 M 772.851851851852 285.7692307692308 L 772.851851851852 295.7692307692308 M 790.9185185185186 288.7692307692308 L 790.9185185185186 292.7692307692308 M 808.9851851851853 288.7692307692308 L 808.9851851851853 292.7692307692308 "></path>
        <ellipse id="skyline_chart_div_jxgBoard1P24" stroke-width="2px" stroke="#0000ff" stroke-opacity="1" fill="red" fill-opacity="1" cx="50.18518518518519" cy="290.7692307692308" rx="4" ry="4" display="none" style="position: absolute; visibility: hidden;"></ellipse>
        <ellipse id="skyline_chart_div_jxgBoard1P25" stroke-width="2px" stroke="#0000ff" stroke-opacity="1" fill="red" fill-opacity="1" cx="50.18518518518519" cy="41.53846153846155" rx="4" ry="4" display="none" style="position: absolute; visibility: hidden;"></ellipse>
        <path id="skyline_chart_div_jxgBoard1L26_ticks_1" stroke-linecap="butt" stroke-linejoin="round" style="position: absolute;" stroke="black" stroke-opacity="1" stroke-width="1" d="M 45.18518518518519 180 L 55.18518518518519 180 M 48.18518518518519 185.53846153846155 L 52.18518518518519 185.53846153846155 M 48.18518518518519 174.46153846153845 L 52.18518518518519 174.46153846153845 M 48.18518518518519 191.0769230769231 L 52.18518518518519 191.0769230769231 M 48.18518518518519 168.92307692307693 L 52.18518518518519 168.92307692307693 M 48.18518518518519 196.61538461538464 L 52.18518518518519 196.61538461538464 M 48.18518518518519 163.3846153846154 L 52.18518518518519 163.3846153846154 M 48.18518518518519 202.15384615384616 L 52.18518518518519 202.15384615384616 M 48.18518518518519 157.84615384615387 L 52.18518518518519 157.84615384615387 M 45.18518518518519 207.69230769230768 L 55.18518518518519 207.69230769230768 M 45.18518518518519 152.30769230769232 L 55.18518518518519 152.30769230769232 M 48.18518518518519 213.23076923076923 L 52.18518518518519 213.23076923076923 M 48.18518518518519 146.76923076923077 L 52.18518518518519 146.76923076923077 M 48.18518518518519 218.76923076923077 L 52.18518518518519 218.76923076923077 M 48.18518518518519 141.23076923076923 L 52.18518518518519 141.23076923076923 M 48.18518518518519 224.30769230769232 L 52.18518518518519 224.30769230769232 M 48.18518518518519 135.6923076923077 L 52.18518518518519 135.6923076923077 M 48.18518518518519 229.84615384615387 L 52.18518518518519 229.84615384615387 M 48.18518518518519 130.15384615384616 L 52.18518518518519 130.15384615384616 M 45.18518518518519 235.3846153846154 L 55.18518518518519 235.3846153846154 M 45.18518518518519 124.61538461538461 L 55.18518518518519 124.61538461538461 M 48.18518518518519 240.92307692307693 L 52.18518518518519 240.92307692307693 M 48.18518518518519 119.0769230769231 L 52.18518518518519 119.0769230769231 M 48.18518518518519 246.46153846153845 L 52.18518518518519 246.46153846153845 M 48.18518518518519 113.53846153846155 L 52.18518518518519 113.53846153846155 M 48.18518518518519 252 L 52.18518518518519 252 M 48.18518518518519 108 L 52.18518518518519 108 M 48.18518518518519 257.53846153846155 L 52.18518518518519 257.53846153846155 M 48.18518518518519 102.46153846153848 L 52.18518518518519 102.46153846153848 M 45.18518518518519 263.0769230769231 L 55.18518518518519 263.0769230769231 M 45.18518518518519 96.92307692307693 L 55.18518518518519 96.92307692307693 M 48.18518518518519 268.61538461538464 L 52.18518518518519 268.61538461538464 M 48.18518518518519 91.38461538461539 L 52.18518518518519 91.38461538461539 M 48.18518518518519 274.1538461538462 L 52.18518518518519 274.1538461538462 M 48.18518518518519 85.84615384615387 L 52.18518518518519 85.84615384615387 M 48.18518518518519 279.6923076923077 L 52.18518518518519 279.6923076923077 M 48.18518518518519 80.30769230769232 L 52.18518518518519 80.30769230769232 M 48.18518518518519 285.2307692307692 L 52.18518518518519 285.2307692307692 M 48.18518518518519 74.76923076923077 L 52.18518518518519 74.76923076923077 M 45.18518518518519 69.23076923076923 L 55.18518518518519 69.23076923076923 M 48.18518518518519 63.69230769230771 L 52.18518518518519 63.69230769230771 M 48.18518518518519 58.15384615384616 L 52.18518518518519 58.15384615384616 M 48.18518518518519 52.61538461538461 L 52.18518518518519 52.61538461538461 M 48.18518518518519 47.076923076923094 L 52.18518518518519 47.076923076923094 "></path>
    </g>
    <g></g>
    <g></g>
    <g></g>
    <g></g>
    <g>
        <path id="skyline_chart_div_jxgBoard1G2" stroke-linecap="butt" stroke-linejoin="round" stroke-width="1px" stroke="#FF6600" stroke-opacity="1" fill="#FED0B2" fill-opacity="1" d=" M 592.1851851851852 69.23076923076923 L 602.2222222222223 69.23076923076923 L 602.2222222222223 83.0769230769231 L 592.1851851851852 83.0769230769231 L 592.1851851851852 69.23076923076923" style="position: absolute;"></path>
        <path id="skyline_chart_div_jxgBoard1G6" stroke-linecap="butt" stroke-linejoin="round" stroke-width="1px" stroke="#efb11e" stroke-opacity="1" fill="#efb11e" fill-opacity="0.25" d=" M 592.1851851851852 96.92307692307693 L 602.2222222222223 96.92307692307693 L 602.2222222222223 110.76923076923077 L 592.1851851851852 110.76923076923077 L 592.1851851851852 96.92307692307693" style="position: absolute;"></path>
        <path id="skyline_chart_div_jxgBoard1G8" stroke-linecap="butt" stroke-linejoin="round" stroke-width="0px" stroke="#0000ff" stroke-opacity="1" fill="#FED0B2" fill-opacity="0.65" d=" M 592.1851851851852 124.61538461538461 L 602.2222222222223 124.61538461538461 L 602.2222222222223 138.46153846153848 L 592.1851851851852 138.46153846153848 L 592.1851851851852 124.61538461538461" style="position: absolute;"></path>
        <path id="skyline_chart_div_jxgBoard1G9" stroke-linecap="butt" stroke-linejoin="round" stroke-width="1px" stroke="#efb11e" stroke-opacity="1" fill="#efb11e" fill-opacity="0.25" d=" M 592.1851851851852 124.61538461538461 L 602.2222222222223 124.61538461538461 L 602.2222222222223 138.46153846153848 L 592.1851851851852 138.46153846153848 L 592.1851851851852 124.61538461538461" style="position: absolute;"></path>
        <path id="skyline_chart_div_jxgBoard1G41" stroke-linecap="butt" stroke-linejoin="round" stroke-width="1px" stroke="#efb11e" stroke-opacity="1" fill="#efb11e" fill-opacity="0.25" d=" M 300.9009069206828 289.34601700707776 L 302.3373266715303 287.74436228340693 L 303.7823449897826 286.157013144561 L 305.23617800683223 284.58430736355376 L 306.6990363786458 283.0265871208607 L 308.1711250564023 281.4841989941479 L 309.65264303878917 279.9574939358981 L 311.1437831061173 278.44682723833677 L 312.644731536506 276.95255848500494 L 314.15566780445454 275.4750514883128 L 315.67676426215723 274.0146742124328 L 317.2081858040407 272.57179868083654 L 318.75008951505833 271.14680086781124 L 320.30262430341486 269.74006057325624 L 321.86593051844545 268.35196128010836 L 323.44013955453477 266.9828899937197 L 325.0253734420792 265.6332370625252 L 326.62174442658784 264.3033959793961 L 328.2293545372062 262.9937631630567 L 329.84829514604576 261.7047377190134 L 331.47864651990074 260.4367211794526 L 333.1204773660289 259.19011722165493 L 334.77384437387957 257.9653313645001 L 336.43879175480845 256.7627706427016 L 338.11535078194595 255.58284325852043 L 339.80353933259164 254.4259582107506 L 341.50336143563595 253.29252490089317 L 343.21480682669835 252.182952716512 L 344.9378505137772 251.09765059191022 L 346.6724523563811 250.03702654635984 L 348.4185566612508 249.00148720024822 L 350.176091797847 247.99143726966935 L 351.94496983692795 247.00727904010773 L 353.7250862156176 246.04941182001704 L 355.51631943238044 245.1182313752815 L 357.3185307754128 244.2141293456785 L 359.1315640879146 243.3374926446578 L 360.9552455737369 242.48870284389795 L 362.7893836467821 241.66813554430263 L 364.63376882749105 240.87615973524765 L 366.48817368962705 240.1131371440608 L 368.35235286035254 239.3794215779013 L 370.226043076456 238.6753582603384 L 372.1089632992898 238.00128316509827 L 374.00081489075194 237.35752234956962 L 375.9012818522622 236.7443912908064 L 377.8100311283731 236.16219422685836 L 379.7267129762664 235.6112235063557 L 381.65096140190576 235.0917589493635 L 383.58239466322016 234.604067222557 L 385.5206158401969 234.14840123180366 L 387.46521347122655 233.7249995352524 L 389.4157622545732 233.3340857799969 L 391.37182381328034 232.9758681653432 L 393.3329475213285 232.65053893562714 L 395.2986713882815 232.3582739054387 L 397.26852299918585 232.0992320199687 L 399.2420205059883 231.8735549530404 L 401.2186736662085 231.68136674521145 L 403.1979849242259 231.52277348411616 L 405.1794505300751 231.3978630289945 L 407.162561690336 231.30670478109778 L 409.14680574532235 231.24934950139732 L 411.13166736655546 231.2258291767314 L 413.1166297683527 231.23615693523152 L 415.1011759270473 231.28032701156073 L 417.0847898015347 231.35831476218348 L 419.0669575485763 231.4700767305694 L 421.0471687265315 231.61555076192224 L 423.0249174811844 231.79465616671064 L 424.999703707574 232.00729393197787 L 426.97103418197673 232.25334697911916 L 428.9384236584352 232.532680466534 L 430.90139592461435 232.84514213530593 L 432.8594848121754 233.1905626958258 L 434.8122351572198 233.5687562530509 L 436.75920370689425 233.9795207679076 L 438.69995996868977 234.42263855217283 L 440.6340869995229 234.89787679403685 L 442.5611821321553 235.4049881114258 L 444.48085763708673 235.94371113008668 L 446.39274131858076 236.51377108338107 L 448.29647704396234 237.11488043069153 L 450.19172520589075 237.74673949135322 L 452.0781631177539 238.40903709103424 L 453.955485342845 239.10145121754348 L 455.8234039583598 239.82364968309497 L 457.68164875570506 240.57529079015572 L 459.5299673789833 241.35602399811353 L 461.36812540380424 242.1654905881 L 463.1959063589301 243.00332432346354 L 465.01311169347116 243.86915210351225 L 466.8195606926156 244.76259460832352 L 468.6150903449933 245.68326693255318 L 470.3995551649665 246.63077920636513 L 472.1728269732405 247.60473720177592 L 473.93479463920994 248.6047429228566 L 475.6853637885423 249.6303951784298 L 477.42445647949637 250.6812901360706 L 479.152010851411 251.75702185635964 L 480.867980748803 252.8571828065325 L 482.57233532439534 253.98136435279687 L 484.2650586243499 255.1291572307676 L 485.9461491588114 256.30015199357524 L 487.61561946079246 257.4939394373652 L 489.273495636285 258.71011100403103 L 490.91981690830187 259.9482591611102 L 492.5546351574461 261.2079777589163 L 494.1780144614071 262.488862365047 L 495.79003063566154 263.7905105765285 L 497.390770777444 265.1125223098949 L 498.98033281492997 266.45450006960414 L 500.5588250634138 267.8160491952539 L 502.1263657900697 269.1967780880822 L 503.683082788771 270.596298417313 L 505.2291129662931 272.0142253069482 L 506.7646019410512 273.4501775036009 L 508.2897036554358 274.90377752603223 L 509.8045800026449 276.3746517970375 L 511.309400468836 277.8624307583738 L 512.804341791258 279.36674896938337 L 514.2895876329651 280.8872451900033 L 515.7653282746185 282.4235624488518 L 517.2317603237593 283.9753480970349 L 518.6890864419104 285.54225384835524 L 520.1375150897516 287.1239358065518 L 521.577260290598 288.72005448022315 L 523.0085414123064 290.3302747860182 L 660.160703931466 289.8320132513841 L 658.7444699924031 288.19665784533396 L 657.3360481769815 286.54813001039656 L 655.9352002790741 284.88674803417126 L 654.541683541076 283.21282592869727 L 653.1552507631116 281.52667348475165 L 651.7756503936315 279.82859633433816 L 650.4026266014174 278.118896020945 L 649.0359193290428 276.3978700772232 L 647.6752643277979 274.6658121097235 L 646.320393174073 272.923011890362 L 644.9710332672157 271.1697554543589 L 643.626907808809 269.4063252043703 L 642.2877357633316 267.63300002060845 L 640.9532318000956 265.85005537673356 L 639.6231062163672 264.05776346138674 L 638.2970648415062 262.2563933052208 L 636.974808921922 260.4462109133175 L 635.65603498663 258.6274794029573 L 634.3404346931067 256.80045914668307 L 633.0276946531244 254.9654079206785 L 631.7174962381572 253.12258105846783 L 630.4095153639346 251.27223161003658 L 629.1034222536284 249.41461050646058 L 627.7988811790857 247.5499667301657 L 626.4955501794914 245.67854749102264 L 625.193080756736 243.80059840847298 L 623.8911175466856 241.91636369992125 L 622.5892979655082 240.02608637571555 L 621.2872518300779 238.13000844102197 L 619.9846009514263 236.2283711049883 L 618.6809587000788 234.32141499759229 L 617.3759295420597 232.4093803946755 L 616.0691085442062 230.49250745166916 L 614.7600808473297 228.57103644656996 L 613.4484211056696 226.64520803282983 L 612.1336928909348 224.71526350282434 L 610.8154480591252 222.78144506267637 L 609.4932260781649 220.8439961192325 L 608.166553314283 218.90316158012382 L 606.8349422748984 216.95918816787366 L 605.4978908056223 215.012324749097 L 604.1548812388661 213.0628226799796 L 602.8053794913494 211.1109361692574 L 601.448834107673 209.15692266007264 L 600.0846752469242 207.20104323214684 L 598.7123136091639 205.24356302589223 L 597.3311392984438 203.28475169016536 L 595.9405206188459 201.32488385550784 L 594.5398027999136 199.3642396349174 L 593.1283066476578 197.40310515429564 L 591.7053271172266 195.4417731149418 L 590.2701318031773 193.48054339059885 L 588.8219593432517 191.51972366182335 L 587.3600177314704 189.559630090614 L 585.8834825363464 187.60058803846408 L 584.3914950201138 185.64293283129672 L 582.8831601549437 183.68701057495184 L 581.3575445323265 181.73317902517203 L 579.8136741621583 179.7818085163717 L 578.250532158465 177.83328295371894 L 576.6670563093527 175.88800087342378 L 575.0621365295441 173.94637657640885 L 573.4346121949615 172.00884134093246 L 571.7832693601189 170.07584472002935 L 570.1068378607829 168.14785592996878 L 568.4039883065037 166.22536533631268 L 566.6733289701841 164.30888604440543 L 564.913402585097 162.3989556014585 L 563.1226830636211 160.49613781758197 L 561.2995721567657 158.6010247133486 L 559.4423960792165 156.7142386015125 L 557.5494021314979 154.83643431047156 L 555.6187553590798 152.96830155692206 L 553.6485352979448 151.11056747472142 L 551.6367328676454 149.26399930633454 L 549.5812474864749 147.4294072623294 L 547.4798844991715 145.60764755297075 L 545.3303530260707 143.79962559416012 L 543.1302643639003 142.00629938747463 L 540.8771310929565 140.22868307093447 L 538.5683670732179 138.46785063302164 L 536.2012885433711 136.724939777364 L 533.7731165718063 135.00115591919186 L 531.2809811470964 133.29777628681654 L 528.7219272371735 131.61615409194766 L 526.0929231904456 129.95772272123247 L 523.3908718975199 128.32399988792935 L 520.6126251770138 126.71659166670372 L 517.7550018908008 125.13719631614168 L 514.8148103295268 123.58760777262108 L 511.788875433571 122.06971867557277 L 508.6740714221319 120.58552275825147 L 505.467360386559 119.13711641036716 L 502.16583735445806 117.72669918997386 L 498.76678223880936 116.35657303325823 L 495.26771894004344 115.02913988387061 L 491.66648165786637 113.74689744066112 L 487.96128818282557 112.51243270691543 L 484.15081956750294 111.32841301914652 L 480.2343051204707 110.1975742433518 L 476.2116111262634 109.12270585583397 L 472.0833310860278 108.10663267893696 L 467.8508746227212 107.15219312333357 L 463.5165515444022 106.26221390088796 L 459.083646967051 105.4394813163949 L 454.5564829376573 104.68670942079953 L 449.94046175176516 104.00650550705444 L 445.24208621124785 103.40133364244895 L 440.4689524921065 102.87347714359612 L 435.62971213690867 102.4250010938145 L 430.7340009612117 102.05771615659413 L 425.79233432372064 101.77314503208561 L 420.81597015399484 101.57249291780158 L 415.8167432021753 101.45662325748881 L 410.8068759742033 101.42603988954028 L 405.7987735307612 101.48087644504193 L 400.8048105619207 101.62089351288483 L 395.8371197523596 101.84548371186557 L 390.90739035113256 102.1536844198908 L 386.02668506603027 102.54419754251711 L 381.20528201495176 103.01541538831435 L 376.4525466496077 103.56545148114893 L 371.776836525915 104.19217499379428 L 367.1854397422711 104.893247436813 L 362.6845459893956 105.66616027494541 L 358.2792475968281 106.50827225576165 L 353.97356680652194 107.4168454027255 L 349.7705047816431 108.38907882573892 L 345.67210754671373 109.42213971641476 L 341.6795440964951 110.51319110529562 L 337.79319222725485 111.65941615068971 L 334.01272815003176 112.85803889501005 L 330.33721656104103 114.10634155976945 L 326.7651985000299 115.40167855374574 L 323.29477496985066 116.7414874417708 L 319.9236848816769 118.12329716757912 L 316.6493764074198 119.5447338474014 L 313.46907125322343 121.00352445610446 L 310.3798217136574 122.49749871923123 L 307.3785606305678 124.0245895062132 L 304.46214457229644 125.5828319957158 L 301.6273906786427 127.17036185643656 L 298.8711076961323 128.78541265765972 L 296.1901217672846 130.42631269521405 L 293.5812975466109 132.0914813910981 L 291.04155520301856 133.77942539979202 L 288.56788384023207 135.48873453142872 L 286.15735182924084 137.2180775817004 L 283.80711450366795 138.9661981407611 L 281.51441962379295 140.7319104381536 L 279.27661096975964 142.51409526793353 L 277.0911303810868 144.31169602728855 L 274.9555185187241 146.12371489301336 L 272.8674145883449 147.94920915283876 L 270.82455522961334 149.78728770258735 L 268.8247727457077 151.63710771538 L 266.8659928205 153.49787148532496 L 264.94623184728255 155.36882344511443 L 263.0635939723883 157.24924735474556 L 261.2162679394153 159.13846365684057 L 259.402523804552 161.03582699284905 L 257.6207095806135 162.9407238734991 L 255.86924785637015 164.852570496348 L 254.14663242847993 166.77081070295952 L 252.4514249755875 168.69491406804696 L 250.78225179758394 170.624374112985 L 249.13780063764355 172.55870663615877 L 247.5168176001232 174.4974481528598 L 245.91810417376905 176.44015443763016 L 244.340514366607 178.3863991622951 L 242.7829519564377 180.33577262324678 L 241.24436785891135 182.28788055182142 L 239.72375761352208 184.24234300201812 L 238.22015898664765 186.19879331009372 L 236.73264968974016 188.15687712095541 L 235.2603452100733 190.1162514765334 L 233.80239675084795 192.07658396168284 L 232.35798927705144 194.03755190346055 L 230.92633966321893 195.99884161986478 L 229.5066949390279 197.9601477144417 L 228.09833062856137 199.92117241342106 L 226.70054917907845 201.88162494223087 L 225.31267847510705 203.84122093853225 L 223.9340704337709 205.79968189907424 L 222.56409967732174 207.75673465791533 L 221.20216227900653 209.7121108936829 L 219.84767457850327 211.6655466637572 L 218.50007206330312 213.6167819634316 L 217.158808312609 215.56556030819473 L 215.82335400043866 217.5116283374825 L 214.4931959548173 219.45473543832395 L 213.1678362700751 221.39463338747598 L 211.84679146946937 223.3310760106872 L 210.52959171547653 225.26381885788706 L 209.21578006525579 227.19261889318756 L 207.90491176897126 229.11723419862844 L 206.5965536087631 231.03742369073848 L 205.29028327633495 232.95294684901478 L 203.9856887872256 234.86356345554313 L 202.682367930006 236.7690333449882 L 201.37992774873427 238.6691161642956 L 200.0779840571197 240.5635711415061 L 198.7761609829934 242.45215686309325 L 197.47409054175938 244.33463105933262 L 196.17141223760308 246.21075039726335 L 194.86777269136564 248.08027028080087 L 193.56282529404442 249.94294465766473 L 192.25622988500137 251.7985258327813 L 190.94765245401314 253.64676428791003 L 189.63676486641677 255.48740850722078 L 188.32324461064783 257.3202048086395 L 187.00677456753996 259.14489718081063 L 185.6870428008548 260.9612271255191 L 184.36374236853425 262.7689335055054 L 183.03657115426017 264.5677523975961 L 181.7052317189305 266.3574169511516 L 180.36943117175412 268.1376572518088 L 179.0288810606854 269.9082001905753 L 177.6832972819619 271.6687693383636 L 176.3324000085866 273.4190848260415 L 174.97591363760108 275.15886323015246 L 173.61356675603065 276.887817464488 L 172.2450921254496 278.60565667768435 L 170.87022668509823 280.3120861570998 L 169.48871157354196 282.0068072392184 L 168.10029216884845 283.689517226898 L 166.7047181473162 285.3599093137589 L 165.30174356076503 287.01767251608373 L 163.89112693240446 288.6624916126256 L 162.47263137133325 290.2940470927131" style="position: absolute;"></path>
        <path id="skyline_chart_div_jxgBoard1G42" stroke-linecap="butt" stroke-linejoin="round" stroke-width="1px" stroke="#FF6600" stroke-opacity="1" fill="#FED0B2" fill-opacity="0.65" d=" M 50.18518518518519 290.7692307692308 L 50.18518518518519 283.2064530696637 L 52.1925925925926 282.98813122295695 L 54.2 283.0912592622073 L 56.207407407407416 283.038499277644 L 58.21481481481482 283.7245096006627 L 60.22222222222223 284.2604522152066 L 62.229629629629635 284.5670335101777 L 64.23703703703704 284.87366172634773 L 66.24444444444445 284.92477083076 L 68.25185185185185 285.2314509063044 L 70.25925925925927 286.39748587830894 L 72.26666666666668 286.01207339938804 L 74.27407407407408 286.01207339938804 L 76.28148148148149 286.01207339938804 L 78.28888888888889 284.4274182405648 L 80.2962962962963 284.4274182405648 L 82.30370370370372 282.84402837178635 L 84.31111111111112 282.84402837178635 L 86.31851851851852 282.84402837178635 L 88.32592592592593 281.2622172151756 L 90.33333333333334 281.2622172151756 L 92.34074074074076 279.6822963133965 L 94.34814814814816 279.6822963133965 L 96.35555555555555 279.6822963133965 L 98.36296296296297 278.1045749675989 L 100.37037037037038 278.1045749675989 L 102.3777777777778 278.1045749675989 L 104.3851851851852 276.5293598748094 L 106.39259259259259 276.5293598748094 L 108.4 276.5293598748094 L 110.40740740740742 274.95695478729834 L 112.41481481481483 274.95695478729834 L 114.42222222222223 274.95695478729834 L 116.42962962962964 273.3876601661904 L 118.43703703703704 273.3876601661904 L 120.44444444444446 271.8217728531947 L 122.45185185185186 271.8217728531947 L 124.45925925925927 270.25958574417126 L 126.46666666666668 270.25958574417126 L 128.47407407407408 268.70138748814213 L 130.4814814814815 268.70138748814213 L 132.48888888888888 267.147462184021 L 134.4962962962963 267.147462184021 L 136.5037037037037 265.59808909712774 L 138.51111111111112 265.59808909712774 L 140.51851851851853 264.0535423889726 L 142.52592592592595 264.0535423889726 L 144.53333333333336 262.51409085388076 L 146.54074074074074 260.9799976840181 L 148.54814814814816 260.9799976840181 L 150.55555555555557 259.4515202351499 L 152.56296296296296 259.4515202351499 L 154.57037037037037 257.92890981595906 L 156.57777777777778 256.4124114844782 L 158.5851851851852 256.4124114844782 L 160.5925925925926 254.9022638740238 L 162.60000000000002 254.9022638740238 L 164.60740740740744 253.3986990210885 L 166.61481481481482 251.90194221606436 L 168.62222222222223 251.90194221606436 L 170.62962962962965 250.41221186984995 L 172.63703703703703 250.41221186984995 L 174.64444444444445 250.41221186984995 L 176.65185185185186 248.92971938957157 L 178.65925925925927 248.92971938957157 L 180.66666666666669 248.92971938957157 L 182.6740740740741 247.45466908362255 L 184.68148148148148 247.45466908362255 L 186.6888888888889 247.45466908362255 L 188.6962962962963 247.45466908362255 L 190.70370370370372 245.9872580687623 L 192.71111111111114 245.9872580687623 L 194.71851851851852 245.9872580687623 L 196.72592592592594 245.9872580687623 L 198.73333333333335 244.52767620072365 L 200.74074074074076 244.52767620072365 L 202.74814814814818 244.52767620072365 L 204.75555555555556 244.52767620072365 L 206.76296296296297 243.07610601196853 L 208.7703703703704 243.07610601196853 L 210.7777777777778 243.07610601196853 L 212.7851851851852 241.63272267752876 L 214.7925925925926 241.63272267752876 L 216.8 240.19769398202232 L 218.80740740740742 240.19769398202232 L 220.81481481481484 240.19769398202232 L 222.82222222222225 238.7711803073744 L 224.82962962962964 238.7711803073744 L 226.83703703703705 238.7711803073744 L 228.84444444444446 237.35333463411112 L 230.85185185185188 237.35333463411112 L 232.8592592592593 235.94430254936384 L 234.86666666666667 235.94430254936384 L 236.8740740740741 235.94430254936384 L 238.8814814814815 234.54422228040687 L 240.8888888888889 234.54422228040687 L 242.8962962962963 234.54422228040687 L 244.9037037037037 233.15322472741025 L 246.91111111111113 233.15322472741025 L 248.91851851851854 233.15322472741025 L 250.92592592592595 231.77143351547468 L 252.93333333333334 231.77143351547468 L 254.94074074074075 231.77143351547468 L 256.94814814814816 230.39896505010563 L 258.9555555555556 230.39896505010563 L 260.962962962963 230.39896505010563 L 262.97037037037035 229.03592859566828 L 264.97777777777776 229.03592859566828 L 266.9851851851852 229.03592859566828 L 268.9925925925926 227.68242635109692 L 271 227.68242635109692 L 273.0074074074074 227.68242635109692 L 275.0148148148148 226.3385535411309 L 277.02222222222224 226.3385535411309 L 279.02962962962965 226.3385535411309 L 281.03703703703707 225.00439851612447 L 283.0444444444445 225.00439851612447 L 285.0518518518519 223.6800428538241 L 287.0592592592593 223.6800428538241 L 289.0666666666667 223.6800428538241 L 291.07407407407413 222.36556148068775 L 293.0814814814815 222.36556148068775 L 295.0888888888889 221.06102278787841 L 297.0962962962963 221.06102278787841 L 299.10370370370373 221.06102278787841 L 301.11111111111114 219.76648876073574 L 303.1185185185185 219.76648876073574 L 305.1259259259259 219.76648876073574 L 307.1333333333333 218.48201510679718 L 309.14074074074074 218.48201510679718 L 311.14814814814815 218.48201510679718 L 313.15555555555557 217.20765140065237 L 315.162962962963 217.20765140065237 L 317.1703703703704 217.20765140065237 L 319.1777777777778 217.20765140065237 L 321.1851851851852 217.20765140065237 L 323.19259259259263 217.20765140065237 L 325.20000000000005 217.20765140065237 L 327.20740740740746 217.20765140065237 L 329.2148148148149 217.20765140065237 L 331.2222222222223 217.20765140065237 L 333.2296296296297 217.20765140065237 L 335.2370370370371 217.20765140065237 L 337.2444444444444 217.20765140065237 L 339.2518518518518 217.20765140065237 L 341.25925925925924 217.20765140065237 L 343.26666666666665 218.48201510679718 L 345.27407407407406 218.48201510679718 L 347.2814814814815 218.48201510679718 L 349.2888888888889 218.48201510679718 L 351.2962962962963 219.76648876073574 L 353.3037037037037 219.76648876073574 L 355.31111111111113 221.06102278787841 L 357.31851851851854 221.06102278787841 L 359.32592592592596 222.36556148068775 L 361.33333333333337 222.36556148068775 L 363.3407407407408 223.6800428538241 L 365.3481481481482 225.00439851612447 L 367.3555555555556 225.00439851612447 L 369.362962962963 226.3385535411309 L 371.37037037037044 227.68242635109692 L 373.37777777777785 229.03592859566828 L 375.38518518518526 229.03592859566828 L 377.39259259259256 230.39896505010563 L 379.4 231.77143351547468 L 381.4074074074074 233.15322472741025 L 383.4148148148148 233.15322472741025 L 385.4222222222222 234.54422228040687 L 387.42962962962963 235.94430254936384 L 389.43703703703704 237.35333463411112 L 391.44444444444446 238.7711803073744 L 393.45185185185187 240.19769398202232 L 395.4592592592593 241.63272267752876 L 397.4666666666667 241.63272267752876 L 399.4740740740741 243.07610601196853 L 401.4814814814815 244.52767620072365 L 403.48888888888894 245.9872580687623 L 405.49629629629635 247.45466908362255 L 407.50370370370376 248.92971938957157 L 409.5111111111112 250.41221186984995 L 411.5185185185186 251.90194221606436 L 413.525925925926 253.3986990210885 L 415.5333333333334 254.9022638740238 L 417.5407407407407 256.4124114844782 L 419.54814814814813 257.92890981595906 L 421.55555555555554 259.4515202351499 L 423.56296296296296 260.9799976840181 L 425.57037037037037 262.51409085388076 L 427.5777777777778 264.0535423889726 L 429.5851851851852 265.59808909712774 L 431.5925925925926 267.147462184021 L 433.6 267.30126710885753 L 435.60740740740744 267.01914725242034 L 437.61481481481485 267.16018835910404 L 439.62222222222226 266.80478182348406 L 441.6296296296297 266.92407192011706 L 443.6370370370371 267.0433892224315 L 445.6444444444445 266.80478182348406 L 447.6518518518519 266.4905166282622 L 449.65925925925933 266.32789600133265 L 451.66666666666674 266.4905166282622 L 453.67407407407416 265.3847987868642 L 455.68148148148146 264.3671702151937 L 457.68888888888887 263.4008296114806 L 459.6962962962963 261.86366777262043 L 461.7037037037037 259.9668310241381 L 463.7111111111111 257.68222217142727 L 465.7185185185185 255.66305525639285 L 467.72592592592594 254.15619627116013 L 469.73333333333335 252.90558682058912 L 471.74074074074076 252.15750727056388 L 473.7481481481482 251.6597569946081 L 475.7555555555556 251.90853452319305 L 477.762962962963 251.3104776263209 L 479.7703703703704 250.71487727764276 L 481.7777777777778 250.41750810568269 L 483.78518518518524 250.71487727764276 L 485.79259259259265 251.01253434457732 L 487.80000000000007 251.60870543221503 L 489.8074074074075 252.50507891200775 L 491.8148148148149 253.40395114551293 L 493.8222222222223 253.401325080646 L 495.8296296296296 252.90164234903796 L 497.837037037037 252.40272433736303 L 499.84444444444443 252.40272433736303 L 501.85185185185185 251.90457913540178 L 503.85925925925926 251.90457913540178 L 505.8666666666667 251.90457913540178 L 507.8740740740741 251.90457913540178 L 509.8814814814815 252.90164234903796 L 511.8888888888889 253.401325080646 L 513.8962962962963 254.40295191940595 L 515.9037037037037 255.40753843808935 L 517.9111111111112 256.9198190357571 L 519.9185185185186 257.9315054287339 L 521.925925925926 259.454106445824 L 523.9333333333334 260.47244885324403 L 525.9407407407408 262.0046896679944 L 527.9481481481482 263.2844453544195 L 529.9555555555556 264.05482257609077 L 531.962962962963 264.8264737319086 L 533.9703703703705 265.59936539168353 L 535.9777777777778 266.37346378289396 L 537.9851851851852 267.9251440002233 L 539.9925925925926 269.48123764350277 L 542 270.2608516509313 L 544.0074074074074 271.8230357414781 L 546.0148148148148 272.7325277398726 L 548.0222222222222 273.9641158476652 L 550.0296296296297 274.63676031149333 L 552.0370370370371 274.9733028809222 L 554.0444444444445 275.4222482128785 L 556.0518518518519 275.8714407533056 L 558.0592592592593 277.10793766102734 L 560.0666666666667 278.23347878401415 L 562.0740740740741 278.90941981703656 L 564.0814814814815 279.2475541581085 L 566.088888888889 279.2475541581085 L 568.0962962962964 279.02211938964143 L 570.1037037037038 278.79673226806085 L 572.1111111111112 278.6840568542496 L 574.1185185185186 278.79673226806085 L 576.125925925926 278.79673226806085 L 578.1333333333334 278.6840568542496 L 580.1407407407409 278.79673226806085 L 582.1481481481483 279.02211938964143 L 584.1555555555556 279.2475541581085 L 586.162962962963 279.4730356778986 L 588.1703703703704 280.1497517756666 L 590.1777777777778 280.82995081773043 L 592.1851851851852 280.8957990979229 L 594.1925925925926 280.7641059862681 L 596.2 280.29972951365284 L 598.2074074074075 279.83178608844867 L 600.2148148148149 279.6563562877348 L 602.2222222222223 279.30557923684006 L 604.2296296296297 279.36403433088265 L 606.2370370370371 279.6563562877348 L 608.2444444444445 279.5978857502634 L 610.2518518518519 279.2471272783661 L 612.2592592592594 279.83178608844867 L 614.2666666666668 279.9980492332054 L 616.2740740740742 279.6596959359658 L 618.2814814814816 279.37781250120287 L 620.288888888889 279.4341834476674 L 622.2962962962964 279.5394182701703 L 624.3037037037037 279.60331353653885 L 626.3111111111111 279.60331353653885 L 628.3185185185185 279.60331353653885 L 630.325925925926 279.71608116357964 L 632.3333333333334 279.83178608844867 L 634.3407407407408 279.77246920535055 L 636.3481481481482 279.60331353653885 L 638.3555555555556 279.499584742382 L 640.362962962963 280.35028596442925 L 642.3703703703704 280.19044020355904 L 644.3777777777779 279.91577826080487 L 646.3851851851853 279.8471229427562 L 648.3925925925927 279.77686258856545 L 650.4000000000001 279.64529320036604 L 652.4074074074075 279.2506781715541 L 654.4148148148149 278.7904756013167 L 656.4222222222223 278.46188323172964 L 658.4296296296297 277.95072877129974 L 660.4370370370372 277.8464608065927 L 662.4444444444446 277.1629507669773 L 664.4518518518519 276.5506986625411 L 666.4592592592593 276.638137605374 L 668.4666666666667 276.4632684058512 L 670.4740740740741 276.2884341581185 L 672.4814814814815 276.2884341581185 L 674.4888888888889 276.5506986625411 L 676.4962962962964 276.7893133960095 L 678.5037037037038 276.7893133960095 L 680.5111111111112 276.55320911898133 L 682.5185185185186 276.55320911898133 L 684.525925925926 276.1049186115644 L 686.5333333333334 276.1049186115644 L 688.5407407407408 276.4045898884063 L 690.5481481481482 276.8307235416653 L 692.5555555555557 276.8307235416653 L 694.5629629629631 276.76227846175817 L 696.5703703703705 276.76227846175817 L 698.5777777777779 276.427089035361 L 700.5851851851853 276.5519538904309 L 702.5925925925926 276.8542896052305 L 704.6 276.5544643479739 L 706.6074074074074 276.4965352257357 L 708.6148148148148 276.43358970649734 L 710.6222222222223 276.5594852699164 L 712.6296296296297 276.5594852699164 L 714.6370370370371 276.6853988555968 L 716.6444444444445 277.3152316957932 L 718.6518518518519 277.50426575305573 L 720.6592592592593 277.65555441298295 L 722.6666666666667 277.49799600835644 L 724.6740740740742 277.3404639329732 L 726.6814814814816 277.73434339368134 L 728.688888888889 277.5839586507958 L 730.6962962962964 277.3099839475986 L 732.7037037037038 277.7209757934389 L 734.7111111111112 277.73935796068884 L 736.7185185185186 277.6080472845113 L 738.725925925926 277.5423987416283 L 740.7333333333335 277.62941304578897 L 742.7407407407408 277.19978475161747 L 744.7481481481482 277.4861817518357 L 746.7555555555556 277.56728556059306 L 748.762962962963 277.6933377414912 L 750.7703703703704 278.44999448343685 L 752.7777777777778 278.5604276859467 L 754.7851851851852 279.47070804798363 L 756.7925925925927 280.0072428425714 L 758.8000000000001 280.41674437775833 L 760.8074074074075 280.82638497388507 L 762.8148148148149 281.47037389568624 L 764.8222222222223 282.08662820886843 L 766.8296296296297 282.11514961787196 L 768.8370370370371 282.551577624875 L 770.8444444444445 283.04270892684696 L 772.851851851852 283.2064530696637 L 772.851851851852 290.7692307692308" style="position: absolute;"></path>
    </g>
    <g></g>
    <g>
        <line id="skyline_chart_div_jxgBoard1L13" x1="50.18518518518519" y1="290.7692307692308" x2="813.0000000000001" y2="290.7692307692308" marker-end="url(#skyline_chart_div_jxgBoard1L13TriangleStart)" stroke-width="1px" stroke="black" stroke-opacity="1" style="position: absolute;"></line>
        <line id="skyline_chart_div_jxgBoard1L26" x1="50.18518518518519" y1="290.7692307692308" x2="50.18518518518519" y2="41.53846153846155" marker-end="url(#skyline_chart_div_jxgBoard1L26TriangleStart)" stroke-width="1px" stroke="black" stroke-opacity="1" style="position: absolute;"></line>
    </g>
    <g></g>
    <g></g>
    <g></g>
    <g></g>
    <g></g>
    <g></g>
    <g></g>
    <g></g>
    <g></g>
    <g></g>
    <g></g>
    <g></g>
</svg>